<svg width="48" height="48" viewBox="0 0 48 48" fill="none" xmlns="http://www.w3.org/2000/svg">
<g clip-path="url(#clip0_14_190)">
<path d="M11.4228 26.4461L12.6928 16.3078L1.67749 8.18275L11.742 11.8051L14.1189 7.9302L22.798 2.20801L41.9288 13.407L42.9203 30.4942L34.3974 43.0787L27.6605 44.1755L31.1444 37.3998V30.8767L28.6113 25.7823L26.0374 23.9711L22.0782 28.3078V32.8971L18.9882 35.9711L15.0629 36.4762L13.3243 37.5225L10.4721 36.5556L9.2836 32.0096L11.4228 28.8129V26.4461Z" fill="white"/>
<path d="M29.0119 8.09622C26.9135 7.6344 24.618 7.75707 24.618 7.75707C24.618 7.75707 23.8642 11.4588 19.1919 12.433C19.2259 12.433 25.3651 14.6627 29.0119 8.09622Z" fill="black"/>
<path d="M30.9133 41.6861C33.4464 39.579 35.3479 36.6783 36.224 33.395C36.2647 33.2724 36.6179 33.0559 36.8556 32.8899C37.2495 32.6374 37.6501 32.4281 37.7248 32.089C37.881 31.122 37.9625 30.1118 37.9625 29.1016C37.9625 28.7264 37.6026 28.3439 37.2495 27.9687C36.971 27.7161 36.6926 27.4203 36.6926 27.211C36.2987 23.3794 34.6349 19.8003 31.9795 17.1954L31.7011 17.4912C34.2749 20.0601 35.9388 23.5526 36.2987 27.2543C36.3394 27.5935 36.6518 27.9254 36.971 28.2646C37.2495 28.5171 37.5687 28.8995 37.5687 29.0655C37.5687 30.0324 37.4872 30.9994 37.331 31.9663C37.2902 32.1323 36.9371 32.3054 36.6586 32.4714C36.2647 32.6807 35.9048 32.8899 35.8301 33.2291C34.8793 36.8081 32.6994 39.9254 29.8063 41.9458C30.3225 40.7697 31.9456 36.938 32.8148 34.997L32.6586 28.7697L27.6264 23.5959L24.7741 24.0144L21.6434 29.4047C21.6434 29.4047 23.1102 31.3818 21.0457 33.6981C19.0288 35.9711 17.4396 36.4762 17.4396 36.4762L15.9727 35.632C16.4074 35.0403 17.2834 34.1599 17.9557 33.5682C19.1035 32.558 20.2512 32.4714 20.2512 31.3818C20.2987 29.1016 17.9965 29.7294 17.9965 29.7294L17.1612 30.5736L16.808 33.6909L15.0695 36.0072L14.8726 35.9639L12.0203 35.2928C12.0203 35.2928 13.7656 34.3259 14.044 33.2291C14.3225 32.1756 13.4872 28.6831 13.4464 28.4738C13.4872 28.5171 14.2817 29.2315 14.6349 30.4077C15.2664 28.5532 16.1018 26.7853 16.3394 26.6193C16.5771 26.4534 19.7826 24.6422 19.7826 24.6422L18.7164 27.6296L19.5109 27.1677L21.4125 22.2032C21.4125 22.2032 23.2732 21.2363 24.6586 21.2363C27.151 21.193 30.8386 17.9531 29.1748 12.1443C29.6501 12.3535 37.8878 16.7336 39.314 25.3205C40.3802 31.923 36.8556 38.107 30.9133 41.6861Z" fill="black"/>
<path d="M21.4874 9.01989C22.3974 7.87978 22.0443 6.19849 22.0443 6.19849L19.3889 10.3693C19.3482 10.3693 20.3329 10.4126 21.4874 9.01989Z" fill="black"/>
<path d="M12.5704 31.7931L12.8896 30.1118C12.8896 30.1118 11.5789 32.5508 11.4635 32.8899C11.3412 33.2724 11.545 33.9434 12.0543 33.9002C12.5704 33.8569 13.202 33.0559 13.202 32.4714C13.202 31.7137 12.5704 31.7931 12.5704 31.7931Z" fill="black"/>
<path d="M36.102 5.02225C36.102 5.02225 38.085 5.10884 40.1427 5.36139C35.5043 1.48647 31.1105 0.353575 27.5451 0.353575C22.6351 0.353575 19.3074 2.50391 19.1037 2.62658L20.6521 0.0144294C20.6521 0.0144294 14.4721 -0.620568 12.2921 6.32832C11.7352 4.85628 11.2259 2.70595 11.2259 2.70595C11.2259 2.70595 8.01368 5.70054 9.52132 10.6651C5.83372 9.23632 0.57056 7.25195 0.366825 7.21587C0.0883871 7.17258 0.006893 7.30246 0.006893 7.30246C0.006893 7.30246 -0.074601 7.42513 0.16309 7.64161C0.604516 8.00962 8.9237 14.54 10.7505 15.8028C10.3566 17.3181 10.3566 18.0325 10.7505 18.7468C11.3074 19.7138 11.3414 20.2189 11.2667 20.9333C11.1852 21.6476 10.4721 27.8388 10.3159 28.5965C10.1597 29.3542 8.49586 32.0457 8.57056 32.8467C8.65205 33.6476 9.67752 37.0535 10.5943 37.436C11.2667 37.6885 12.9305 38.2369 14.0375 38.2369C14.4313 38.2369 14.7913 38.1503 14.9475 37.9844C15.6198 37.3566 15.8167 37.2267 16.2921 37.2267C16.3329 37.2267 16.3736 37.2267 16.4076 37.2267C16.6045 37.2267 16.8422 37.27 17.1206 37.27C17.7522 37.27 18.5875 37.1401 19.1784 36.5556C20.0476 35.632 21.5553 34.3692 22.0307 33.7775C22.6283 32.9765 22.9407 31.8869 22.7845 30.7901C22.6622 29.7799 23.1784 28.8924 23.776 28.012C24.5298 26.9585 25.9152 25.0679 25.9152 25.0679C28.6521 27.2471 30.3566 30.5737 30.3566 34.2754C30.3566 40.8419 24.9712 46.1455 18.3159 46.1455C17.2836 46.1455 16.2989 46.0228 15.3074 45.7703C18.3566 46.9032 20.9305 47.2856 23.0358 47.2856C27.5111 47.2856 29.888 45.561 29.888 45.561C29.888 45.561 29.0595 46.7011 27.7081 48C27.7488 48 27.7488 48 27.7488 48C35.158 46.9032 38.7641 40.4233 38.7641 40.4233C38.7641 40.4233 38.4857 42.5304 38.1325 43.9591C47.9865 36.0866 46.3227 26.2369 46.2819 25.905C46.3634 26.0277 47.3549 27.2904 47.8643 27.9687C49.4534 10.6218 36.102 5.02225 36.102 5.02225ZM20.9305 32.724C20.7743 32.9333 20.102 33.5682 19.6266 34.0301C19.1512 34.4919 18.6351 34.9537 18.2412 35.3794C18.085 35.5454 17.7658 35.632 17.2904 35.632C17.1342 35.632 16.9712 35.632 16.8558 35.632C16.7743 35.632 16.6996 35.632 16.6181 35.632C16.5366 35.632 16.4959 35.632 16.4619 35.632C16.3397 35.632 16.2242 35.632 16.102 35.632C16.6996 34.7877 18.4381 32.8539 19.0358 32.4354C19.7488 31.9302 20.1088 31.4251 19.6673 30.5448C19.2327 29.6572 18.085 29.8737 18.085 29.8737C18.085 29.8737 18.7573 29.5779 19.3549 29.5779C18.6011 29.3686 17.6504 29.5779 17.2157 30.0397C16.7403 30.5015 16.8218 32.1467 16.6249 33.193C16.4279 34.2898 15.7556 34.8382 14.7234 35.8485C14.1665 36.3969 13.7726 36.5628 13.4534 36.5628C12.7811 36.4402 11.9865 36.2237 11.4296 36.0144C11.0358 35.466 10.4381 33.6548 10.2819 32.8972C10.3974 32.4786 10.8728 31.5911 11.1105 31.086C11.5858 30.1191 11.8643 29.5707 11.9458 29.0655C12.102 28.3512 12.6181 23.9278 12.815 22.0806C13.3312 22.7949 14.0442 23.9783 13.8813 24.736C15.029 23.0114 14.2004 21.3229 13.7998 20.6518C13.4466 19.9808 12.9712 18.6314 13.3651 17.2026C13.759 15.7739 15.1852 11.8124 15.1852 11.8124C15.1852 11.8124 15.6605 12.6999 16.3329 12.5268C17.0052 12.3608 22.4313 3.68731 22.4313 3.68731C22.4313 3.68731 23.8982 7.0932 22.3498 9.58268C20.7675 12.0649 19.2191 12.5268 19.2191 12.5268C19.2191 12.5268 21.3991 12.9453 23.4161 11.3866C24.2446 13.4504 25.0392 15.5935 25.0799 15.8894C24.9577 16.1852 23.3753 20.2261 23.2191 20.4786C23.1376 20.5652 22.5875 20.7312 22.1869 20.8178C21.5145 21.0271 21.1206 21.1569 20.9577 21.2796C20.6792 21.5322 19.4093 25.2339 18.8184 27.0451C18.1054 27.2544 17.3923 27.6801 16.8762 28.5171C17.1546 28.3079 18.0239 28.178 18.6622 28.0986C19.2191 28.0553 20.9169 29.0222 21.3583 30.8334C21.3583 30.8767 21.3583 30.8767 21.3583 30.92C21.4466 31.5839 21.2497 32.2189 20.9305 32.724ZM17.2089 33.2291C17.5689 32.6807 17.5281 31.7571 17.5689 31.4612C17.6096 31.1654 17.6843 30.617 18.0035 30.5376C18.3227 30.451 19.0765 30.5809 19.0765 31.1654C19.0765 31.7138 18.5196 31.8364 18.1257 32.2189C17.8405 32.5075 17.2836 33.1425 17.2089 33.2291ZM33.012 25.1834C33.4059 23.0403 33.4466 21.1858 33.3312 19.6705C34.8728 21.8569 35.8235 24.5123 36.102 27.2471C36.1427 27.5863 36.4551 27.9182 36.7743 28.2574C37.0527 28.5099 37.3719 28.8491 37.3719 29.0583C37.3719 30.0253 37.2904 30.9922 37.1342 31.9663C37.0935 32.089 36.7403 32.3055 36.4619 32.4714C36.068 32.6807 35.7081 32.89 35.6334 33.2291C34.7641 36.469 32.8965 39.3337 30.4042 41.3542C34.085 37.27 35.8643 30.5304 33.012 25.1834ZM30.5196 41.7294C33.0935 39.6224 35.0765 36.6783 35.9458 33.3518C35.9865 33.2291 36.3397 33.0126 36.5774 32.8467C36.9712 32.6374 37.3719 32.3848 37.4466 32.0457C37.6028 31.0788 37.6843 30.0686 37.6843 29.0583C37.6843 28.6831 37.3244 28.3007 36.9712 27.9254C36.7743 27.6729 36.4551 27.377 36.4551 27.1678C36.1359 24.0938 34.9882 21.193 33.2089 18.7901C32.4144 13.739 29.2497 12.1804 29.1682 12.1371C29.2497 12.267 31.3074 15.4203 29.8813 19.1221C28.4144 22.8671 24.6521 22.2826 24.3329 22.3187C24.0137 22.3187 22.7913 24 21.2429 27.1173C21.0459 27.0307 20.2106 26.8214 19.2599 26.9946C19.9729 24.8876 21.0459 21.9002 21.2429 21.6476C21.3244 21.561 21.9152 21.3951 22.3159 21.2724C23.0697 21.0631 23.4229 20.9333 23.5451 20.7673C23.6266 20.6374 24.0205 19.6705 24.4144 18.6603C24.7743 18.6603 25.6843 18.5737 25.759 18.5304C25.8405 18.4438 26.5943 16.3872 26.5943 16.1347C26.5943 15.9254 25.0459 11.8412 24.4551 10.2826C24.7335 9.94347 25.012 9.52495 25.2836 9.06314C33.4059 9.99398 39.7488 17.3181 39.7488 26.1936C39.7488 33.0126 35.9865 38.9513 30.5196 41.7294Z" fill="black"/>
<path d="M19.9795 18.9994C20.7333 18.0758 20.3394 16.3512 18.9473 16.0553C19.3072 15.175 19.8165 13.4071 19.8165 13.4071C19.8165 13.4071 15.7758 20.1395 15.4226 20.2694C15.0627 20.3993 14.7096 18.92 14.7096 18.92C13.9557 21.994 15.9795 22.4125 16.2172 21.4456C17.3242 21.1425 19.2257 19.8797 19.9795 18.9994Z" fill="black"/>
<path d="M16.5298 20.6374L18.5875 16.8923C18.5875 16.8923 19.776 17.5273 19.1783 18.5376C18.4313 19.7137 16.5298 20.6374 16.5298 20.6374Z" fill="white"/>
<path d="M42.0033 37.9844C41.4057 38.8287 40.7333 39.709 39.9456 40.5533C45.0525 30.1119 40.1832 20.5581 39.9863 20.1829C40.3462 20.5653 40.6994 20.9838 41.0186 21.359C44.9371 25.9844 45.4124 32.9333 42.0033 37.9844Z" fill="black"/>
<path d="M46.7571 24.5556C44.9711 19.4612 42.438 15.1245 36.8556 11.2135C31.4702 7.42512 25.6841 7.72097 25.3649 7.76427C25.3242 7.76427 25.2834 7.76427 25.2834 7.76427C25.4804 7.67768 25.6773 7.63438 25.8743 7.59831C27.1035 7.17978 28.6858 6.84064 30.275 6.63138C34.4787 5.98916 38.7164 7.5045 41.6094 10.7516C41.6502 10.7949 41.6502 10.7949 41.6909 10.8382C44.9778 14.54 46.6824 19.1654 46.7571 24.5556Z" fill="black"/>
<path d="M35.5858 3.71623C29.6843 2.54005 25.8812 3.12453 23.1444 4.22135C23.0629 3.8822 22.7845 3.21112 22.5468 2.66272C21.725 3.71624 20.849 4.97901 20.2989 5.77997C18.7912 6.87679 18.1597 7.93031 18.1597 7.93031C19.0289 4.76975 21.5688 2.41738 24.6588 1.82568C25.5281 1.65971 26.4789 1.57312 27.5111 1.57312C30.2412 1.61642 32.9712 2.33079 35.5858 3.71623Z" fill="black"/>
<path d="M13.7589 11.798C9.12733 11.632 10.6689 5.90261 10.7504 5.57068C10.7504 5.61397 11.0628 10.0734 13.7589 11.798Z" fill="black"/>
<path d="M18.3159 1.48645C14.7505 3.75945 15.4636 9.18579 15.4636 9.18579C12.0544 3.68008 18.0374 1.61634 18.3159 1.48645Z" fill="black"/>
<path d="M12.455 13.3133C12.6927 13.5226 12.9304 13.905 12.6519 14.4534C12.4957 14.7493 12.258 14.706 11.8981 14.54C11.4227 14.2874 8.57044 12.5196 5.99658 10.7084C8.93037 11.8052 11.8981 12.9814 12.3735 13.2339C12.3735 13.2339 12.4142 13.2772 12.455 13.3133Z" fill="white"/>
</g>
<defs>
<clipPath id="clip0_14_190">
<rect width="48" height="48" fill="white"/>
</clipPath>
</defs>
</svg>
