<svg width="17" height="34" viewBox="0 0 17 34" fill="none" xmlns="http://www.w3.org/2000/svg">
<path d="M14.1177 33.0617C14.2713 33.5923 14.8258 33.8978 15.3563 33.7443C15.8868 33.5907 16.1924 33.0361 16.0388 32.5056L14.1177 33.0617ZM6.41476 0.312247C5.93104 0.045714 5.32285 0.221771 5.05631 0.705481L0.71287 8.58803C0.446334 9.07174 0.622391 9.67993 1.1061 9.94647C1.58982 10.213 2.19801 10.0369 2.46455 9.55324L6.32538 2.54653L13.3321 6.40737C13.8158 6.6739 14.424 6.49785 14.6905 6.01413C14.9571 5.53042 14.781 4.92223 14.2973 4.65569L6.41476 0.312247ZM16.0388 32.5056L6.89272 0.910028L4.97159 1.46614L14.1177 33.0617L16.0388 32.5056Z" fill="#706EFF"/>
</svg>
