<svg width="44" height="16" viewBox="0 0 44 16" fill="none" xmlns="http://www.w3.org/2000/svg">
<path d="M42.5042 9.16565C43.0564 9.16565 43.5042 8.71793 43.5042 8.16565C43.5042 7.61336 43.0564 7.16565 42.5042 7.16565V9.16565ZM0.527659 7.45854C0.137137 7.84907 0.137137 8.48223 0.527659 8.87276L6.89162 15.2367C7.28215 15.6272 7.91531 15.6272 8.30584 15.2367C8.69636 14.8462 8.69636 14.213 8.30584 13.8225L2.64898 8.16565L8.30584 2.50879C8.69636 2.11827 8.69636 1.48511 8.30584 1.09458C7.91531 0.704056 7.28215 0.704056 6.89162 1.09458L0.527659 7.45854ZM42.5042 7.16565L1.23477 7.16565V9.16565L42.5042 9.16565V7.16565Z" fill="#706EFF"/>
</svg>
