<svg width="31" height="31" viewBox="0 0 31 31" fill="none" xmlns="http://www.w3.org/2000/svg">
<path d="M0.514817 28.6495C0.124293 29.04 0.124293 29.6732 0.514817 30.0637C0.905341 30.4543 1.53851 30.4543 1.92903 30.0637L0.514817 28.6495ZM30.4917 1.08687C30.4917 0.534592 30.044 0.0868764 29.4917 0.0868748L20.4917 0.0868742C19.9394 0.0868752 19.4917 0.534589 19.4917 1.08688C19.4917 1.63916 19.9394 2.08688 20.4917 2.08688L28.4917 2.08688L28.4917 10.0869C28.4917 10.6392 28.9394 11.0869 29.4917 11.0869C30.044 11.0869 30.4917 10.6392 30.4917 10.0869L30.4917 1.08687ZM1.92903 30.0637L30.1988 1.79398L28.7846 0.379769L0.514817 28.6495L1.92903 30.0637Z" fill="#706EFF"/>
</svg>
