<svg width="107" height="62" viewBox="0 0 107 62" fill="none" xmlns="http://www.w3.org/2000/svg">
<path d="M105.863 2.33053C106.348 2.06644 106.527 1.45914 106.263 0.974093C105.999 0.489042 105.392 0.309917 104.907 0.574007L105.863 2.33053ZM0.153328 57.9414C-0.00291659 58.4711 0.299848 59.0272 0.829573 59.1834L9.46191 61.7296C9.99163 61.8858 10.5477 61.5831 10.704 61.0533C10.8602 60.5236 10.5574 59.9675 10.0277 59.8113L2.35453 57.548L4.61776 49.8749C4.77401 49.3451 4.47124 48.7891 3.94152 48.6328C3.41179 48.4766 2.85571 48.7793 2.69946 49.3091L0.153328 57.9414ZM104.907 0.574007L0.6343 57.346L1.59065 59.1026L105.863 2.33053L104.907 0.574007Z" fill="#706EFF"/>
</svg>
