<svg width="40" height="40" viewBox="0 0 40 40" fill="none" xmlns="http://www.w3.org/2000/svg">
<path d="M1.86409 0.705338C1.47357 0.314814 0.8404 0.314814 0.449876 0.705338C0.0593513 1.09586 0.0593512 1.72903 0.449875 2.11955L1.86409 0.705338ZM38.5728 39.8283C39.1251 39.8283 39.5728 39.3806 39.5728 38.8283L39.5728 29.8283C39.5728 29.276 39.1251 28.8283 38.5728 28.8283C38.0205 28.8283 37.5728 29.276 37.5728 29.8283L37.5728 37.8283L29.5728 37.8283C29.0205 37.8283 28.5728 38.276 28.5728 38.8283C28.5728 39.3806 29.0205 39.8283 29.5728 39.8283L38.5728 39.8283ZM0.449875 2.11955L37.8657 39.5354L39.2799 38.1212L1.86409 0.705338L0.449875 2.11955Z" fill="#706EFF"/>
</svg>
