<svg width="107" height="62" viewBox="0 0 107 62" fill="none" xmlns="http://www.w3.org/2000/svg">
<path d="M105.863 2.3305C106.348 2.06641 106.528 1.45911 106.264 0.974063C105.999 0.489011 105.392 0.309886 104.907 0.573976L105.863 2.3305ZM0.15345 57.9414C-0.00279452 58.4711 0.299971 59.0272 0.829695 59.1834L9.46203 61.7295C9.99175 61.8858 10.5478 61.583 10.7041 61.0533C10.8603 60.5236 10.5576 59.9675 10.0278 59.8112L2.35465 57.548L4.61788 49.8748C4.77413 49.3451 4.47136 48.789 3.94164 48.6328C3.41191 48.4765 2.85583 48.7793 2.69958 49.309L0.15345 57.9414ZM104.907 0.573976L0.634422 57.346L1.59078 59.1025L105.863 2.3305L104.907 0.573976Z" fill="#706EFF"/>
</svg>
