<svg width="24" height="37" viewBox="0 0 24 37" fill="none" xmlns="http://www.w3.org/2000/svg">
<path d="M23.2633 2.16184C23.5279 1.67707 23.3494 1.06958 22.8647 0.804981C22.3799 0.540379 21.7724 0.718863 21.5078 1.20364L23.2633 2.16184ZM2.79311 36.1019C2.94879 36.6318 3.50456 36.9352 4.03445 36.7795L12.6695 34.2424C13.1993 34.0868 13.5027 33.531 13.347 33.0011C13.1913 32.4712 12.6356 32.1679 12.1057 32.3236L4.43011 34.5787L2.17497 26.9031C2.01929 26.3732 1.46352 26.0699 0.933634 26.2256C0.403746 26.3813 0.100395 26.937 0.256079 27.4669L2.79311 36.1019ZM21.5078 1.20364L2.8748 35.3409L4.63031 36.2991L23.2633 2.16184L21.5078 1.20364Z" fill="#706EFF"/>
</svg>
