<svg width="17" height="34" viewBox="0 0 17 34" fill="none" xmlns="http://www.w3.org/2000/svg">
<path d="M14.1178 33.0617C14.2714 33.5923 14.8259 33.8978 15.3564 33.7443C15.8869 33.5907 16.1925 33.0361 16.0389 32.5056L14.1178 33.0617ZM6.41488 0.312247C5.93117 0.045714 5.32297 0.221771 5.05643 0.705481L0.712992 8.58803C0.446456 9.07174 0.622513 9.67993 1.10623 9.94647C1.58994 10.213 2.19813 10.0369 2.46467 9.55324L6.32551 2.54653L13.3322 6.40737C13.8159 6.6739 14.4241 6.49785 14.6907 6.01413C14.9572 5.53042 14.7811 4.92223 14.2974 4.65569L6.41488 0.312247ZM16.0389 32.5056L6.89284 0.910028L4.97171 1.46614L14.1178 33.0617L16.0389 32.5056Z" fill="#706EFF"/>
</svg>
