<svg width="31" height="31" viewBox="0 0 31 31" fill="none" xmlns="http://www.w3.org/2000/svg">
<path d="M0.514817 28.6495C0.124293 29.04 0.124293 29.6732 0.514817 30.0637C0.905341 30.4542 1.53851 30.4542 1.92903 30.0637L0.514817 28.6495ZM30.4917 1.08686C30.4917 0.534576 30.044 0.0868611 29.4917 0.0868595L20.4917 0.086859C19.9394 0.08686 19.4917 0.534574 19.4917 1.08686C19.4917 1.63915 19.9394 2.08686 20.4917 2.08686L28.4917 2.08686L28.4917 10.0869C28.4917 10.6391 28.9394 11.0869 29.4917 11.0869C30.044 11.0869 30.4917 10.6391 30.4917 10.0869L30.4917 1.08686ZM1.92903 30.0637L30.1988 1.79397L28.7846 0.379753L0.514817 28.6495L1.92903 30.0637Z" fill="#706EFF"/>
</svg>
