<svg width="24" height="37" viewBox="0 0 24 37" fill="none" xmlns="http://www.w3.org/2000/svg">
<path d="M23.2633 2.16181C23.5279 1.67704 23.3494 1.06955 22.8646 0.80495C22.3798 0.540349 21.7723 0.718833 21.5077 1.20361L23.2633 2.16181ZM2.79305 36.1019C2.94873 36.6318 3.5045 36.9351 4.03439 36.7794L12.6694 34.2424C13.1993 34.0867 13.5026 33.531 13.347 33.0011C13.1913 32.4712 12.6355 32.1678 12.1056 32.3235L4.43005 34.5787L2.17491 26.9031C2.01923 26.3732 1.46346 26.0698 0.933573 26.2255C0.403685 26.3812 0.100334 26.937 0.256018 27.4669L2.79305 36.1019ZM21.5077 1.20361L2.87473 35.3409L4.63025 36.2991L23.2633 2.16181L21.5077 1.20361Z" fill="#706EFF"/>
</svg>
