<svg width="113" height="16" viewBox="0 0 113 16" fill="none" xmlns="http://www.w3.org/2000/svg">
<path d="M1.55397 6.57083C1.0017 6.56691 0.550817 7.01144 0.5469 7.56371C0.542983 8.11598 0.987512 8.56686 1.53978 8.57078L1.55397 6.57083ZM112.041 9.06157C112.434 8.67383 112.439 8.04068 112.051 7.64739L105.732 1.23846C105.345 0.845175 104.712 0.840685 104.318 1.22843C103.925 1.61617 103.92 2.24932 104.308 2.64261L109.925 8.33944L104.228 13.956C103.835 14.3438 103.83 14.9769 104.218 15.3702C104.606 15.7635 105.239 15.768 105.632 15.3802L112.041 9.06157ZM1.53978 8.57078L111.332 9.34944L111.346 7.34949L1.55397 6.57083L1.53978 8.57078Z" fill="#706EFF"/>
</svg>
