<svg width="48" height="48" viewBox="0 0 48 48" fill="none" xmlns="http://www.w3.org/2000/svg">
<g clip-path="url(#clip0_14_207)">
<path d="M24 48C37.2548 48 48 37.2548 48 24C48 10.7452 37.2548 0 24 0C10.7452 0 0 10.7452 0 24C0 37.2548 10.7452 48 24 48Z" fill="#000D2B"/>
<path d="M23.8799 8.81995L17.1029 12.7904L23.8799 16.7624L30.7844 12.7904L23.8799 8.81995ZM24.9944 30.0209V37.9634L34.1999 32.7119V24.7679L24.9944 30.0209ZM31.8989 15.2879V23.2319L24.9929 27.2039V19.2599L31.8989 15.2879ZM15.2759 23.2319L22.1819 27.2039V19.2599L15.2759 15.2879V23.2319ZM15.2759 33.9929L22.1819 37.9634V30.0209L15.2759 26.0504V33.9914V33.9929Z" fill="white"/>
</g>
<defs>
<clipPath id="clip0_14_207">
<rect width="48" height="48" fill="white"/>
</clipPath>
</defs>
</svg>
