<svg width="42" height="42" viewBox="0 0 42 42" fill="none" xmlns="http://www.w3.org/2000/svg">
<path d="M34.9908 11.704C36.5595 10.7661 37.7333 9.2894 38.293 7.54948C36.8189 8.42417 35.2061 9.0403 33.5243 9.37123C32.39 8.17135 30.8925 7.37784 29.2628 7.11304C27.633 6.84823 25.9613 7.12683 24.5055 7.90588C23.0497 8.68493 21.8905 9.92119 21.2066 11.4241C20.5228 12.927 20.3522 14.6131 20.7213 16.2225C17.7356 16.0726 14.8148 15.2965 12.1484 13.9447C9.48207 12.5928 7.1298 10.6953 5.24429 8.37548C4.2854 10.0294 3.99198 11.9863 4.42362 13.8487C4.85526 15.7112 5.9796 17.3395 7.56829 18.403C6.37603 18.3647 5.21021 18.0419 4.16804 17.4615V17.556C4.16837 19.2902 4.76852 20.9709 5.8667 22.3131C6.96488 23.6553 8.49349 24.5763 10.1933 24.92C9.0874 25.2209 7.9274 25.2652 6.80179 25.0495C7.28257 26.5411 8.21703 27.8453 9.47475 28.7802C10.7325 29.7151 12.2507 30.234 13.8175 30.2645C11.1572 32.3525 7.87187 33.4848 4.49004 33.4792C3.88979 33.4792 3.29129 33.4442 2.69629 33.376C6.13051 35.5827 10.1274 36.754 14.2095 36.75C17.0211 36.7693 19.8085 36.2297 22.4097 35.1627C25.011 34.0956 27.3743 32.5222 29.3623 30.534C31.3503 28.5458 32.9235 26.1824 33.9904 23.5811C35.0572 20.9797 35.5966 18.1923 35.577 15.3807C35.577 15.0552 35.57 14.7315 35.5543 14.4095C37.0251 13.3466 38.2945 12.0298 39.3028 10.521C37.9326 11.1283 36.4791 11.5271 34.9908 11.704Z" fill="#5ABCF8"/>
</svg>
