<svg width="41" height="83" viewBox="0 0 41 83" fill="none" xmlns="http://www.w3.org/2000/svg">
<g clip-path="url(#clip0_36_1156)">
<path d="M12.602 70.6488C16.4718 70.0031 19.9898 69.3566 23.9651 68.6457C23.5691 71.4374 21.9634 72.5028 20.4157 73.0229C15.3507 74.844 10.2036 76.6431 4.97375 77.7657C0.951687 78.651 -0.399644 76.1389 1.48458 72.0634C3.09972 68.6635 4.71486 65.2637 6.16576 61.8198C6.87952 60.1415 6.95967 58.1999 7.50919 56.4776C7.71951 55.6926 8.36382 54.9305 8.82052 54.2116C9.60703 54.8897 10.8743 55.4162 10.9103 56.2672C11.1346 57.7294 10.6906 59.3866 10.5397 60.9353C10.4115 61.7422 10.2012 62.5272 9.76914 64.4679C11.1986 63.0749 12.0893 62.3788 12.5694 61.5726C15.4024 56.2556 18.646 51.0486 20.8454 45.4683C25.9112 32.8039 29.452 19.9178 28.5702 6.12714C28.4874 5.45061 28.4514 4.59965 28.6971 4.01113C28.9428 3.42262 29.505 2.63847 30.0445 2.59607C30.5252 2.44444 31.4406 2.97015 31.6756 3.40704C32.2751 4.78291 32.9101 6.35522 32.9468 7.86071C32.9394 12.1587 33.0141 16.4788 32.4672 20.8192C30.6283 34.9092 26.5366 48.2085 19.6173 60.5633C17.6503 63.9623 15.1786 66.9457 12.602 70.6488Z" fill="black"/>
</g>
<defs>
<clipPath id="clip0_36_1156">
<rect width="80" height="21" fill="white" transform="translate(40.9902 5.43555) rotate(105)"/>
</clipPath>
</defs>
</svg>
