<svg width="50" height="50" viewBox="0 0 50 50" fill="none" xmlns="http://www.w3.org/2000/svg">
<g clip-path="url(#clip0_14_625)">
<path d="M25.1065 4.96599C21.9472 5.31263 19.1476 7.19358 16.1014 7.5398C16.0449 7.54001 15.9573 7.37281 15.7978 7.12211C16.3009 6.78522 16.732 6.36483 17.2506 6.11164C19.6076 5.09785 21.9731 4.02819 24.3611 3.18181C26.6276 2.39172 27.4864 3.05866 27.3966 5.32055C27.3082 7.387 27.1309 9.48169 26.986 11.5483C26.952 11.7718 26.829 12.0236 26.631 12.5827C25.1285 10.5779 25.9785 8.14573 25.4071 5.77458C23.9724 7.59468 22.6367 9.13521 21.4535 10.7869C17.528 16.3575 14.9319 22.2861 14.7784 28.6805C14.6171 37.1689 19.5034 43.2935 27.7171 44.9945C27.7737 44.9942 27.8542 45.0219 27.9107 45.0217C28.4744 45.215 29.6061 45.0154 29.1621 46.0781C28.7676 47.0009 27.9073 46.5294 27.2787 46.3921C17.405 44.2784 12.1279 36.4521 13.6434 26.116C14.5896 19.5233 17.7749 13.6203 22.305 8.15921C23.1772 7.06711 24.1538 6.03047 25.1065 4.96599Z" fill="#706EFF" fill-opacity="0.2"/>
</g>
<defs>
<clipPath id="clip0_14_625">
<rect width="38.3372" height="31.7671" fill="white" transform="translate(24.0542) rotate(49.2186)"/>
</clipPath>
</defs>
</svg>
