<svg width="41" height="83" viewBox="0 0 41 83" fill="none" xmlns="http://www.w3.org/2000/svg">
<g clip-path="url(#clip0_14_464)">
<path d="M12.6831 12.0385C9.65457 14.5326 6.93117 16.8515 3.8439 19.4548C2.79094 16.8391 3.64888 15.1136 4.72916 13.8893C8.205 9.77971 11.763 5.64807 15.7309 2.06095C18.7714 -0.71681 21.1978 0.783067 21.6038 5.25473C21.9049 9.00666 22.2061 12.7586 22.6715 16.4665C22.8925 18.2768 23.7939 19.9984 24.1792 21.7647C24.3895 22.5497 24.2126 23.5319 24.1766 24.3828C23.1563 24.1888 21.7956 24.3664 21.3389 23.6475C20.4135 22.4933 19.9695 20.8362 19.3259 19.4195C19.0334 18.6566 18.8231 17.8716 18.2268 15.9748C17.6854 17.896 17.2621 18.9442 17.2494 19.8824C17.4545 25.9036 17.2489 32.0348 18.1343 37.9671C20.0794 51.4677 23.456 64.3978 31.115 75.9C31.525 76.4445 31.9817 77.1634 32.0631 77.796C32.1446 78.4285 32.0498 79.3887 31.6038 79.6951C31.2633 80.0668 30.2077 80.0692 29.7857 79.8084C28.5786 78.9166 27.2426 77.8724 26.458 76.587C24.3154 72.861 22.0907 69.1571 20.3941 65.1248C14.9417 52.0031 11.8355 38.4396 11.6504 24.2805C11.6543 20.3533 12.3032 16.5338 12.6831 12.0385Z" fill="black"/>
</g>
<defs>
<clipPath id="clip0_14_464">
<rect width="80" height="21" fill="white" transform="translate(20.7051 82.709) rotate(-105)"/>
</clipPath>
</defs>
</svg>
