<svg width="50" height="50" viewBox="0 0 50 50" fill="none" xmlns="http://www.w3.org/2000/svg">
<g clip-path="url(#clip0_14_306)">
<path d="M25.1065 4.9661C21.9472 5.31274 19.1476 7.19368 16.1014 7.53991C16.0449 7.54012 15.9573 7.37291 15.7978 7.12222C16.3009 6.78532 16.732 6.36493 17.2506 6.11175C19.6076 5.09796 21.9731 4.0283 24.3611 3.18192C26.6276 2.39182 27.4864 3.05877 27.3966 5.32066C27.3082 7.3871 27.1309 9.48179 26.986 11.5484C26.952 11.7719 26.829 12.0237 26.631 12.5828C25.1285 10.578 25.9785 8.14584 25.4071 5.77469C23.9724 7.59479 22.6367 9.13532 21.4535 10.787C17.528 16.3576 14.9319 22.2862 14.7784 28.6806C14.6171 37.169 19.5034 43.2936 27.7171 44.9946C27.7737 44.9944 27.8542 45.022 27.9107 45.0218C28.4744 45.2151 29.6061 45.0155 29.1621 46.0782C28.7676 47.001 27.9073 46.5295 27.2787 46.3922C17.405 44.2785 12.1279 36.4522 13.6434 26.1161C14.5896 19.5234 17.7749 13.6204 22.305 8.15932C23.1772 7.06722 24.1538 6.03057 25.1065 4.9661Z" fill="#706EFF" fill-opacity="0.2"/>
</g>
<defs>
<clipPath id="clip0_14_306">
<rect width="38.3372" height="31.7671" fill="white" transform="translate(24.0542) rotate(49.2186)"/>
</clipPath>
</defs>
</svg>
