<svg width="81" height="59" viewBox="0 0 81 59" fill="none" xmlns="http://www.w3.org/2000/svg">
<g clip-path="url(#clip0_14_462)">
<path d="M14.2424 14.1488C13.8645 18.0539 13.5785 21.6193 13.2363 25.6432C10.6421 24.5382 10.0286 22.7114 9.92685 21.0818C9.4787 15.7181 9.07305 10.2807 9.34232 4.93851C9.52813 0.824345 12.3044 0.169238 15.7534 3.04409C18.6194 5.48415 21.4854 7.9242 24.4363 10.217C25.8727 11.3408 27.7274 11.9208 29.2488 12.8973C29.9526 13.3036 30.522 14.1232 31.0983 14.7505C30.2397 15.3347 29.4031 16.4224 28.5718 16.237C27.1013 16.0752 25.6156 15.2174 24.1587 14.6708C23.4124 14.3381 22.7086 13.9318 20.9458 13.0122C21.9214 14.7536 22.3633 15.7941 23.0177 16.4664C27.4204 20.579 31.6104 25.0598 36.4313 28.6285C47.3531 36.7995 58.8836 43.5548 72.4326 46.2724C73.1075 46.3675 73.9388 46.5529 74.4437 46.9426C74.9486 47.3322 75.5605 48.0782 75.4618 48.6103C75.4839 49.1139 74.7391 49.862 74.2563 49.9759C72.7722 50.199 71.0891 50.4053 69.6254 50.0511C65.4757 48.9315 61.2836 47.8856 57.2326 46.234C44.0987 40.8109 32.3115 33.4166 22.1686 23.5354C19.3944 20.7557 17.1525 17.596 14.2424 14.1488Z" fill="black"/>
</g>
<defs>
<clipPath id="clip0_14_462">
<rect width="80" height="21" fill="white" transform="translate(69.8857 58.4482) rotate(-150)"/>
</clipPath>
</defs>
</svg>
