<svg width="53" height="33" viewBox="0 0 53 33" fill="none" xmlns="http://www.w3.org/2000/svg">
<g clip-path="url(#clip0_14_615)">
<path d="M6.67097 6.18125C4.51477 8.70281 4.21731 11.7415 2.15054 14.179C2.10582 14.221 1.86484 14.2005 1.48101 14.1908C1.53562 13.6453 1.44738 13.1106 1.60013 12.5964C2.43468 10.3292 3.21872 8.02722 4.24954 5.8226C5.24145 3.73692 6.60781 3.44047 8.85499 4.663C10.903 5.78456 12.9092 6.98661 14.9125 8.15021C15.1146 8.28964 15.2748 8.50956 15.6906 8.94223C12.4411 9.03276 10.6236 7.15908 7.73884 6.37136C8.46401 8.36613 8.98131 10.1446 9.73379 11.8666C12.3234 17.6263 16.3368 22.5825 22.7694 25.9641C31.3424 30.4216 41.505 29.9254 49.7782 24.6994C49.8229 24.6573 49.9153 24.6117 49.96 24.5697C50.6063 24.2502 51.3014 23.3083 52.0377 24.1809C52.67 24.9452 51.5028 25.3426 50.8623 25.739C40.8464 31.9859 28.6288 31.9024 19.2383 25.4958C13.2325 21.4247 9.71384 16.0444 7.71718 9.89193C7.29102 8.68666 7.0048 7.43216 6.67097 6.18125Z" fill="#706EFF" fill-opacity="0.2"/>
</g>
<defs>
<clipPath id="clip0_14_615">
<rect width="49.8049" height="28.5344" fill="white" transform="translate(0.743652 4.42432) rotate(-4.3154)"/>
</clipPath>
</defs>
</svg>
