<svg width="16" height="18" viewBox="0 0 16 18" fill="none" xmlns="http://www.w3.org/2000/svg">
<g clip-path="url(#clip0_14_272)">
<path d="M6.68197 0.461119C7.24114 0.709759 7.20159 1.22615 7.2482 1.66681C7.62687 4.61731 7.96658 7.59029 8.31753 10.5828C8.422 11.4836 8.51521 12.3649 8.61967 13.2657C8.63173 13.4666 8.694 13.6644 8.77957 14.0826C8.99226 13.5961 9.13606 13.3053 9.26038 13.0257C9.85949 11.5888 10.4279 10.1437 11.0382 8.72624C11.1625 8.44665 11.3258 8.14457 11.5536 7.90916C11.7813 7.67376 12.1756 7.86175 12.1547 8.18552C12.1616 8.46731 12.068 8.75513 11.9826 9.01223C11.0811 11.455 10.1795 13.8978 9.26668 16.3211C9.17832 16.5279 9.07046 16.7461 8.92887 16.9057C8.63443 17.2056 8.1795 17.1825 8.03548 16.7981C7.52167 15.4582 6.40693 14.5173 5.64286 13.3739C5.16824 12.6868 4.64641 12.0529 4.1523 11.377C4.00909 11.174 3.8239 10.9432 3.78112 10.7341C3.73833 10.525 3.83192 10.2372 3.98476 10.097C4.07916 9.99055 4.3947 10.0422 4.57085 10.1223C4.74699 10.2024 4.87072 10.4167 5.00269 10.6003C5.67375 11.5377 6.34482 12.475 7.03536 13.4011C7.15608 13.5652 7.27679 13.7293 7.5841 13.8117C7.563 13.4602 7.55315 13.1282 7.51257 12.7879C7.15015 9.10071 6.7795 5.44423 6.43957 1.79598C6.39297 1.35531 6.23167 0.850981 6.68197 0.461119Z" fill="black"/>
</g>
<defs>
<clipPath id="clip0_14_272">
<rect width="8.63854" height="15.3874" fill="white" transform="translate(15.1748 13.3259) rotate(150)"/>
</clipPath>
</defs>
</svg>
