<svg width="49" height="38" viewBox="0 0 49 38" fill="none" xmlns="http://www.w3.org/2000/svg">
<g clip-path="url(#clip0_14_621)">
<path d="M43.2819 29.9631C45.035 27.0728 45.0671 23.6667 46.746 20.8734C46.7831 20.8249 47.0026 20.8397 47.3505 20.8377C47.3436 21.4492 47.4651 22.0439 47.3671 22.6237C46.7892 25.1854 46.2597 27.7844 45.4995 30.2829C44.7652 32.6471 43.5527 33.0241 41.4253 31.733C39.4858 30.5481 37.5779 29.2718 35.6756 28.0384C35.482 27.8893 35.3199 27.6489 34.9102 27.1792C37.8416 26.9693 39.6313 29.0025 42.3014 29.7864C41.49 27.5812 40.8836 25.6109 40.0688 23.7115C37.278 17.361 33.2622 11.9562 27.1815 8.39219C19.0815 3.69735 9.93027 4.59203 2.8564 10.7096C2.81924 10.7581 2.7393 10.8122 2.70215 10.8607C2.1426 11.2393 1.58746 12.3152 0.853623 11.3648C0.222216 10.5317 1.2467 10.0484 1.795 9.584C10.3651 2.26711 21.4199 1.95148 30.4112 8.79734C36.1596 13.1463 39.7611 19.0416 42.0464 25.851C42.5258 27.1837 42.8824 28.5762 43.2819 29.9631Z" fill="#706EFF" fill-opacity="0.2"/>
</g>
<defs>
<clipPath id="clip0_14_621">
<rect width="45" height="32" fill="white" transform="translate(48.7786 31.7283) rotate(172.53)"/>
</clipPath>
</defs>
</svg>
