<svg width="50" height="54" viewBox="0 0 50 54" fill="none" xmlns="http://www.w3.org/2000/svg">
<g clip-path="url(#clip0_36_776)">
<path d="M44.9721 18.4688C43.6211 15.4187 40.8708 13.4129 39.5563 10.4773C39.5381 10.4201 39.6751 10.2572 39.8716 9.98442C40.3647 10.3454 40.9172 10.5963 41.3327 11.0101C43.0859 12.9512 44.8969 14.8762 46.4947 16.9229C47.9982 18.8712 47.6143 20.0374 45.3535 20.948C43.2861 21.7735 41.1624 22.5213 39.0767 23.2896C38.8453 23.3541 38.5576 23.3408 37.9426 23.3877C39.4411 20.9763 42.1127 20.7611 44.2701 19.1317C42.0158 18.4829 40.069 17.8107 38.0613 17.3424C31.3104 15.8287 24.6307 15.8216 18.2716 18.4977C9.84342 22.0932 5.35996 29.7601 6.30453 38.8422C6.32278 38.8994 6.32123 38.9933 6.33949 39.0505C6.32866 39.7077 6.88707 40.767 5.69666 40.7873C4.65999 40.7959 4.85054 39.7148 4.78526 39.0165C3.71785 28.0684 9.75584 19.2516 20.4398 16.2111C27.2479 14.251 34.0903 14.8669 40.9263 17.0421C42.2825 17.4429 43.6174 17.9741 44.9721 18.4688Z" fill="#706EFF" fill-opacity="0.2"/>
</g>
<defs>
<clipPath id="clip0_36_776">
<rect width="43.4657" height="32" fill="white" transform="translate(49.5369 15.2026) rotate(118.365)"/>
</clipPath>
</defs>
</svg>
