<svg width="103" height="116" viewBox="0 0 103 116" fill="none" xmlns="http://www.w3.org/2000/svg">
<g clip-path="url(#clip0_14_287)">
<path d="M74.1824 94.8377C76.8805 93.5109 79.6286 92.2707 82.4999 90.8439C83.4767 92.9358 82.6544 94.9116 80.8858 96.0482C77.002 98.5214 73.0817 101.131 68.748 102.825C64.0179 104.632 61.7519 102.707 61.7169 97.6468C61.6722 93.1693 61.8506 88.6784 62.0291 84.1875C62.0353 82.7983 61.8915 81.1492 64.1102 80.7921C66.1664 82.9535 65.3977 85.8222 65.7317 88.4006C66.0291 91.1157 66.0533 93.7576 66.2676 97.3288C67.6863 95.586 68.6987 94.5396 69.4379 93.42C76.7204 82.6337 80.5513 71.0689 79.3144 57.9265C78.7295 51.9134 77.0053 46.3271 73.4357 41.3443C68.0697 34.0501 61.7958 31.7834 53.2613 34.4013C49.657 35.5585 46.3661 37.4585 42.7886 39.0621C43.5788 41.0307 44.1056 42.3432 44.5458 43.7056C46.9066 50.1946 45.1327 55.7221 40.4901 60.4809C38.6751 62.3371 36.4368 63.8603 33.5913 62.7319C30.8825 61.64 29.9289 59.1884 29.6815 56.5599C29.2172 52.5556 30.5653 48.8905 32.4231 45.5085C33.6784 43.2826 35.2569 41.2166 36.7353 38.9774C35.7317 36.4391 33.3827 35.3705 31.1569 34.1152C25.6356 30.9521 19.6054 30.5076 13.4557 31.0559C9.26481 31.3971 4.95071 31.9248 0.500001 32.416C2.07487 29.5437 3.1141 28.9437 13.5181 28.3641C18.0688 28.0461 22.9562 28.1112 27.2908 29.4191C31.7987 30.6269 35.8674 33.4741 41.0386 36.031C42.7707 35.031 45.2688 33.3578 47.9668 32.031C60.1716 26.3702 71.1632 29.6082 78.2962 40.963C83.0426 48.384 84.6177 56.7122 84.1974 65.3842C83.7539 74.416 81.0247 82.6889 76.1965 90.3262C75.3341 91.6324 74.4717 92.9386 73.6592 94.3315C73.8458 94.4547 73.9458 94.6279 74.1824 94.8377ZM39.7049 42.9209C33.8633 48.603 32.2296 54.9733 35.509 58.8534C41.9176 55.1534 43.6379 48.7331 39.7049 42.9209Z" fill="white"/>
</g>
<defs>
<clipPath id="clip0_14_287">
<rect width="63.1" height="96.5" fill="white" transform="translate(0 31.55) rotate(-30)"/>
</clipPath>
</defs>
</svg>
