<svg width="80" height="57" viewBox="0 0 80 57" fill="none" xmlns="http://www.w3.org/2000/svg">
<g clip-path="url(#clip0_14_572)">
<path d="M73.3727 23.885C73.2735 21.557 73.2513 19.2205 73.1353 16.7384C74.924 16.6984 76.069 17.8982 76.3233 19.5076C76.8658 23.0345 77.4937 26.6299 77.3427 30.2327C77.1486 34.1522 75.0759 35.1589 71.4752 33.6045C68.285 32.2389 65.1549 30.7108 62.0249 29.1827C61.0413 28.7447 59.8267 28.3321 60.2657 26.6467C62.4407 25.8626 64.2358 27.3032 66.1691 27.8709C68.1879 28.5073 70.0695 29.3146 72.6698 30.2771C71.8762 28.7268 71.4499 27.682 70.8864 26.8082C65.5075 18.276 58.4991 11.9494 48.7903 8.72537C44.3421 7.26375 39.8412 6.74347 35.1926 7.72067C28.3436 9.25085 24.7777 12.994 23.9714 19.8652C23.6674 22.7831 23.9883 25.7106 24.0093 28.7488C25.6525 28.8026 26.7479 28.8385 27.8517 28.9514C33.1916 29.3018 36.5591 32.2852 38.4861 37.0637C39.2364 38.9305 39.6184 40.9937 37.9299 42.66C36.31 44.2408 34.2733 44.1522 32.3315 43.5074C29.346 42.5871 27.1668 40.4871 25.3475 38.1137C24.1602 36.5286 23.1872 34.7641 22.0602 33.0165C19.9464 32.9363 18.4552 34.2691 16.8701 35.4563C12.9032 38.3859 10.706 42.5248 9.17581 47.0584C8.10993 50.1378 7.13798 53.3629 6.09743 56.6734C4.5514 54.6598 4.4501 53.7354 7.28575 46.1741C8.48037 42.8467 10.0517 39.4 12.3323 36.7333C14.5959 33.9124 17.8854 31.9147 21.313 29.0443C21.1442 27.5035 20.7368 25.2093 20.6376 22.8813C20.4308 12.4569 26.158 5.67017 36.4389 4.15372C43.1845 3.10265 49.5839 4.58433 55.6044 7.58883C61.873 10.7221 66.8899 15.2399 70.8009 21.0483C71.4583 22.0678 72.1158 23.0872 72.8503 24.0982C72.9959 24.0043 73.15 23.9874 73.3727 23.885ZM25.7844 32.1406C27.9921 38.0577 32.0012 41.2047 35.7771 40.0892C35.1524 34.3884 31.1348 31.1644 25.7844 32.1406Z" fill="#CDD2FF"/>
</g>
<defs>
<clipPath id="clip0_14_572">
<rect width="48.9019" height="74.7866" fill="white" transform="translate(5.32703 56.7578) rotate(-96.2538)"/>
</clipPath>
</defs>
</svg>
