<svg width="53" height="33" viewBox="0 0 53 33" fill="none" xmlns="http://www.w3.org/2000/svg">
<g clip-path="url(#clip0_14_296)">
<path d="M6.67097 6.18137C4.51477 8.70293 4.21731 11.7416 2.15054 14.1791C2.10582 14.2211 1.86484 14.2006 1.48101 14.1909C1.53562 13.6454 1.44738 13.1107 1.60013 12.5965C2.43468 10.3293 3.21872 8.02734 4.24954 5.82272C5.24145 3.73705 6.60781 3.44059 8.85499 4.66313C10.903 5.78468 12.9092 6.98673 14.9125 8.15033C15.1146 8.28976 15.2748 8.50968 15.6906 8.94235C12.4411 9.03288 10.6236 7.1592 7.73884 6.37148C8.46401 8.36625 8.98131 10.1447 9.73379 11.8667C12.3234 17.6264 16.3368 22.5827 22.7694 25.9642C31.3424 30.4217 41.505 29.9255 49.7782 24.6995C49.8229 24.6575 49.9153 24.6118 49.96 24.5698C50.6063 24.2503 51.3014 23.3085 52.0377 24.181C52.67 24.9453 51.5028 25.3428 50.8623 25.7391C40.8464 31.986 28.6288 31.9026 19.2383 25.4959C13.2325 21.4248 9.71384 16.0445 7.71718 9.89205C7.29102 8.68678 7.0048 7.43228 6.67097 6.18137Z" fill="#706EFF" fill-opacity="0.2"/>
</g>
<defs>
<clipPath id="clip0_14_296">
<rect width="49.8049" height="28.5344" fill="white" transform="translate(0.743652 4.42432) rotate(-4.3154)"/>
</clipPath>
</defs>
</svg>
