<svg width="40" height="50" viewBox="0 0 40 50" fill="none" xmlns="http://www.w3.org/2000/svg">
<g clip-path="url(#clip0_14_298)">
<path d="M3.47027 38.4426C5.47488 41.0011 8.53287 42.1971 10.4755 44.6558C10.5065 44.7057 10.4181 44.8969 10.3009 45.2087C9.75226 44.993 9.17491 44.8978 8.686 44.6114C6.57545 43.2166 4.41477 41.8524 2.42364 40.3162C0.544601 38.8493 0.619559 37.6357 2.51053 36.1757C4.24152 34.8474 6.04405 33.5786 7.80602 32.3001C8.00655 32.178 8.27862 32.1155 8.8419 31.9101C8.02843 34.6036 5.58435 35.5071 3.96486 37.6264C6.22923 37.6566 8.21195 37.7895 10.202 37.7118C16.8785 37.3925 23.1219 35.6536 28.4129 31.4372C35.4135 25.8024 37.7373 17.312 34.6447 8.88921C34.6137 8.83936 34.5923 8.74934 34.5613 8.69949C34.4115 8.06932 33.632 7.20412 34.7394 6.87362C35.706 6.59447 35.791 7.67628 36.0219 8.32579C39.6834 18.4977 36.1868 28.492 26.9433 34.1865C21.0586 37.8368 14.515 39.0371 7.59795 38.7471C6.23313 38.719 4.85649 38.5607 3.47027 38.4426Z" fill="#706EFF" fill-opacity="0.2"/>
</g>
<defs>
<clipPath id="clip0_14_298">
<rect width="43.0807" height="30.8519" fill="white" transform="translate(0 42.7532) rotate(-76.5931)"/>
</clipPath>
</defs>
</svg>
