<svg width="40" height="50" viewBox="0 0 40 50" fill="none" xmlns="http://www.w3.org/2000/svg">
<g clip-path="url(#clip0_14_617)">
<path d="M3.47015 38.4426C5.47476 41.001 8.53275 42.197 10.4754 44.6558C10.5064 44.7056 10.4179 44.8969 10.3008 45.2086C9.75214 44.9929 9.17479 44.8978 8.68587 44.6114C6.57533 43.2166 4.41465 41.8524 2.42352 40.3162C0.544479 38.8492 0.619437 37.6357 2.51041 36.1757C4.2414 34.8473 6.04393 33.5785 7.8059 32.3C8.00643 32.178 8.27849 32.1155 8.84178 31.91C8.02831 34.6035 5.58423 35.5071 3.96473 37.6263C6.2291 37.6565 8.21183 37.7894 10.2019 37.7118C16.8784 37.3924 23.1218 35.6535 28.4128 31.4371C35.4134 25.8024 37.7372 17.3119 34.6446 8.88918C34.6136 8.83933 34.5922 8.74931 34.5612 8.69946C34.4114 8.06929 33.6318 7.20409 34.7393 6.87358C35.7059 6.59444 35.7909 7.67625 36.0218 8.32576C39.6833 18.4976 36.1867 28.4919 26.9431 34.1865C21.0585 37.8368 14.5148 39.0371 7.59783 38.7471C6.23301 38.719 4.85637 38.5607 3.47015 38.4426Z" fill="#706EFF" fill-opacity="0.2"/>
</g>
<defs>
<clipPath id="clip0_14_617">
<rect width="43.0807" height="30.8519" fill="white" transform="translate(0 42.7532) rotate(-76.5931)"/>
</clipPath>
</defs>
</svg>
