<svg width="50" height="54" viewBox="0 0 50 54" fill="none" xmlns="http://www.w3.org/2000/svg">
<g clip-path="url(#clip0_14_304)">
<path d="M44.9719 18.4688C43.6209 15.4187 40.8707 13.4129 39.5562 10.4773C39.5379 10.4201 39.675 10.2572 39.8714 9.98442C40.3645 10.3454 40.9171 10.5963 41.3325 11.0101C43.0857 12.9512 44.8967 14.8762 46.4946 16.9229C47.9981 18.8712 47.6142 20.0374 45.3534 20.948C43.2859 21.7735 41.1622 22.5213 39.0765 23.2896C38.8451 23.3541 38.5574 23.3408 37.9424 23.3877C39.4409 20.9763 42.1125 20.7611 44.27 19.1317C42.0157 18.4829 40.0689 17.8107 38.0611 17.3424C31.3103 15.8287 24.6306 15.8216 18.2714 18.4977C9.84327 22.0932 5.3598 29.7601 6.30437 38.8422C6.32263 38.8994 6.32108 38.9933 6.33933 39.0505C6.32851 39.7077 6.88692 40.767 5.6965 40.7873C4.65984 40.7959 4.85039 39.7148 4.78511 39.0165C3.7177 28.0684 9.75569 19.2516 20.4397 16.2111C27.2477 14.251 34.0902 14.8669 40.9261 17.0421C42.2823 17.4429 43.6172 17.9741 44.9719 18.4688Z" fill="#706EFF" fill-opacity="0.2"/>
</g>
<defs>
<clipPath id="clip0_14_304">
<rect width="43.4657" height="32" fill="white" transform="translate(49.5369 15.2026) rotate(118.365)"/>
</clipPath>
</defs>
</svg>
