<svg width="41" height="43" viewBox="0 0 41 43" fill="none" xmlns="http://www.w3.org/2000/svg">
<g clip-path="url(#clip0_14_300)">
<path d="M15.2328 38.1211C18.0191 38.3262 20.8445 37.202 23.5339 37.3897C23.5824 37.3984 23.6195 37.5508 23.6995 37.7837C23.192 37.9847 22.7274 38.2663 22.2255 38.3956C19.9757 38.8692 17.706 39.3879 15.4676 39.7178C13.346 40.0199 12.761 39.3326 13.3502 37.4698C13.8938 35.769 14.5202 34.0586 15.1123 32.3664C15.192 32.1863 15.3545 31.9966 15.6508 31.5635C16.4847 33.4612 15.2054 35.3468 15.1582 37.4033C16.8 36.1168 18.2937 35.0469 19.6818 33.8609C24.3078 29.8509 27.8755 25.3364 29.455 20.0546C31.5154 13.0366 28.7142 7.19277 22.0593 4.50063C22.0108 4.49199 21.9481 4.45651 21.8996 4.44787C21.4603 4.19953 20.445 4.18866 21.0662 3.3762C21.6133 2.67201 22.2439 3.19737 22.7516 3.40932C30.7358 6.70276 33.4866 14.0195 29.8471 22.3595C27.5433 27.6823 23.4764 32.0835 18.357 35.9084C17.3622 36.6786 16.2903 37.3865 15.2328 38.1211Z" fill="#706EFF" fill-opacity="0.2"/>
</g>
<defs>
<clipPath id="clip0_14_300">
<rect width="31.7052" height="28.6743" fill="white" transform="translate(15.01 42.4058) rotate(-118.009)"/>
</clipPath>
</defs>
</svg>
