<svg width="113" height="113" viewBox="0 0 113 113" fill="none" xmlns="http://www.w3.org/2000/svg">
<g clip-path="url(#clip0_14_285)">
<path d="M24.8196 26.3043C22.5568 28.2842 20.2234 30.1934 17.8192 32.3147C16.3343 30.5469 16.6171 28.4256 18.0314 26.87C21.1426 23.4759 24.2539 19.9403 28.0016 17.1826C32.1028 14.2128 34.7898 15.4856 36.1333 20.3646C37.3354 24.6779 38.3253 29.062 39.3153 33.4461C39.6688 34.7896 40.2345 36.3452 38.1839 37.2644C35.6383 35.7088 35.6383 32.739 34.6484 30.3348C33.6584 27.7892 32.9513 25.2436 31.8199 21.8495C30.9007 23.9001 30.1936 25.1729 29.7693 26.4457C25.5267 38.7494 24.8196 50.9116 29.4158 63.286C31.5371 68.9428 34.6484 73.8926 39.386 77.7817C46.457 83.4385 53.1039 84.0042 60.6699 79.2666C63.8519 77.216 66.5389 74.529 69.5794 72.0541C68.3066 70.357 67.4581 69.2257 66.6803 68.0236C62.7205 62.3667 63.0033 56.5685 66.256 50.7702C67.5288 48.5074 69.2966 46.4568 72.3372 46.8104C75.2363 47.1639 76.7919 49.2853 77.7112 51.7601C79.1961 55.5078 78.8425 59.3969 77.9233 63.1446C77.2869 65.6194 76.297 68.0236 75.4484 70.5692C77.0748 72.7612 79.6204 73.1855 82.0952 73.8219C88.2471 75.4482 94.1868 74.3168 99.985 72.1955C103.945 70.7813 107.975 69.155 112.147 67.5286C111.369 70.7106 110.521 71.5591 100.621 74.8118C96.3081 76.2967 91.5705 77.4988 87.045 77.3574C82.3781 77.3574 77.7112 75.6603 72.0543 74.529C70.6401 75.9432 68.6602 78.2059 66.3975 80.1858C56.0737 88.8125 44.6186 88.5297 34.7898 79.408C28.2844 73.4683 24.6075 65.8316 22.769 57.3463C20.8598 48.5074 21.3548 39.81 24.0418 31.1833C24.5367 29.6984 25.0317 28.2135 25.456 26.6578C25.2439 26.5871 25.1024 26.4457 24.8196 26.3043ZM71.5593 67.5286C75.7313 60.5283 75.6606 53.9522 71.4886 51.053C66.256 56.2856 66.256 62.9324 71.5593 67.5286Z" fill="white"/>
</g>
<defs>
<clipPath id="clip0_14_285">
<rect width="63.1" height="96.5" fill="white" transform="translate(112.854 68.2358) rotate(135)"/>
</clipPath>
</defs>
</svg>
