<svg width="50" height="54" viewBox="0 0 50 54" fill="none" xmlns="http://www.w3.org/2000/svg">
<g clip-path="url(#clip0_211_78)">
<path d="M44.9721 18.4686C43.6211 15.4186 40.8708 13.4128 39.5563 10.4771C39.5381 10.4199 39.6751 10.2571 39.8716 9.9843C40.3647 10.3453 40.9172 10.5962 41.3327 11.01C43.0859 12.9511 44.8969 14.876 46.4947 16.9227C47.9982 18.8711 47.6143 20.0373 45.3535 20.9479C43.2861 21.7734 41.1624 22.5212 39.0767 23.2895C38.8453 23.354 38.5576 23.3407 37.9426 23.3875C39.4411 20.9761 42.1127 20.761 44.2701 19.1316C42.0158 18.4828 40.069 17.8106 38.0613 17.3422C31.3104 15.8286 24.6307 15.8215 18.2716 18.4976C9.84342 22.093 5.35996 29.76 6.30453 38.8421C6.32278 38.8993 6.32123 38.9932 6.33949 39.0504C6.32866 39.7076 6.88707 40.7669 5.69666 40.7872C4.65999 40.7958 4.85054 39.7147 4.78526 39.0164C3.71785 28.0683 9.75584 19.2515 20.4398 16.211C27.2479 14.2509 34.0903 14.8668 40.9263 17.042C42.2825 17.4427 43.6174 17.974 44.9721 18.4686Z" fill="#706EFF" fill-opacity="0.2"/>
</g>
<defs>
<clipPath id="clip0_211_78">
<rect width="43.4657" height="32" fill="white" transform="translate(49.5369 15.2026) rotate(118.365)"/>
</clipPath>
</defs>
</svg>
