<svg width="41" height="43" viewBox="0 0 41 43" fill="none" xmlns="http://www.w3.org/2000/svg">
<g clip-path="url(#clip0_14_619)">
<path d="M15.2326 38.1212C18.019 38.3262 20.8444 37.202 23.5338 37.3898C23.5822 37.3984 23.6194 37.5508 23.6994 37.7837C23.1919 37.9848 22.7272 38.2664 22.2254 38.3956C19.9756 38.8692 17.7059 39.3879 15.4675 39.7178C13.3459 40.02 12.7609 39.3327 13.3501 37.4699C13.8937 35.769 14.52 34.0586 15.1122 32.3664C15.1919 32.1863 15.3544 31.9966 15.6507 31.5635C16.4846 33.4613 15.2053 35.3468 15.158 37.4034C16.7999 36.1169 18.2936 35.0469 19.6817 33.8609C24.3077 29.8509 27.8754 25.3364 29.4549 20.0547C31.5153 13.0366 28.7141 7.1928 22.0592 4.50066C22.0107 4.49202 21.948 4.45654 21.8995 4.4479C21.4601 4.19956 20.4449 4.18869 21.0661 3.37623C21.6132 2.67204 22.2438 3.1974 22.7515 3.40935C30.7357 6.70279 33.4865 14.0195 29.847 22.3596C27.5431 27.6823 23.4763 32.0835 18.3568 35.9085C17.362 36.6786 16.2902 37.3865 15.2326 38.1212Z" fill="#706EFF" fill-opacity="0.2"/>
</g>
<defs>
<clipPath id="clip0_14_619">
<rect width="31.7052" height="28.6743" fill="white" transform="translate(15.01 42.4058) rotate(-118.009)"/>
</clipPath>
</defs>
</svg>
