<svg width="84" height="40" viewBox="0 0 84 40" fill="none" xmlns="http://www.w3.org/2000/svg">
<g clip-path="url(#clip0_14_458)">
<path d="M71.6356 26.9015C70.8958 23.0485 70.1637 19.5474 69.3561 15.5906C72.1567 15.9184 73.2609 17.4977 73.8186 19.0322C75.7626 24.0513 77.6867 29.153 78.9364 34.354C79.9195 38.3533 77.4411 39.7654 73.3208 37.9811C69.8826 36.4493 66.4444 34.9175 62.9662 33.551C61.271 32.8784 59.328 32.8456 57.5928 32.3382C56.803 32.1471 56.0253 31.5215 55.2955 31.0825C55.9542 30.2797 56.4497 29 57.2995 28.9432C58.7559 28.6833 60.4234 29.0868 61.9753 29.2C62.7851 29.3085 63.575 29.4996 65.5257 29.8842C64.0982 28.489 63.3806 27.6156 62.563 27.1553C57.1785 24.4528 51.894 21.337 46.2617 19.2743C33.4776 14.5188 20.509 11.2931 6.74394 12.5108C6.06962 12.6101 5.21979 12.6668 4.62546 12.4355C4.03114 12.2043 3.23352 11.6613 3.17797 11.1231C3.01467 10.6462 3.51791 9.71826 3.94894 9.47267C5.30979 8.83975 6.86615 8.16668 8.37031 8.09329C12.6672 7.99592 16.9842 7.81592 21.3367 8.25683C35.4672 9.75178 48.8624 13.518 61.3821 20.1341C64.8281 22.0176 67.8708 24.4159 71.6356 26.9015Z" fill="black"/>
</g>
<defs>
<clipPath id="clip0_14_458">
<rect width="80" height="21" fill="white" transform="translate(5.75 0.111328) rotate(13.6032)"/>
</clipPath>
</defs>
</svg>
