<svg width="113" height="113" viewBox="0 0 113 113" fill="none" xmlns="http://www.w3.org/2000/svg">
<g clip-path="url(#clip0_36_791)">
<path d="M24.8197 26.3043C22.557 28.2842 20.2235 30.1934 17.8193 32.3147C16.3344 30.5469 16.6173 28.4256 18.0315 26.87C21.1427 23.4759 24.254 19.9403 28.0017 17.1826C32.1029 14.2128 34.7899 15.4856 36.1334 20.3646C37.3355 24.6779 38.3254 29.062 39.3154 33.4461C39.6689 34.7896 40.2346 36.3452 38.184 37.2644C35.6384 35.7088 35.6384 32.739 34.6485 30.3348C33.6585 27.7892 32.9514 25.2436 31.8201 21.8495C30.9008 23.9001 30.1937 25.1729 29.7694 26.4457C25.5268 38.7494 24.8197 50.9116 29.4159 63.286C31.5372 68.9428 34.6485 73.8926 39.3861 77.7817C46.4572 83.4385 53.104 84.0042 60.67 79.2666C63.852 77.216 66.539 74.529 69.5796 72.0541C68.3068 70.357 67.4582 69.2257 66.6804 68.0236C62.7206 62.3667 63.0035 56.5685 66.2562 50.7702C67.529 48.5074 69.2967 46.4568 72.3373 46.8104C75.2364 47.1639 76.792 49.2853 77.7113 51.7601C79.1962 55.5078 78.8427 59.3969 77.9234 63.1446C77.287 65.6194 76.2971 68.0236 75.4485 70.5692C77.0749 72.7612 79.6205 73.1855 82.0954 73.8219C88.2472 75.4482 94.1869 74.3168 99.9852 72.1955C103.945 70.7813 107.975 69.155 112.147 67.5286C111.37 70.7106 110.521 71.5591 100.622 74.8118C96.3082 76.2967 91.5706 77.4988 87.0451 77.3574C82.3782 77.3574 77.7113 75.6603 72.0544 74.529C70.6402 75.9432 68.6603 78.2059 66.3976 80.1858C56.0738 88.8125 44.6187 88.5297 34.7899 79.408C28.2845 73.4683 24.6076 65.8316 22.7691 57.3463C20.8599 48.5074 21.3549 39.81 24.0419 31.1833C24.5369 29.6984 25.0318 28.2135 25.4561 26.6578C25.244 26.5871 25.1025 26.4457 24.8197 26.3043ZM71.5595 67.5286C75.7314 60.5283 75.6607 53.9522 71.4887 51.053C66.2562 56.2856 66.2562 62.9324 71.5595 67.5286Z" fill="white"/>
</g>
<defs>
<clipPath id="clip0_36_791">
<rect width="63.1" height="96.5" fill="white" transform="translate(112.854 68.2358) rotate(135)"/>
</clipPath>
</defs>
</svg>
