<svg width="53" height="33" viewBox="0 0 53 33" fill="none" xmlns="http://www.w3.org/2000/svg">
<g clip-path="url(#clip0_36_768)">
<path d="M6.67092 6.18137C4.51472 8.70293 4.21726 11.7416 2.15049 14.1791C2.10578 14.2211 1.8648 14.2006 1.48097 14.1909C1.53558 13.6454 1.44734 13.1107 1.60008 12.5965C2.43464 10.3293 3.21867 8.02734 4.24949 5.82272C5.2414 3.73705 6.60776 3.44059 8.85495 4.66313C10.903 5.78468 12.9092 6.98673 14.9125 8.15033C15.1145 8.28976 15.2748 8.50968 15.6905 8.94235C12.441 9.03288 10.6236 7.1592 7.73879 6.37148C8.46397 8.36625 8.98127 10.1447 9.73375 11.8667C12.3233 17.6264 16.3367 22.5827 22.7694 25.9642C31.3424 30.4217 41.5049 29.9255 49.7782 24.6995C49.8229 24.6575 49.9152 24.6118 49.9599 24.5698C50.6062 24.2503 51.3014 23.3085 52.0376 24.181C52.67 24.9453 51.5028 25.3428 50.8623 25.7391C40.8463 31.986 28.6288 31.9026 19.2383 25.4959C13.2325 21.4248 9.7138 16.0445 7.71713 9.89205C7.29097 8.68678 7.00476 7.43228 6.67092 6.18137Z" fill="#706EFF" fill-opacity="0.2"/>
</g>
<defs>
<clipPath id="clip0_36_768">
<rect width="49.8049" height="28.5344" fill="white" transform="translate(0.743652 4.42432) rotate(-4.3154)"/>
</clipPath>
</defs>
</svg>
