<svg width="50" height="54" viewBox="0 0 50 54" fill="none" xmlns="http://www.w3.org/2000/svg">
<g clip-path="url(#clip0_14_623)">
<path d="M44.972 18.4687C43.621 15.4186 40.8708 13.4128 39.5563 10.4772C39.5381 10.4199 39.6751 10.2571 39.8715 9.98432C40.3647 10.3453 40.9172 10.5962 41.3327 11.01C43.0858 12.9511 44.8968 14.8761 46.4947 16.9228C47.9982 18.8711 47.6143 20.0373 45.3535 20.9479C43.2861 21.7734 41.1623 22.5212 39.0766 23.2895C38.8452 23.354 38.5575 23.3407 37.9425 23.3876C39.441 20.9762 42.1127 20.761 44.2701 19.1316C42.0158 18.4828 40.069 17.8106 38.0613 17.3423C31.3104 15.8286 24.6307 15.8215 18.2715 18.4976C9.84339 22.093 5.35992 29.76 6.30449 38.8421C6.32275 38.8993 6.3212 38.9932 6.33946 39.0504C6.32863 39.7076 6.88704 40.7669 5.69663 40.7872C4.65996 40.7958 4.85051 39.7147 4.78523 39.0164C3.71782 28.0683 9.75581 19.2515 20.4398 16.211C27.2479 14.2509 34.0903 14.8668 40.9262 17.042C42.2825 17.4428 43.6174 17.974 44.972 18.4687Z" fill="#706EFF" fill-opacity="0.2"/>
</g>
<defs>
<clipPath id="clip0_14_623">
<rect width="43.4657" height="32" fill="white" transform="translate(49.5369 15.2026) rotate(118.365)"/>
</clipPath>
</defs>
</svg>
