<svg width="49" height="38" viewBox="0 0 49 38" fill="none" xmlns="http://www.w3.org/2000/svg">
<g clip-path="url(#clip0_14_302)">
<path d="M43.2819 29.9631C45.035 27.0728 45.0671 23.6668 46.746 20.8734C46.7831 20.825 47.0026 20.8398 47.3505 20.8378C47.3436 21.4493 47.4651 22.0439 47.3671 22.6238C46.7892 25.1855 46.2597 27.7845 45.4995 30.2829C44.7652 32.6471 43.5527 33.0242 41.4253 31.7331C39.4858 30.5481 37.5779 29.2718 35.6756 28.0384C35.482 27.8894 35.3199 27.6489 34.9102 27.1793C37.8416 26.9694 39.6313 29.0026 42.3014 29.7864C41.49 27.5813 40.8836 25.611 40.0688 23.7116C37.278 17.3611 33.2622 11.9562 27.1815 8.39225C19.0815 3.69741 9.93027 4.5921 2.8564 10.7097C2.81924 10.7582 2.7393 10.8123 2.70215 10.8607C2.1426 11.2394 1.58746 12.3153 0.853623 11.3648C0.222216 10.5317 1.2467 10.0485 1.795 9.58406C10.3651 2.26717 21.4199 1.95154 30.4112 8.7974C36.1596 13.1464 39.7611 19.0417 42.0464 25.851C42.5258 27.1838 42.8824 28.5763 43.2819 29.9631Z" fill="#706EFF" fill-opacity="0.2"/>
</g>
<defs>
<clipPath id="clip0_14_302">
<rect width="45" height="32" fill="white" transform="translate(48.7786 31.7283) rotate(172.53)"/>
</clipPath>
</defs>
</svg>
