<svg width="40" height="50" viewBox="0 0 40 50" fill="none" xmlns="http://www.w3.org/2000/svg">
<g clip-path="url(#clip0_36_770)">
<path d="M3.47016 38.4426C5.47478 41.0011 8.53276 42.1971 10.4754 44.6558C10.5064 44.7057 10.418 44.8969 10.3008 45.2087C9.75216 44.993 9.1748 44.8978 8.68589 44.6114C6.57534 43.2166 4.41466 41.8524 2.42353 40.3162C0.544495 38.8493 0.619452 37.6357 2.51042 36.1757C4.24141 34.8474 6.04394 33.5786 7.80591 32.3001C8.00644 32.178 8.27851 32.1155 8.84179 31.9101C8.02833 34.6036 5.58424 35.5071 3.96475 37.6264C6.22912 37.6566 8.21185 37.7895 10.2019 37.7118C16.8784 37.3925 23.1218 35.6536 28.4128 31.4372C35.4134 25.8024 37.7372 17.312 34.6446 8.88921C34.6136 8.83936 34.5922 8.74934 34.5612 8.69949C34.4114 8.06932 33.6319 7.20412 34.7393 6.87362C35.7059 6.59447 35.7909 7.67628 36.0218 8.32579C39.6833 18.4977 36.1867 28.492 26.9432 34.1865C21.0585 37.8368 14.5149 39.0371 7.59784 38.7471C6.23302 38.719 4.85638 38.5607 3.47016 38.4426Z" fill="#706EFF" fill-opacity="0.2"/>
</g>
<defs>
<clipPath id="clip0_36_770">
<rect width="43.0807" height="30.8519" fill="white" transform="translate(0 42.7532) rotate(-76.5931)"/>
</clipPath>
</defs>
</svg>
