<svg width="41" height="83" viewBox="0 0 41 83" fill="none" xmlns="http://www.w3.org/2000/svg">
<g clip-path="url(#clip0_14_460)">
<path d="M12.6019 70.6488C16.4718 70.0031 19.9897 69.3566 23.9651 68.6457C23.5691 71.4374 21.9633 72.5028 20.4157 73.0229C15.3507 74.844 10.2036 76.6431 4.97371 77.7657C0.951641 78.651 -0.39969 76.1389 1.48453 72.0634C3.09968 68.6635 4.71482 65.2637 6.16571 61.8198C6.87948 60.1415 6.95962 58.1999 7.50914 56.4776C7.71947 55.6926 8.36378 54.9305 8.82047 54.2116C9.60698 54.8897 10.8742 55.4162 10.9103 56.2672C11.1346 57.7294 10.6906 59.3866 10.5396 60.9353C10.4114 61.7422 10.2011 62.5272 9.7691 64.4679C11.1986 63.0749 12.0893 62.3788 12.5693 61.5726C15.4024 56.2556 18.646 51.0486 20.8454 45.4683C25.9111 32.8039 29.452 19.9178 28.5702 6.12714C28.4874 5.45061 28.4513 4.59965 28.6971 4.01113C28.9428 3.42262 29.505 2.63847 30.0444 2.59607C30.5252 2.44444 31.4405 2.97015 31.6755 3.40704C32.2751 4.78291 32.91 6.35522 32.9467 7.86071C32.9393 12.1587 33.014 16.4788 32.4672 20.8192C30.6282 34.9092 26.5365 48.2085 19.6173 60.5633C17.6503 63.9623 15.1785 66.9457 12.6019 70.6488Z" fill="black"/>
</g>
<defs>
<clipPath id="clip0_14_460">
<rect width="80" height="21" fill="white" transform="translate(40.9902 5.43555) rotate(105)"/>
</clipPath>
</defs>
</svg>
