<svg width="48" height="48" viewBox="0 0 48 48" fill="none" xmlns="http://www.w3.org/2000/svg">
<g clip-path="url(#clip0_122_654)">
<path d="M20.4255 23.9965L45.9574 34.2479C46.1626 34.3344 46.397 34.381 46.6363 34.3829C46.8757 34.3848 47.1115 34.3421 47.3195 34.259C47.5275 34.1759 47.7002 34.0554 47.8198 33.9101C47.9394 33.7647 48.0016 33.5996 48 33.4318V14.5468C48.003 14.3787 47.9415 14.2131 47.822 14.0674C47.7024 13.9217 47.5291 13.8012 47.3203 13.7185C47.1116 13.6358 46.8749 13.594 46.6351 13.5974C46.3953 13.6008 46.1613 13.6493 45.9574 13.7378L20.4255 23.9965Z" fill="black"/>
<path d="M45.4162 9.19914L27.9625 0.200479C27.7818 0.103226 27.5698 0.0386301 27.345 0.0123836C27.1203 -0.0138629 26.8898 -0.000953567 26.6738 0.0499737C26.4579 0.100901 26.2632 0.188282 26.1068 0.304415C25.9504 0.420549 25.8371 0.561867 25.777 0.715915L19.4043 20.7607L45.263 10.7383C45.4597 10.6673 45.6271 10.562 45.7488 10.4325C45.8706 10.303 45.9426 10.1537 45.958 9.99896C45.9734 9.84423 45.9317 9.68934 45.8367 9.54923C45.7418 9.40913 45.597 9.28855 45.4162 9.19914Z" fill="black"/>
<path d="M27.9421 47.7853L45.4162 38.7866C45.5994 38.6963 45.7465 38.5746 45.8433 38.433C45.9401 38.2915 45.9834 38.1349 45.969 37.9782C45.9547 37.8215 45.8832 37.6701 45.7613 37.5384C45.6395 37.4066 45.4714 37.2991 45.2732 37.226L19.4043 27.2036L25.777 47.2484C25.8299 47.4041 25.9371 47.5482 26.0891 47.6677C26.241 47.7872 26.433 47.8784 26.6476 47.933C26.8623 47.9877 27.0929 48.0041 27.3189 47.9808C27.5448 47.9575 27.759 47.8952 27.9421 47.7996" fill="black"/>
<path d="M13.7872 23.6242L20.4255 1.86132C20.4762 1.68098 20.449 1.49413 20.3473 1.3247C20.2457 1.15527 20.0742 1.01096 19.8548 0.910243C19.6355 0.809528 19.3782 0.75699 19.116 0.759354C18.8538 0.761717 18.5986 0.818875 18.383 0.923511L1.37873 10.0653C0.948152 10.2969 0.599697 10.595 0.360545 10.9365C0.121392 11.278 -0.00199331 11.6536 1.05504e-05 12.034V35.2287C-0.00834559 35.6139 0.111985 35.9951 0.351383 36.342C0.59078 36.6888 0.942606 36.9915 1.37873 37.226L18.3013 46.3392C18.5169 46.4438 18.7721 46.501 19.0343 46.5033C19.2965 46.5057 19.5538 46.4532 19.7731 46.3524C19.9925 46.2517 20.164 46.1074 20.2656 45.938C20.3673 45.7686 20.3945 45.5817 20.3438 45.4014L13.7872 23.6242Z" fill="black"/>
</g>
<defs>
<clipPath id="clip0_122_654">
<rect width="48" height="48" fill="white"/>
</clipPath>
</defs>
</svg>
