<svg width="138" height="32" viewBox="0 0 138 32" fill="none" xmlns="http://www.w3.org/2000/svg">
<path d="M4.52055 18.4419C2.79622 18.4419 1.49132 18.4419 0 18.4419C0 12.4375 0 6.52851 0 0C4.98659 0.333574 10.0198 0.0476533 14.7733 1.09603C21.6241 2.66859 26.2844 10.579 25.3524 17.7747C24.4669 24.5891 19.1541 31.1176 11.7441 31.4036C7.87601 31.5465 4.00791 31.4036 0 31.4036C0 29.974 0 28.4967 0 26.6382C3.26225 26.6382 6.57111 26.6382 9.87997 26.6382C14.2607 26.6859 17.4298 24.6844 19.4337 20.7292C22.7426 14.153 18.455 6.00432 11.2781 5.19422C4.47395 4.47942 4.47395 4.47942 4.52055 11.3892C4.52055 13.6765 4.52055 15.9639 4.52055 18.4419Z" fill="black"/>
<path d="M40.3588 27.3055C40.3588 28.878 40.3588 30.3077 40.3588 31.6896C36.0713 32.2138 31.9235 29.4975 29.64 24.6846C27.3098 19.8239 28.4283 14.725 32.6226 10.4839C36.2111 6.86219 41.7103 6.05209 46.3241 8.3871C51.2174 10.9127 53.6408 15.8687 52.802 21.73C49.0737 21.73 45.2988 21.73 41.3375 21.73C41.3375 20.2528 41.3375 18.8232 41.3375 17.1077C43.4346 17.1077 45.4852 17.1077 47.5823 17.1077C46.9299 13.5337 42.9686 11.6752 40.2656 11.9611C36.4441 12.3423 33.6013 15.2015 33.3682 18.7755C33.0886 23.1596 35.3256 25.9235 40.3588 27.3055Z" fill="black"/>
<path d="M117.954 19.3474C116.416 19.3474 114.971 19.3474 113.526 19.3474C112.734 14.2961 118.047 7.52937 124.758 7.10049C131.935 6.62396 137.76 12.9619 137.993 19.2044C138.226 25.9236 132.308 32.4521 126.156 31.9755C125.038 28.6875 125.41 27.7821 128.44 26.6384C131.469 25.4947 133.566 22.016 133.147 18.7279C132.727 15.2492 130.024 12.5806 126.342 12.0564C123.267 11.6276 119.911 13.772 118.653 17.0124C118.327 17.6795 118.187 18.4896 117.954 19.3474Z" fill="black"/>
<path d="M76.6629 14.439C76.6629 15.9639 76.6629 17.2982 76.6629 19.0137C73.1676 19.0137 69.719 19.0137 66.2703 19.0137C61.5633 19.0613 61.9362 18.3465 61.9362 23.4931C61.9362 26.114 61.9362 28.735 61.9362 31.4989C60.3516 31.4989 58.9535 31.4989 57.369 31.4989C57.369 25.8281 57.369 20.205 57.369 14.439C63.6605 14.439 70.0452 14.439 76.6629 14.439Z" fill="black"/>
<path d="M82.4884 9.76904C84.0263 9.76904 85.3778 9.76904 86.8691 9.76904C86.8691 17.1077 86.8691 24.2557 86.8691 31.5943C85.3778 31.5943 84.0263 31.5943 82.4884 31.5943C82.4884 24.351 82.4884 17.203 82.4884 9.76904Z" fill="black"/>
<path d="M109.612 31.5943C108.074 31.5943 106.722 31.5943 105.231 31.5943C105.231 24.2557 105.231 17.1077 105.231 9.76904C106.722 9.76904 108.074 9.76904 109.612 9.76904C109.612 17.0124 109.612 24.1604 109.612 31.5943Z" fill="black"/>
<path d="M57.2759 5.05129C57.2759 3.52638 57.2759 2.09678 57.2759 0.476562C63.7072 0.476562 70.0453 0.476562 76.5698 0.476562C76.5698 2.00147 76.5698 3.43107 76.5698 5.05129C70.1851 5.05129 63.8936 5.05129 57.2759 5.05129Z" fill="black"/>
<path d="M96.0966 26.7334C98.2404 26.2092 98.6132 27.3053 98.6598 29.3067C98.7064 31.3558 98.0074 31.7847 96.1432 31.8323C94.1393 31.88 93.4868 31.2605 93.5334 29.1637C93.58 27.1623 94.0927 26.3045 96.0966 26.7334Z" fill="black"/>
<path d="M82.4418 5.00363C82.4418 3.47872 82.4418 2.09678 82.4418 0.476562C83.8865 0.476562 85.2846 0.476562 86.8691 0.476562C86.8691 1.95382 86.8691 3.38342 86.8691 5.00363C85.4244 5.00363 84.0729 5.00363 82.4418 5.00363Z" fill="black"/>
<path d="M109.658 0.476562C109.658 2.14443 109.658 3.52638 109.658 5.05129C108.167 5.05129 106.816 5.05129 105.278 5.05129C105.278 3.57403 105.278 2.14443 105.278 0.476562C106.722 0.476562 108.12 0.476562 109.658 0.476562Z" fill="black"/>
</svg>
