<svg width="48" height="48" viewBox="0 0 48 48" fill="none" xmlns="http://www.w3.org/2000/svg">
<g clip-path="url(#clip0_14_173)">
<mask id="mask0_14_173" style="mask-type:luminance" maskUnits="userSpaceOnUse" x="0" y="0" width="48" height="48">
<path d="M48 0H0V48H48V0Z" fill="white"/>
</mask>
<g mask="url(#mask0_14_173)">
<path d="M10 4.59998L47.2001 30L38 43.6L0.800049 18L10 4.59998Z" fill="black"/>
<path d="M47.2 30C44 34.5999 33.2 32.7999 23 25.6C12.6 18.6 7.00004 9.19995 10 4.59995C13.2 -4.95911e-05 24 1.79995 34.2 8.99995C44.6 15.8 50.2 25.4 47.2 30Z" fill="black"/>
<path d="M38 43.3999C34.8 47.9999 24 46.1999 13.8 38.9999C3.60002 31.7999 -2.19998 22.5999 1.00002 17.7999C4.20002 13.1999 15 14.9999 25.2 22.1999C35.4 29.3999 41 38.7999 38 43.3999Z" fill="black"/>
<path d="M47.2001 29.9999L38.0001 43.5999C34.8001 48.1999 24.0001 46.1999 13.8001 39.1999C11.8001 37.7999 10.0001 36.3999 8.20007 34.7999C9.60007 34.5999 11.4001 33.7999 13.2001 31.7999C16.4001 28.3999 18.0001 27.5999 19.4001 27.7999C20.8001 27.7999 22.4001 29.1999 25.0001 32.5999C27.6001 35.9999 31.2001 36.9999 33.4001 35.1999C33.6001 34.9999 33.8001 34.9999 34.0001 34.7999C35.8001 33.3999 36.4001 32.7999 39.8001 26.3999C40.6001 24.7999 43.4001 22.1999 47.2001 23.3999C48.2001 25.9999 48.2001 28.1999 47.2001 29.9999Z" fill="#0E0F23"/>
<path fill-rule="evenodd" clip-rule="evenodd" d="M45.8001 29.1999C43.0001 33.1999 33.2001 31.1999 23.8001 24.5999C14.2001 17.9999 8.60006 9.59994 11.4001 5.59994C14.2001 1.59994 24.0001 3.59994 33.4001 10.1999C42.8001 16.7999 48.4001 25.1999 45.8001 29.1999ZM37.0001 23.1999C35.6001 25.1999 30.8001 24.1999 26.0001 20.9999C21.4001 17.7999 18.6001 13.5999 20.0001 11.5999C21.4001 9.59994 26.2001 10.5999 31.0001 13.7999C35.6001 16.9999 38.4001 21.1999 37.0001 23.1999Z" fill="white"/>
<path d="M9.20002 9.19996C9.20002 8.99996 9.00002 8.79996 8.80002 8.99996C8.60002 9.19996 8.40002 9.19996 8.40002 9.39996C8.60002 9.99996 8.80002 10.4 8.80002 10.8C8.80002 11 9.00002 11.2 9.20002 11C9.40002 11 9.60002 10.8 9.40002 10.6C9.40002 10.2 9.40002 9.79996 9.20002 9.19996Z" fill="white"/>
<path d="M10.2 12.3999C10.2 12.1999 9.99998 11.9999 9.79998 12.1999C9.59998 12.3999 9.59998 12.3999 9.59998 12.5999C11.8 17.5999 16.4 22.9999 22.4 26.9999C22.6 27.1999 22.8 26.9999 23 26.9999C23.2 26.7999 23 26.5999 23 26.3999C16.8 22.3999 12.4 17.1999 10.2 12.3999Z" fill="white"/>
<path d="M34.4 32C34.2 32 34 32 34 32.2C34 32.4 34 32.6 34.2 32.6C34.8 32.8 35.6 33 36.2 33.2C36.4 33.2 36.6 33.2 36.6 33C36.6 32.8 36.6 32.6 36.4 32.6C35.8 32.4 35 32.2 34.4 32Z" fill="white"/>
<path d="M38 32.7999C37.8 32.7999 37.6 32.9999 37.6 33.1999C37.6 33.3999 37.8 33.5999 38 33.5999C39.6 33.7999 41.4 33.9999 42.8 33.7999C43 33.7999 43.2 33.5999 43.2 33.3999C43.2 33.1999 43 32.9999 42.8 32.9999C41.2 33.1999 39.6 32.9999 38 32.7999Z" fill="white"/>
</g>
</g>
<defs>
<clipPath id="clip0_14_173">
<rect width="48" height="48" fill="white"/>
</clipPath>
</defs>
</svg>
