<svg width="48" height="48" viewBox="0 0 48 48" fill="none" xmlns="http://www.w3.org/2000/svg">
<g clip-path="url(#clip0_14_136)">
<path d="M18.8235 10.9226C18.2245 10.8483 18.196 10.8235 18.4812 10.7988C19.0231 10.7245 20.278 10.8235 21.1621 10.9969C23.2156 11.418 25.0695 12.5077 27.0374 14.4149L27.5507 14.935L28.2923 14.8359C31.458 14.3901 34.7094 14.7368 37.4188 15.8266C38.1604 16.1238 39.3297 16.7183 39.4723 16.8669C39.5293 16.9164 39.6149 17.2384 39.672 17.5604C39.8716 18.7245 39.786 19.5913 39.3582 20.2601C39.1301 20.6316 39.1301 20.7307 39.2727 21.0526C39.3867 21.3003 39.729 21.4737 40.0427 21.4737C40.7272 21.4737 41.4402 20.5325 41.7825 19.2198L41.9251 18.6997L42.1818 18.9474C43.6363 20.3591 44.7771 22.3158 44.9482 23.7028L45.0053 24.0743L44.7486 23.7523C44.3208 23.1827 43.9215 22.8111 43.3796 22.4892C42.4099 21.9195 41.3832 21.7461 38.6737 21.6223C36.221 21.4985 34.8235 21.3251 33.4545 20.9288C31.1158 20.2601 29.9179 19.3932 27.1515 16.1981C25.9251 14.7864 25.155 14.0186 24.385 13.3746C22.7023 11.9629 21.0195 11.2198 18.8235 10.9226Z" fill="black"/>
<path d="M40.0713 14.0681C40.1283 13.1269 40.2709 12.5077 40.5847 11.938C40.6987 11.7151 40.8128 11.517 40.8413 11.517C40.8699 11.517 40.8128 11.6903 40.7273 11.8885C40.4991 12.4334 40.4706 13.2012 40.6132 14.0681C40.8128 15.1826 40.8984 15.3312 42.2674 16.5448C42.8948 17.1145 43.6364 17.8328 43.9216 18.13L44.4064 18.6749L43.9216 18.2786C43.3226 17.7832 41.9536 16.842 41.6399 16.7182C41.4403 16.6191 41.4118 16.6191 41.2691 16.743C41.1551 16.842 41.1265 16.9907 41.1265 17.7089C41.098 18.8235 40.9269 19.517 40.4991 20.2352C40.2709 20.6068 40.2424 20.5324 40.4421 20.1114C40.5847 19.7894 40.6132 19.6408 40.6132 18.5758C40.6132 16.421 40.328 15.9009 38.5882 15.034C38.1604 14.8111 37.4189 14.4891 36.9911 14.3157C36.5347 14.1424 36.1925 13.9937 36.221 13.9937C36.2781 13.9442 37.9608 14.3653 38.6167 14.6129C39.615 14.9597 39.7861 14.9845 39.9002 14.9597C39.9857 14.8854 40.0428 14.6872 40.0713 14.0681Z" fill="black"/>
<path d="M19.9929 17.7585C18.795 16.322 18.025 14.0929 18.1961 12.4335L18.2531 11.9133L18.5383 11.9629C19.0517 12.0372 19.9359 12.3344 20.3637 12.5573C21.5045 13.1517 22.0178 13.9691 22.5027 16C22.6453 16.5944 22.8449 17.2879 22.9305 17.5109C23.0731 17.8824 23.615 18.7492 24.0713 19.2941C24.385 19.6904 24.1854 19.8886 23.4724 19.839C22.3886 19.74 20.9341 18.8731 19.9929 17.7585Z" fill="black"/>
<path d="M38.6168 28.5325C32.9697 26.5511 30.9733 24.8421 30.9733 21.9443C30.9733 21.5233 31.0018 21.1765 31.0018 21.1765C31.0303 21.1765 31.23 21.3251 31.4866 21.4985C32.6275 22.2911 33.9109 22.6378 37.4759 23.0836C39.5579 23.3561 40.7558 23.5542 41.8396 23.8762C45.2906 24.8669 47.4296 26.8979 47.943 29.6471C48.0856 30.4397 48 31.9505 47.7718 32.7431C47.5722 33.3623 47.0018 34.5016 46.8592 34.5264C46.8307 34.5264 46.7736 34.4025 46.7736 34.2044C46.7166 33.1641 46.1177 32.1734 45.1194 31.4056C43.9216 30.514 42.3815 29.8452 38.6168 28.5325Z" fill="black"/>
<path d="M34.6238 29.3499C34.5668 28.9784 34.4242 28.5078 34.3386 28.3096L34.196 27.9381L34.4527 28.2106C34.8235 28.5821 35.1087 29.0279 35.3654 29.6471C35.565 30.1177 35.565 30.2663 35.565 31.0341C35.565 31.7771 35.5365 31.9505 35.3654 32.3715C35.0802 33.0403 34.7379 33.5109 34.1675 34.031C33.1408 34.9474 31.8003 35.4428 29.8894 35.6657C29.5472 35.6904 28.5775 35.7647 27.7219 35.8143C25.5828 35.9133 24.1568 36.1115 22.8734 36.5078C22.7023 36.5573 22.5311 36.6068 22.5026 36.5821C22.4456 36.5325 23.3297 36.0867 24.0427 35.7895C25.0409 35.3684 26.0677 35.1455 28.3208 34.7988C29.4331 34.6502 30.5739 34.452 30.8591 34.353C33.6827 33.5852 35.0802 31.678 34.6238 29.3499Z" fill="black"/>
<path d="M37.2192 33.3375C36.4777 31.9257 36.3066 30.5882 36.7058 29.3251C36.7629 29.2012 36.8199 29.0774 36.877 29.0774C36.934 29.0774 37.1051 29.1517 37.2763 29.2508C37.6185 29.4489 38.3315 29.7957 40.1568 30.6625C42.467 31.7523 43.7789 32.5944 44.6916 33.5604C45.4902 34.4025 45.975 35.3684 46.2032 36.5573C46.3458 37.226 46.2602 38.8359 46.0606 39.5046C45.4331 41.6099 44.0071 43.2941 41.9251 44.2601C41.6114 44.4087 41.3547 44.5077 41.3262 44.5077C41.2976 44.5077 41.4117 44.2601 41.5828 43.9628C42.2673 42.6997 42.3529 41.4861 41.8395 40.1238C41.5258 39.2817 40.8698 38.2662 39.5579 36.5573C37.9893 34.5758 37.6185 34.0557 37.2192 33.3375Z" fill="black"/>
<path d="M15.9715 40.9165C18.082 39.3809 20.6774 38.2911 23.0731 37.9443C24.0998 37.7957 25.8111 37.8452 26.7522 38.0682C28.2638 38.4149 29.6328 39.1579 30.3458 40.0744C31.0303 40.966 31.344 41.7338 31.6578 43.4428C31.7718 44.1115 31.9144 44.805 31.943 44.9536C32.1711 45.8452 32.6275 46.5387 33.1979 46.9103C34.082 47.4799 35.6221 47.5047 37.1337 47.0093C37.3904 46.935 37.6185 46.8607 37.6185 46.8855C37.6756 46.935 36.9055 47.3809 36.3922 47.6038C35.6792 47.9257 35.1087 48.0248 34.3387 48.0248C32.9697 48.0248 31.8004 47.4056 30.8592 46.1672C30.6595 45.9196 30.2603 45.2013 29.918 44.5326C28.9198 42.5264 28.4064 41.9319 27.2371 41.2632C26.2103 40.6935 24.8984 40.5697 23.9002 40.9908C22.5882 41.5357 22.246 42.997 23.1587 43.8886C23.5294 44.2601 24.2139 44.5573 24.7843 44.6316C25.8396 44.7555 26.7522 44.0372 26.7522 43.1208C26.7522 42.5264 26.4956 42.1796 25.8111 41.9072C24.8984 41.5604 23.9002 41.9567 23.9287 42.7245C23.9287 43.0465 24.0998 43.2446 24.4706 43.3932C24.6988 43.4923 24.6988 43.4923 24.5276 43.4675C23.7005 43.3189 23.5009 42.4273 24.1569 41.8576C24.9554 41.1641 26.6382 41.4613 27.2086 42.4273C27.4367 42.8236 27.4652 43.6161 27.2656 44.1115C26.7808 45.2013 25.4118 45.7709 24.0143 45.449C23.0731 45.2261 22.6738 45.0031 21.533 43.9877C19.5366 42.2044 18.7665 41.8576 15.9144 41.4861L15.3726 41.4118L15.9715 40.9165Z" fill="black"/>
<path fill-rule="evenodd" clip-rule="evenodd" d="M0.969745 1.06502C7.61502 8.0743 17.8539 18.9721 18.3672 19.5666C18.7951 20.0619 18.6239 20.5325 17.9109 20.8793C17.5116 21.0774 16.6845 21.2755 16.2853 21.2755C15.8289 21.2755 15.287 21.0774 14.9163 20.7554C14.6596 20.5325 13.5473 19.1207 11.0375 15.7276C9.12661 13.1269 7.50094 10.9721 7.47242 10.9474C7.35834 10.8978 7.35834 10.8978 10.8378 16.2972C13.0339 19.6904 13.7469 20.904 13.7469 21.0526C13.7469 21.3746 13.6328 21.548 13.1765 21.9938C12.4065 22.7368 12.0642 23.5789 11.8075 25.3375C11.5223 27.2941 10.7523 28.6811 8.5562 31.0341C7.27277 32.4211 7.07313 32.6687 6.75941 33.2384C6.36012 33.9319 6.24604 34.3282 6.189 35.2198C6.13196 36.161 6.24604 36.7554 6.55976 37.6471C6.84497 38.4396 7.15869 38.9598 7.92875 39.9752C8.58472 40.8669 8.984 41.5356 8.984 41.7833C8.984 41.9814 9.04105 41.9814 10.0678 41.7833C12.5205 41.2879 14.5455 40.4458 15.6578 39.4056C16.3423 38.7616 16.5134 38.4149 16.5134 37.5232C16.5134 36.9536 16.4849 36.8297 16.3138 36.483C16.0286 35.9381 15.4867 35.4923 14.3173 34.7988C12.7772 33.8824 12.1213 33.1393 11.9501 32.1486C11.8075 31.3065 11.9787 30.7368 12.8343 29.1765C13.7184 27.5666 13.9466 26.8978 14.0892 25.2632C14.1747 24.2229 14.3173 23.8019 14.6596 23.4799C15.0304 23.1331 15.3441 23.0093 16.2282 22.9102C17.6828 22.7368 18.6239 22.4149 19.3655 21.7957C20.0214 21.2755 20.3066 20.7554 20.3352 19.9876L20.3637 19.418L19.9929 19.0712C18.6525 17.7337 0.0856094 0 4.79021e-05 0C-0.0284726 0 0.427855 0.470588 0.969745 1.06502ZM9.72554 36.2848C10.0393 35.8142 9.86814 35.2198 9.35477 34.9226C8.86992 34.6502 8.12839 34.774 8.12839 35.1455C8.12839 35.2446 8.18543 35.3437 8.35655 35.3932C8.61324 35.517 8.64176 35.6409 8.44211 35.9133C8.24247 36.1858 8.24247 36.4334 8.49916 36.6068C8.89844 36.8793 9.44033 36.7306 9.72554 36.2848Z" fill="black"/>
<path fill-rule="evenodd" clip-rule="evenodd" d="M21.2764 23.257C20.5919 23.4303 19.9359 24.0743 19.7362 24.7183C19.6222 25.1145 19.6792 25.8328 19.8788 26.0557C20.1926 26.4025 20.4778 26.5015 21.2764 26.5015C22.845 26.5015 24.1854 25.9071 24.328 25.1888C24.4706 24.5944 23.8717 23.7771 23.0446 23.4056C22.6168 23.2074 21.7327 23.1331 21.2764 23.257ZM23.1017 24.4953C23.3298 24.1981 23.2443 23.8761 22.8165 23.6532C22.0464 23.2322 20.8771 23.5789 20.8771 24.2229C20.8771 24.5449 21.476 24.8916 22.0464 24.8916C22.4172 24.8916 22.9305 24.6935 23.1017 24.4953Z" fill="black"/>
</g>
<defs>
<clipPath id="clip0_14_136">
<rect width="48" height="48" fill="white"/>
</clipPath>
</defs>
</svg>
