<svg width="23" height="30" viewBox="0 0 23 30" fill="none" xmlns="http://www.w3.org/2000/svg">
<path d="M3.24023 29.6083C2.49076 29.6083 1.8494 29.3399 1.31614 28.803C0.781975 28.2652 0.514893 27.619 0.514893 26.8644V13.1451C0.514893 12.3905 0.781975 11.7443 1.31614 11.2065C1.8494 10.6696 2.49076 10.4012 3.24023 10.4012H4.6029V7.6573C4.6029 5.75945 5.26743 4.14148 6.59648 2.80338C7.92463 1.4662 9.53122 0.797607 11.4162 0.797607C13.3013 0.797607 14.9083 1.4662 16.2374 2.80338C17.5655 4.14148 18.2296 5.75945 18.2296 7.6573V10.4012H19.5923C20.3417 10.4012 20.9835 10.6696 21.5177 11.2065C22.051 11.7443 22.3176 12.3905 22.3176 13.1451V26.8644C22.3176 27.619 22.051 28.2652 21.5177 28.803C20.9835 29.3399 20.3417 29.6083 19.5923 29.6083H3.24023ZM11.4162 22.7486C12.1657 22.7486 12.8075 22.4802 13.3417 21.9433C13.8749 21.4055 14.1416 20.7593 14.1416 20.0047C14.1416 19.2502 13.8749 18.604 13.3417 18.0662C12.8075 17.5293 12.1657 17.2609 11.4162 17.2609C10.6668 17.2609 10.0254 17.5293 9.49215 18.0662C8.95799 18.604 8.6909 19.2502 8.6909 20.0047C8.6909 20.7593 8.95799 21.4055 9.49215 21.9433C10.0254 22.4802 10.6668 22.7486 11.4162 22.7486ZM7.32824 10.4012H15.5042V7.6573C15.5042 6.51402 15.1068 5.54223 14.3119 4.74193C13.517 3.94163 12.5518 3.54148 11.4162 3.54148C10.2807 3.54148 9.31546 3.94163 8.52057 4.74193C7.72568 5.54223 7.32824 6.51402 7.32824 7.6573V10.4012Z" fill="#DC6BE5"/>
</svg>
