<svg width="48" height="48" viewBox="0 0 48 48" fill="none" xmlns="http://www.w3.org/2000/svg">
<path d="M43.5949 12.2304C37.8269 6.49803 25.4149 1.83366 20.0656 0.727509C15.2507 -0.269664 10.5515 -0.738281 6.71716 2.69461C0.321135 8.43244 -0.196718 17.249 0.045681 22.3711C0.34868 28.6701 2.62944 35.8029 3.98467 39.0996C6.33153 44.8047 10.1824 49.3383 15.438 47.6382C19.041 46.4721 20.9471 41.192 21.6688 38.7617C23.0405 34.0756 23.1617 28.9535 21.7073 23.123C21.0518 20.5075 20.0546 17.892 19.2228 15.2328C18.8041 13.9087 18.3523 12.59 17.9722 11.2278C17.7708 10.5392 17.6053 9.84078 17.4764 9.13536C17.4095 8.76326 17.3873 8.38466 17.4103 8.00741C17.428 7.59568 17.5786 7.20039 17.84 6.87946C17.8817 6.83845 17.9367 6.81342 17.9953 6.80885C18.054 6.80428 18.1123 6.82046 18.16 6.85451C18.2076 6.88856 18.2415 6.93826 18.2556 6.99473C18.2696 7.05121 18.2629 7.11078 18.2366 7.16281C17.9446 7.65868 18.1209 8.31801 18.3082 8.9392C18.5272 9.58248 18.781 10.2137 19.0685 10.83L20.8259 14.6443C21.9002 17.0474 22.9854 19.4449 23.8834 22.0005C25.1285 21.9242 26.3956 21.8316 27.6406 21.7063C29.1391 21.5646 30.6247 21.3721 32.0974 21.1287C33.5684 20.8889 39.2592 19.8645 39.2978 18.4968C39.3308 17.6467 36.9069 16.1047 36.2568 15.7341C34.9371 15.0026 33.5718 14.3547 32.1691 13.7943C30.7587 13.2494 29.3264 12.7045 27.883 12.2468C27.1613 12.0179 26.4286 11.8163 25.6794 11.6365C24.958 11.4438 24.2204 11.3162 23.4757 11.255C23.4407 11.255 23.4071 11.2413 23.3823 11.2167C23.3575 11.1922 23.3435 11.1589 23.3435 11.1243C23.3435 11.0896 23.3575 11.0563 23.3823 11.0318C23.4071 11.0073 23.4407 10.9935 23.4757 10.9935C25.0014 11.1783 26.5063 11.503 27.9712 11.9634C29.4421 12.383 30.891 12.8625 32.3288 13.3747C33.7781 13.8883 35.1995 14.4758 36.5873 15.1347C38.1409 15.8704 40.6916 17.3144 40.5869 18.9491C40.4161 21.472 34.0256 22.8124 32.5106 23.1666C29.9137 23.7422 27.2824 24.1535 24.6327 24.3981C25.2217 26.5573 25.5508 28.7777 25.6133 31.0132C25.6587 32.4747 25.5405 33.9367 25.2607 35.3724C25.138 36.0027 24.9705 36.6236 24.7594 37.2306C28.3568 36.1081 39.7771 33.4762 42.7244 32.3646C46.5808 30.9151 47.2198 28.2397 47.7322 25.4607C48.1935 23.0889 48.0573 20.6413 47.3358 18.3339C46.6142 16.0266 45.3294 13.9304 43.5949 12.2304ZM15.8567 42.8213C13.9616 45.0935 11.8351 44.3252 11.1575 43.9111C11.1289 43.8952 11.104 43.8737 11.0842 43.8478C11.0645 43.8219 11.0504 43.7923 11.0429 43.7607C11.0353 43.7292 11.0345 43.6964 11.0404 43.6646C11.0463 43.6327 11.0588 43.6024 11.0771 43.5755C11.0955 43.5487 11.1193 43.5259 11.147 43.5086C11.1747 43.4913 11.2057 43.4799 11.2381 43.475C11.2705 43.4702 11.3036 43.4721 11.3352 43.4806C11.3669 43.489 11.3964 43.5039 11.4219 43.5242C13.2454 44.6576 14.9092 43.3171 15.5537 41.4917C17.6747 35.4978 16.2974 28.7846 10.6506 21.6627C10.568 21.5537 10.5019 21.4393 10.5735 21.3248C10.6101 21.2749 10.6637 21.2397 10.7244 21.2257C10.7851 21.2116 10.8489 21.2198 10.9041 21.2486C18.1815 24.4199 21.0958 36.5385 15.8567 42.8213Z" fill="black"/>
</svg>
