<svg width="23" height="29" viewBox="0 0 23 29" fill="none" xmlns="http://www.w3.org/2000/svg">
<path d="M3.5415 28.9494C2.79203 28.9494 2.15067 28.6809 1.61741 28.1441C1.08324 27.6063 0.816162 26.9601 0.816162 26.2055V12.4861C0.816162 11.7316 1.08324 11.0854 1.61741 10.5476C2.15067 10.0107 2.79203 9.74225 3.5415 9.74225H4.90417V6.99838C4.90417 5.10053 5.5687 3.48256 6.89775 2.14446C8.2259 0.807278 9.83249 0.138687 11.7175 0.138687C13.6025 0.138687 15.2096 0.807278 16.5386 2.14446C17.8668 3.48256 18.5309 5.10053 18.5309 6.99838V9.74225H19.8935C20.643 9.74225 21.2848 10.0107 21.819 10.5476C22.3522 11.0854 22.6189 11.7316 22.6189 12.4861V26.2055C22.6189 26.9601 22.3522 27.6063 21.819 28.1441C21.2848 28.6809 20.643 28.9494 19.8935 28.9494H3.5415ZM11.7175 22.0897C12.467 22.0897 13.1088 21.8213 13.643 21.2844C14.1762 20.7466 14.4428 20.1004 14.4428 19.3458C14.4428 18.5913 14.1762 17.9451 13.643 17.4073C13.1088 16.8704 12.467 16.6019 11.7175 16.6019C10.968 16.6019 10.3267 16.8704 9.79342 17.4073C9.25926 17.9451 8.99217 18.5913 8.99217 19.3458C8.99217 20.1004 9.25926 20.7466 9.79342 21.2844C10.3267 21.8213 10.968 22.0897 11.7175 22.0897ZM7.6295 9.74225H15.8055V6.99838C15.8055 5.8551 15.4081 4.88331 14.6132 4.08301C13.8183 3.28271 12.8531 2.88256 11.7175 2.88256C10.582 2.88256 9.61673 3.28271 8.82184 4.08301C8.02695 4.88331 7.6295 5.8551 7.6295 6.99838V9.74225Z" fill="#53AE94"/>
</svg>
