<svg width="31" height="41" viewBox="0 0 31 41" fill="none" xmlns="http://www.w3.org/2000/svg">
<path d="M4.34955 40.2964C3.33242 40.2964 2.46199 39.9264 1.73829 39.1863C1.01335 38.445 0.650879 37.5543 0.650879 36.5143V17.6038C0.650879 16.5637 1.01335 15.673 1.73829 14.9317C2.46199 14.1917 3.33242 13.8217 4.34955 13.8217H6.19889V10.0396C6.19889 7.42362 7.10075 5.19344 8.90446 3.34904C10.707 1.50589 12.8873 0.58432 15.4456 0.58432C18.0038 0.58432 20.1848 1.50589 21.9885 3.34904C23.791 5.19344 24.6922 7.42362 24.6922 10.0396V13.8217H26.5416C27.5587 13.8217 28.4298 14.1917 29.1547 14.9317C29.8784 15.673 30.2402 16.5637 30.2402 17.6038V36.5143C30.2402 37.5543 29.8784 38.445 29.1547 39.1863C28.4298 39.9264 27.5587 40.2964 26.5416 40.2964H4.34955ZM15.4456 30.8411C16.4627 30.8411 17.3337 30.4711 18.0587 29.7311C18.7824 28.9898 19.1442 28.0991 19.1442 27.059C19.1442 26.0189 18.7824 25.1283 18.0587 24.387C17.3337 23.6469 16.4627 23.2769 15.4456 23.2769C14.4284 23.2769 13.558 23.6469 12.8343 24.387C12.1094 25.1283 11.7469 26.0189 11.7469 27.059C11.7469 28.0991 12.1094 28.9898 12.8343 29.7311C13.558 30.4711 14.4284 30.8411 15.4456 30.8411ZM9.89756 13.8217H20.9936V10.0396C20.9936 8.4637 20.4542 7.1242 19.3754 6.02109C18.2966 4.91798 16.9867 4.36642 15.4456 4.36642C13.9045 4.36642 12.5945 4.91798 11.5157 6.02109C10.4369 7.1242 9.89756 8.4637 9.89756 10.0396V13.8217Z" fill="#F7931A"/>
</svg>
