<svg width="23" height="29" viewBox="0 0 23 29" fill="none" xmlns="http://www.w3.org/2000/svg">
<path d="M3.5415 28.9494C2.79203 28.9494 2.15067 28.681 1.61741 28.1441C1.08324 27.6063 0.816162 26.9601 0.816162 26.2055V12.4861C0.816162 11.7316 1.08324 11.0854 1.61741 10.5476C2.15067 10.0107 2.79203 9.74227 3.5415 9.74227H4.90417V6.99839C4.90417 5.10055 5.5687 3.48257 6.89775 2.14448C8.2259 0.807293 9.83249 0.138702 11.7175 0.138702C13.6025 0.138702 15.2096 0.807293 16.5386 2.14448C17.8668 3.48257 18.5309 5.10055 18.5309 6.99839V9.74227H19.8935C20.643 9.74227 21.2848 10.0107 21.819 10.5476C22.3522 11.0854 22.6189 11.7316 22.6189 12.4861V26.2055C22.6189 26.9601 22.3522 27.6063 21.819 28.1441C21.2848 28.681 20.643 28.9494 19.8935 28.9494H3.5415ZM11.7175 22.0897C12.467 22.0897 13.1088 21.8213 13.643 21.2844C14.1762 20.7466 14.4428 20.1004 14.4428 19.3458C14.4428 18.5913 14.1762 17.9451 13.643 17.4073C13.1088 16.8704 12.467 16.602 11.7175 16.602C10.968 16.602 10.3267 16.8704 9.79342 17.4073C9.25926 17.9451 8.99217 18.5913 8.99217 19.3458C8.99217 20.1004 9.25926 20.7466 9.79342 21.2844C10.3267 21.8213 10.968 22.0897 11.7175 22.0897ZM7.6295 9.74227H15.8055V6.99839C15.8055 5.85511 15.4081 4.88332 14.6132 4.08302C13.8183 3.28273 12.8531 2.88258 11.7175 2.88258C10.582 2.88258 9.61673 3.28273 8.82184 4.08302C8.02695 4.88332 7.6295 5.85511 7.6295 6.99839V9.74227Z" fill="#53AE94"/>
</svg>
