<svg width="37" height="38" viewBox="0 0 37 38" fill="none" xmlns="http://www.w3.org/2000/svg">
<path d="M3.22271 8.49839C0.614354 12.3603 -0.315622 17.1254 0.637369 21.7456C1.59036 26.3657 4.34825 30.4624 8.30434 33.1344L5.02607 37.9881L15.7241 36.0489L16.0326 36.0924L13.7681 25.0448L10.4899 29.8985C4.07578 25.5664 2.3085 16.9986 6.53747 10.7372C10.7664 4.47585 19.3744 2.9155 25.7885 7.24762C32.2025 11.5797 33.9698 20.1476 29.7408 26.4089C27.6318 29.5315 24.4102 31.4786 20.9284 32.0955L21.7302 35.9825C24.0298 35.5722 26.2145 34.7128 28.1583 33.4539C30.1021 32.1951 31.7665 30.5616 33.0556 28.6478C35.664 24.7859 36.5939 20.0207 35.6409 15.4006C34.688 10.7804 31.9301 6.68374 27.974 4.01177C24.0179 1.3398 19.1877 0.311397 14.5459 1.1528C9.90414 1.9942 5.83106 4.63649 3.22271 8.49839ZM10.4169 15.7134L18.7038 21.3104L27.5246 17.2551L26.2446 14.5765L18.9341 17.932L12.056 13.2865L10.4169 15.7134Z" fill="#53AE94"/>
</svg>
