<svg width="22" height="29" viewBox="0 0 22 29" fill="none" xmlns="http://www.w3.org/2000/svg">
<path d="M2.99885 28.6028C2.27615 28.6028 1.6577 28.3417 1.14348 27.8193C0.628394 27.296 0.37085 26.6673 0.37085 25.9331V12.5845C0.37085 11.8504 0.628394 11.2216 1.14348 10.6984C1.6577 10.176 2.27615 9.91481 2.99885 9.91481H4.31285V7.2451C4.31285 5.39854 4.95365 3.8243 6.23524 2.52236C7.51595 1.22132 9.06516 0.570801 10.8829 0.570801C12.7006 0.570801 14.2502 1.22132 15.5318 2.52236C16.8125 3.8243 17.4529 5.39854 17.4529 7.2451V9.91481H18.7669C19.4896 9.91481 20.1085 10.176 20.6236 10.6984C21.1378 11.2216 21.3949 11.8504 21.3949 12.5845V25.9331C21.3949 26.6673 21.1378 27.296 20.6236 27.8193C20.1085 28.3417 19.4896 28.6028 18.7669 28.6028H2.99885ZM10.8829 21.9285C11.6056 21.9285 12.2245 21.6674 12.7395 21.145C13.2538 20.6217 13.5109 19.993 13.5109 19.2588C13.5109 18.5247 13.2538 17.8959 12.7395 17.3727C12.2245 16.8503 11.6056 16.5891 10.8829 16.5891C10.1602 16.5891 9.54171 16.8503 9.02749 17.3727C8.5124 17.8959 8.25486 18.5247 8.25486 19.2588C8.25486 19.993 8.5124 20.6217 9.02749 21.145C9.54171 21.6674 10.1602 21.9285 10.8829 21.9285ZM6.94086 9.91481H14.8249V7.2451C14.8249 6.13271 14.4416 5.18719 13.6751 4.40852C12.9086 3.62985 11.9779 3.24052 10.8829 3.24052C9.78786 3.24052 8.85711 3.62985 8.09061 4.40852C7.32411 5.18719 6.94086 6.13271 6.94086 7.2451V9.91481Z" fill="#706EFF"/>
</svg>
