<svg width="31" height="41" viewBox="0 0 31 41" fill="none" xmlns="http://www.w3.org/2000/svg">
<path d="M4.38536 40.7095C3.34146 40.7095 2.44813 40.3323 1.70538 39.5777C0.961364 38.8219 0.589355 37.9137 0.589355 36.8533V17.572C0.589355 16.5115 0.961364 15.6034 1.70538 14.8475C2.44813 14.093 3.34146 13.7157 4.38536 13.7157H6.28336V9.85946C6.28336 7.19221 7.20896 4.9183 9.06014 3.03774C10.9101 1.15845 13.1478 0.218811 15.7734 0.218811C18.3989 0.218811 20.6373 1.15845 22.4885 3.03774C24.3384 4.9183 25.2634 7.19221 25.2634 9.85946V13.7157H27.1614C28.2053 13.7157 29.0993 14.093 29.8433 14.8475C30.586 15.6034 30.9574 16.5115 30.9574 17.572V36.8533C30.9574 37.9137 30.586 38.8219 29.8433 39.5777C29.0993 40.3323 28.2053 40.7095 27.1614 40.7095H4.38536ZM15.7734 31.0689C16.8173 31.0689 17.7112 30.6916 18.4553 29.9371C19.198 29.1812 19.5694 28.2731 19.5694 27.2126C19.5694 26.1522 19.198 25.244 18.4553 24.4882C17.7112 23.7336 16.8173 23.3564 15.7734 23.3564C14.7295 23.3564 13.8361 23.7336 13.0934 24.4882C12.3494 25.244 11.9774 26.1522 11.9774 27.2126C11.9774 28.2731 12.3494 29.1812 13.0934 29.9371C13.8361 30.6916 14.7295 31.0689 15.7734 31.0689ZM10.0794 13.7157H21.4674V9.85946C21.4674 8.25268 20.9138 6.88693 19.8066 5.76218C18.6995 4.63744 17.355 4.07507 15.7734 4.07507C14.1917 4.07507 12.8473 4.63744 11.7401 5.76218C10.633 6.88693 10.0794 8.25268 10.0794 9.85946V13.7157Z" fill="#706EFF"/>
</svg>
