<svg width="31" height="41" viewBox="0 0 31 41" fill="none" xmlns="http://www.w3.org/2000/svg">
<path d="M4.34955 40.2964C3.33242 40.2964 2.46199 39.9264 1.73829 39.1864C1.01335 38.4451 0.650879 37.5544 0.650879 36.5143V17.6038C0.650879 16.5637 1.01335 15.673 1.73829 14.9317C2.46199 14.1917 3.33242 13.8217 4.34955 13.8217H6.19889V10.0396C6.19889 7.42365 7.10075 5.19347 8.90446 3.34907C10.707 1.50592 12.8873 0.584351 15.4456 0.584351C18.0038 0.584351 20.1848 1.50592 21.9885 3.34907C23.791 5.19347 24.6922 7.42365 24.6922 10.0396V13.8217H26.5416C27.5587 13.8217 28.4298 14.1917 29.1547 14.9317C29.8784 15.673 30.2402 16.5637 30.2402 17.6038V36.5143C30.2402 37.5544 29.8784 38.4451 29.1547 39.1864C28.4298 39.9264 27.5587 40.2964 26.5416 40.2964H4.34955ZM15.4456 30.8412C16.4627 30.8412 17.3337 30.4711 18.0587 29.7311C18.7824 28.9898 19.1442 28.0991 19.1442 27.0591C19.1442 26.019 18.7824 25.1283 18.0587 24.387C17.3337 23.647 16.4627 23.277 15.4456 23.277C14.4284 23.277 13.558 23.647 12.8343 24.387C12.1094 25.1283 11.7469 26.019 11.7469 27.0591C11.7469 28.0991 12.1094 28.9898 12.8343 29.7311C13.558 30.4711 14.4284 30.8412 15.4456 30.8412ZM9.89756 13.8217H20.9936V10.0396C20.9936 8.46373 20.4542 7.12423 19.3754 6.02112C18.2966 4.91801 16.9867 4.36645 15.4456 4.36645C13.9045 4.36645 12.5945 4.91801 11.5157 6.02112C10.4369 7.12423 9.89756 8.46373 9.89756 10.0396V13.8217Z" fill="#F7931A"/>
</svg>
