<svg width="37" height="36" viewBox="0 0 37 36" fill="none" xmlns="http://www.w3.org/2000/svg">
<path d="M6.61071 31.8179C10.1615 34.8361 14.795 36.2858 19.4921 35.8481C24.1891 35.4103 28.5649 33.1209 31.6568 29.4836L36.1195 33.277L35.3717 22.4304L35.4489 22.1285L24.2189 23.1611L28.6816 26.9546C23.6687 32.8519 14.9583 33.6637 9.20136 28.7702C3.44446 23.8766 2.84274 15.1491 7.85566 9.25179C12.8686 3.35448 21.579 2.54267 27.3359 7.43623C30.207 9.87669 31.7869 13.2934 32.0162 16.8219L35.9679 16.4536C35.8136 14.1228 35.2004 11.8566 34.1635 9.78589C33.1266 7.71514 31.6866 5.88075 29.9266 4.38853C26.3758 1.37027 21.7423 -0.0794432 17.0452 0.358319C12.3482 0.796083 7.9724 3.08546 4.88052 6.72281C1.78864 10.3602 0.23393 15.0476 0.558401 19.7538C0.882876 24.46 3.05995 28.7996 6.61071 31.8179ZM14.5749 25.4631L21.0515 17.8438L17.9936 8.62965L15.1902 9.60653L17.7192 17.2424L12.3436 23.5664L14.5749 25.4631Z" fill="#3041D7"/>
</svg>
