<svg width="26" height="26" viewBox="0 0 26 26" fill="none" xmlns="http://www.w3.org/2000/svg">
<path d="M21.661 7.24534C22.6321 6.66476 23.3587 5.75059 23.7052 4.6735C22.7927 5.21497 21.7943 5.59639 20.7531 5.80125C20.0509 5.05846 19.124 4.56725 18.115 4.40332C17.1061 4.23939 16.0713 4.41186 15.1701 4.89413C14.2688 5.3764 13.5513 6.1417 13.1279 7.07207C12.7046 8.00243 12.599 9.04621 12.8275 10.0425C10.9792 9.94971 9.17104 9.46929 7.52045 8.63242C5.86985 7.79555 4.41368 6.62094 3.24646 5.18483C2.65286 6.2087 2.47122 7.42011 2.73843 8.57304C3.00564 9.72597 3.70165 10.734 4.68513 11.3923C3.94706 11.3686 3.22537 11.1688 2.58021 10.8095V10.868C2.58042 11.9416 2.95194 12.982 3.63176 13.8129C4.31159 14.6437 5.25787 15.2139 6.31013 15.4267C5.62553 15.6129 4.90744 15.6403 4.21063 15.5068C4.50825 16.4302 5.08673 17.2376 5.86532 17.8163C6.64391 18.3951 7.58376 18.7163 8.55371 18.7352C6.90686 20.0277 4.87306 20.7287 2.77954 20.7253C2.40796 20.7253 2.03746 20.7036 1.66913 20.6613C3.79508 22.0274 6.26937 22.7525 8.79638 22.75C10.5369 22.762 12.2624 22.4279 13.8727 21.7674C15.483 21.1068 16.946 20.1328 18.1767 18.902C19.4074 17.6712 20.3812 16.2082 21.0417 14.5978C21.7021 12.9874 22.036 11.2619 22.0239 9.52142C22.0239 9.31992 22.0195 9.1195 22.0098 8.92017C22.9203 8.26217 23.7061 7.44701 24.3303 6.513C23.4821 6.88897 22.5823 7.13582 21.661 7.24534Z" fill="#5ABCF8"/>
</svg>
