<svg width="40" height="19" viewBox="0 0 40 19" fill="none" xmlns="http://www.w3.org/2000/svg">
<g clip-path="url(#clip0_19_325)">
<path d="M33.7189 12.9263C33.3712 11.1157 33.0272 9.4703 32.6476 7.61081C33.9638 7.76486 34.4827 8.50705 34.7448 9.22819C35.6585 11.5869 36.5627 13.9844 37.15 16.4286C37.612 18.308 36.4473 18.9717 34.5109 18.1331C32.8951 17.4133 31.2792 16.6934 29.6446 16.0512C28.8479 15.7351 27.9348 15.7197 27.1193 15.4813C26.7481 15.3915 26.3826 15.0975 26.0396 14.8912C26.3492 14.5139 26.5821 13.9125 26.9815 13.8858C27.6659 13.7637 28.4496 13.9533 29.1789 14.0065C29.5595 14.0575 29.9307 14.1473 30.8475 14.328C30.1766 13.6724 29.8393 13.2619 29.4551 13.0456C26.9246 11.7756 24.4411 10.3113 21.7941 9.34198C15.786 7.10712 9.69127 5.59123 3.22218 6.16349C2.90528 6.21013 2.50589 6.23681 2.22658 6.12812C1.94726 6.01943 1.57241 5.76429 1.54631 5.51132C1.46956 5.28721 1.70607 4.85115 1.90864 4.73573C2.54818 4.4383 3.27962 4.12199 3.98652 4.0875C6.00592 4.04174 8.03472 3.95715 10.0802 4.16435C16.7211 4.8669 23.0163 6.63683 28.9001 9.746C30.5196 10.6312 31.9496 11.7582 33.7189 12.9263Z" fill="black"/>
</g>
<defs>
<clipPath id="clip0_19_325">
<rect width="37.597" height="9.86887" fill="white" transform="matrix(0.97195 0.235188 -0.235205 0.971946 2.75513 0.336426)"/>
</clipPath>
</defs>
</svg>
