<svg width="55" height="61" viewBox="0 0 55 61" fill="none" xmlns="http://www.w3.org/2000/svg">
<g clip-path="url(#clip0_26_1238)">
<path d="M39.4766 50.1978C40.8816 49.5069 42.3126 48.8611 43.8078 48.1181C44.3165 49.2074 43.8883 50.2363 42.9673 50.8282C40.9449 52.1161 38.9034 53.4752 36.6466 54.3572C34.1834 55.2983 33.0034 54.2959 32.9852 51.6607C32.9619 49.329 33.0548 46.9904 33.1478 44.6518C33.151 43.9284 33.0761 43.0696 34.2315 42.8836C35.3022 44.0092 34.902 45.503 35.0759 46.8458C35.2307 48.2596 35.2433 49.6354 35.355 51.4951C36.0937 50.5875 36.6209 50.0426 37.0059 49.4596C40.7982 43.8426 42.7931 37.8203 42.149 30.9765C41.8444 27.8452 40.9466 24.9361 39.0877 22.3414C36.2934 18.5429 33.0263 17.3625 28.582 18.7258C26.7051 19.3284 24.9913 20.3178 23.1284 21.1529C23.5399 22.1781 23.8142 22.8615 24.0434 23.571C25.2728 26.9501 24.349 29.8285 21.9314 32.3067C20.9862 33.2733 19.8207 34.0665 18.3389 33.4788C16.9283 32.9103 16.4317 31.6336 16.3029 30.2648C16.0611 28.1796 16.7631 26.271 17.7306 24.5098C18.3842 23.3507 19.2062 22.2749 19.9761 21.1088C19.4535 19.787 18.2302 19.2305 17.0712 18.5768C14.196 16.9296 11.0558 16.6982 7.85334 16.9837C5.67095 17.1614 3.42439 17.4362 1.10671 17.692C1.92681 16.1962 2.46799 15.8838 7.88586 15.5819C10.2556 15.4164 12.8007 15.4502 15.0579 16.1313C17.4054 16.7603 19.5241 18.2429 22.2171 19.5745C23.119 19.0537 24.4199 18.1824 25.8249 17.4915C32.1805 14.5436 37.9043 16.2298 41.6188 22.1428C44.0905 26.0072 44.9107 30.3441 44.6918 34.86C44.4609 39.5633 43.0397 43.8714 40.5254 47.8485C40.0763 48.5287 39.6272 49.2089 39.2041 49.9342C39.3013 49.9984 39.3534 50.0886 39.4766 50.1978ZM21.5225 23.1624C18.4805 26.1213 17.6298 29.4386 19.3375 31.4592C22.6748 29.5324 23.5706 26.189 21.5225 23.1624Z" fill="#CDD2FF"/>
</g>
<defs>
<clipPath id="clip0_26_1238">
<rect width="32.8591" height="50.252" fill="white" transform="translate(0.846313 17.241) rotate(-30)"/>
</clipPath>
</defs>
</svg>
