<svg width="9" height="11" viewBox="0 0 9 11" fill="none" xmlns="http://www.w3.org/2000/svg">
<g clip-path="url(#clip0_26_1225)">
<path d="M3.61649 1.08661C3.90768 1.21608 3.88708 1.48499 3.91135 1.71447C4.10854 3.25092 4.28545 4.7991 4.4682 6.35742C4.5226 6.82651 4.57114 7.28546 4.62554 7.75456C4.63182 7.85915 4.66425 7.96217 4.70881 8.17993C4.81957 7.92661 4.89445 7.77516 4.95919 7.62956C5.27117 6.8813 5.56715 6.12875 5.88499 5.39064C5.94973 5.24504 6.03476 5.08773 6.15337 4.96515C6.27197 4.84256 6.47729 4.94046 6.46641 5.10906C6.46997 5.2558 6.42124 5.40568 6.37679 5.53956C5.9073 6.81163 5.43782 8.08369 4.96247 9.34561C4.91645 9.45334 4.86029 9.56693 4.78655 9.65008C4.63323 9.80624 4.39632 9.79422 4.32133 9.59403C4.05376 8.8963 3.47326 8.4063 3.07538 7.81086C2.82822 7.45306 2.55648 7.12297 2.29918 6.77102C2.2246 6.66528 2.12816 6.54511 2.10588 6.43623C2.0836 6.32735 2.13234 6.17747 2.21193 6.10446C2.26109 6.04902 2.4254 6.0759 2.51713 6.11763C2.60886 6.15936 2.67329 6.27096 2.74201 6.36656C3.09147 6.85468 3.44092 7.34281 3.80052 7.82507C3.86338 7.91052 3.92624 7.99597 4.08627 8.03885C4.07528 7.85582 4.07016 7.68293 4.04902 7.50575C3.8603 5.58564 3.66728 3.68154 3.49026 1.78173C3.46599 1.55225 3.382 1.28962 3.61649 1.08661Z" fill="black"/>
</g>
<defs>
<clipPath id="clip0_26_1225">
<rect width="4.49849" height="8.01294" fill="white" transform="translate(8.03906 7.78589) rotate(150)"/>
</clipPath>
</defs>
</svg>
