<svg width="20" height="39" viewBox="0 0 20 39" fill="none" xmlns="http://www.w3.org/2000/svg">
<g clip-path="url(#clip0_19_327)">
<path d="M5.92909 33.3156C7.74771 33.0122 9.40097 32.7083 11.2692 32.3742C11.0831 33.6862 10.3284 34.1869 9.60112 34.4313C7.22084 35.2871 4.80196 36.1326 2.34419 36.6602C0.454026 37.0763 -0.18102 35.8957 0.704482 33.9804C1.46353 32.3827 2.22257 30.785 2.90443 29.1665C3.23987 28.3778 3.27754 27.4654 3.53579 26.656C3.63464 26.2871 3.93743 25.9289 4.15206 25.5911C4.52168 25.9098 5.11721 26.1572 5.13414 26.5571C5.23955 27.2443 5.03088 28.023 4.95995 28.7508C4.8997 29.13 4.80085 29.4989 4.59782 30.411C5.26962 29.7563 5.6882 29.4292 5.91381 29.0503C7.24519 26.5516 8.76954 24.1046 9.80316 21.4822C12.1839 15.5306 13.8479 9.47489 13.4336 2.99406C13.3947 2.67612 13.3777 2.27622 13.4932 1.99965C13.6087 1.72308 13.8729 1.35458 14.1264 1.33465C14.3523 1.26339 14.7825 1.51044 14.8929 1.71575C15.1747 2.36233 15.4731 3.10122 15.4903 3.80872C15.4868 5.82855 15.5219 7.85872 15.2649 9.89848C14.4006 16.52 12.4777 22.7699 9.22598 28.576C8.30158 30.1733 7.13997 31.5754 5.92909 33.3156Z" fill="black"/>
</g>
<defs>
<clipPath id="clip0_19_327">
<rect width="37.5956" height="9.86885" fill="white" transform="matrix(-0.258828 0.965923 -0.965928 -0.25881 19.2706 2.66919)"/>
</clipPath>
</defs>
</svg>
