<svg width="9" height="10" viewBox="0 0 9 10" fill="none" xmlns="http://www.w3.org/2000/svg">
<g clip-path="url(#clip0_26_1223)">
<path d="M3.61649 0.634457C3.90768 0.763936 3.88708 1.03284 3.91135 1.26232C4.10854 2.79878 4.28545 4.34695 4.4682 5.90527C4.5226 6.37436 4.57114 6.83331 4.62554 7.30241C4.63182 7.407 4.66425 7.51002 4.70881 7.72779C4.81957 7.47446 4.89445 7.32301 4.95919 7.17741C5.27117 6.42915 5.56715 5.6766 5.88499 4.93849C5.94973 4.79289 6.03476 4.63558 6.15337 4.513C6.27197 4.39041 6.47729 4.48831 6.46641 4.65691C6.46997 4.80365 6.42124 4.95354 6.37679 5.08742C5.9073 6.35948 5.43782 7.63154 4.96247 8.89346C4.91645 9.00119 4.86029 9.11478 4.78655 9.19793C4.63323 9.35409 4.39632 9.34207 4.32133 9.14188C4.05376 8.44415 3.47326 7.95415 3.07538 7.35872C2.82822 7.00091 2.55648 6.67082 2.29918 6.31888C2.2246 6.21314 2.12816 6.09296 2.10588 5.98408C2.0836 5.8752 2.13234 5.72532 2.21193 5.65231C2.26109 5.59688 2.4254 5.62375 2.51713 5.66548C2.60886 5.70721 2.67329 5.81881 2.74201 5.91441C3.09147 6.40253 3.44092 6.89066 3.80052 7.37292C3.86338 7.45837 3.92624 7.54383 4.08627 7.5867C4.07528 7.40367 4.07016 7.23078 4.04902 7.0536C3.8603 5.13349 3.66728 3.22939 3.49026 1.32958C3.46599 1.10011 3.382 0.837476 3.61649 0.634457Z" fill="black"/>
</g>
<defs>
<clipPath id="clip0_26_1223">
<rect width="4.49849" height="8.01294" fill="white" transform="translate(8.03906 7.33374) rotate(150)"/>
</clipPath>
</defs>
</svg>
