<svg width="20" height="40" viewBox="0 0 20 40" fill="none" xmlns="http://www.w3.org/2000/svg">
<g clip-path="url(#clip0_19_331)">
<path d="M6.50815 6.18765C5.08491 7.35973 3.80507 8.44945 2.35422 9.67286C1.85938 8.44362 2.26255 7.63272 2.77022 7.0574C4.40367 5.12613 6.07571 3.18451 7.94041 1.49878C9.36929 0.193405 10.5095 0.898267 10.7004 2.9997C10.8419 4.76289 10.9835 6.52608 11.2022 8.26859C11.3061 9.11936 11.7297 9.92838 11.9107 10.7585C12.0096 11.1273 11.9265 11.5889 11.9095 11.9888C11.4301 11.8976 10.7906 11.9811 10.576 11.6433C10.1411 11.1008 9.93242 10.3221 9.62993 9.65632C9.49249 9.29778 9.39364 8.9289 9.11343 8.03752C8.85898 8.94037 8.66006 9.43296 8.65411 9.87385C8.7505 12.7035 8.65392 15.5848 9.07004 18.3726C9.98419 24.7172 11.5711 30.7936 15.1704 36.199C15.3631 36.4549 15.5777 36.7927 15.616 37.09C15.6543 37.3872 15.6098 37.8385 15.4002 37.9825C15.2401 38.1571 14.7441 38.1583 14.5458 38.0357C13.9785 37.6166 13.3506 37.1259 12.9819 36.5218C11.975 34.7708 10.9295 33.0302 10.1321 31.1352C7.56973 24.9687 6.10993 18.5947 6.02287 11.9407C6.02472 10.0951 6.32966 8.30017 6.50815 6.18765Z" fill="black"/>
</g>
<defs>
<clipPath id="clip0_19_331">
<rect width="37.5956" height="9.86885" fill="white" transform="matrix(-0.258828 -0.965923 0.965928 -0.25881 10.2784 39.3987)"/>
</clipPath>
</defs>
</svg>
