<svg width="39" height="28" viewBox="0 0 39 28" fill="none" xmlns="http://www.w3.org/2000/svg">
<g clip-path="url(#clip0_19_329)">
<path d="M7.21647 6.90607C7.03888 8.74125 6.90445 10.4168 6.74362 12.3078C5.52448 11.7885 5.23616 10.93 5.18832 10.1642C4.9777 7.64355 4.78706 5.08829 4.91361 2.57773C5.00093 0.644302 6.30567 0.336436 7.92659 1.68746C9.27349 2.83415 10.6204 3.98084 12.0073 5.05833C12.6823 5.58647 13.5539 5.85901 14.2689 6.31794C14.5997 6.50889 14.8673 6.89406 15.1381 7.18881C14.7346 7.46335 14.3415 7.97455 13.9508 7.88741C13.2597 7.81137 12.5614 7.40826 11.8768 7.15139C11.526 6.99504 11.1953 6.80409 10.3668 6.37193C10.8253 7.19027 11.033 7.67925 11.3406 7.99522C13.4096 9.92792 15.3788 12.0336 17.6444 13.7107C22.7773 17.5506 28.1962 20.7253 34.5638 22.0024C34.8809 22.0471 35.2716 22.1342 35.5089 22.3174C35.7462 22.5005 36.0337 22.851 35.9874 23.1011C35.9977 23.3377 35.6477 23.6893 35.4208 23.7429C34.7233 23.8477 33.9323 23.9446 33.2445 23.7782C31.2943 23.2521 29.3241 22.7605 27.4203 21.9843C21.2478 19.4358 15.7083 15.9609 10.9415 11.3173C9.63773 10.011 8.58409 8.52608 7.21647 6.90607Z" fill="black"/>
</g>
<defs>
<clipPath id="clip0_19_329">
<rect width="37.5967" height="9.86895" fill="white" transform="matrix(-0.866034 -0.499985 0.500015 -0.866017 33.3666 27.7244)"/>
</clipPath>
</defs>
</svg>
