<svg width="60" height="60" viewBox="0 0 60 60" fill="none" xmlns="http://www.w3.org/2000/svg">
<g clip-path="url(#clip0_26_1236)">
<path d="M13.4414 14.0882C12.263 15.1192 11.0479 16.1134 9.79595 17.2181C9.02268 16.2975 9.16997 15.1929 9.90642 14.3828C11.5266 12.6153 13.1468 10.7742 15.0984 9.33811C17.2341 7.79157 18.6333 8.45438 19.3329 10.9951C19.9589 13.2413 20.4744 15.5243 20.9899 17.8072C21.174 18.5069 21.4686 19.317 20.4008 19.7957C19.0752 18.9856 19.0752 17.439 18.5597 16.1871C18.0442 14.8615 17.6759 13.5359 17.0868 11.7684C16.6081 12.8362 16.2399 13.499 16.0189 14.1618C13.8096 20.5689 13.4414 26.9024 15.8348 33.3463C16.9395 36.2921 18.5597 38.8696 21.0268 40.8949C24.709 43.8406 28.1703 44.1352 32.1103 41.6681C33.7673 40.6003 35.1665 39.201 36.7499 37.9122C36.0871 37.0285 35.6452 36.4393 35.2402 35.8134C33.1781 32.8676 33.3254 29.8482 35.0192 26.8287C35.682 25.6504 36.6026 24.5826 38.186 24.7667C39.6957 24.9508 40.5058 26.0554 40.9845 27.3442C41.7577 29.2958 41.5736 31.321 41.0949 33.2726C40.7635 34.5614 40.248 35.8134 39.8061 37.139C40.6531 38.2805 41.9787 38.5014 43.2674 38.8328C46.471 39.6797 49.5641 39.0906 52.5835 37.9859C54.6455 37.2494 56.7444 36.4025 58.9169 35.5556C58.5119 37.2126 58.07 37.6545 52.9149 39.3483C50.6687 40.1216 48.2016 40.7476 45.845 40.6739C43.4147 40.6739 40.9845 39.7902 38.0387 39.201C37.3022 39.9375 36.2712 41.1158 35.0929 42.1468C29.7168 46.6391 23.7516 46.4918 18.6333 41.7418C15.2457 38.6487 13.3309 34.6719 12.3735 30.2532C11.3793 25.6504 11.6371 21.1213 13.0363 16.6289C13.2941 15.8557 13.5518 15.0824 13.7728 14.2723C13.6623 14.2355 13.5886 14.1618 13.4414 14.0882ZM37.7809 35.5556C39.9534 31.9102 39.9166 28.4857 37.7441 26.976C35.0192 29.7009 35.0192 33.1622 37.7809 35.5556Z" fill="#CDD2FF"/>
</g>
<defs>
<clipPath id="clip0_26_1236">
<rect width="32.8591" height="50.252" fill="white" transform="translate(59.2852 35.9238) rotate(135)"/>
</clipPath>
</defs>
</svg>
