<svg width="26" height="26" viewBox="0 0 26 26" fill="none" xmlns="http://www.w3.org/2000/svg">
<path d="M20.8757 5.77414C19.4348 5.10247 17.8748 4.61497 16.2498 4.3333C16.2356 4.33285 16.2214 4.33552 16.2083 4.34114C16.1952 4.34675 16.1835 4.35517 16.174 4.3658C15.979 4.7233 15.7515 5.18914 15.5998 5.54664C13.8763 5.28664 12.1234 5.28664 10.3998 5.54664C10.2482 5.1783 10.0207 4.7233 9.81484 4.3658C9.80401 4.34414 9.77151 4.3333 9.73901 4.3333C8.11401 4.61497 6.56484 5.10247 5.11318 5.77414C5.10234 5.77414 5.09151 5.78497 5.08068 5.7958C2.13401 10.205 1.32151 14.495 1.72234 18.7416C1.72234 18.7633 1.73318 18.785 1.75484 18.7958C3.70484 20.2258 5.57901 21.0925 7.43151 21.6666C7.46401 21.6775 7.49651 21.6666 7.50734 21.645C7.94068 21.0491 8.33068 20.4208 8.66651 19.76C8.68818 19.7166 8.66651 19.6733 8.62318 19.6625C8.00568 19.4241 7.42068 19.1425 6.84651 18.8175C6.80318 18.7958 6.80318 18.7308 6.83568 18.6983C6.95484 18.6116 7.07401 18.5141 7.19318 18.4275C7.21484 18.4058 7.24734 18.4058 7.26901 18.4166C10.9957 20.1175 15.0148 20.1175 18.6982 18.4166C18.7198 18.4058 18.7523 18.4058 18.774 18.4275C18.8932 18.525 19.0123 18.6116 19.1315 18.7091C19.1748 18.7416 19.1748 18.8066 19.1207 18.8283C18.5573 19.1641 17.9615 19.435 17.344 19.6733C17.3007 19.6841 17.2898 19.7383 17.3007 19.7708C17.6473 20.4316 18.0373 21.06 18.4598 21.6558C18.4923 21.6666 18.5248 21.6775 18.5573 21.6666C20.4207 21.0925 22.2948 20.2258 24.2448 18.7958C24.2665 18.785 24.2773 18.7633 24.2773 18.7416C24.754 13.8341 23.4865 9.57664 20.919 5.7958C20.9082 5.78497 20.8973 5.77414 20.8757 5.77414ZM9.22984 16.1525C8.11401 16.1525 7.18234 15.1233 7.18234 13.8558C7.18234 12.5883 8.09234 11.5591 9.22984 11.5591C10.3782 11.5591 11.2882 12.5991 11.2773 13.8558C11.2773 15.1233 10.3673 16.1525 9.22984 16.1525ZM16.7807 16.1525C15.6648 16.1525 14.7332 15.1233 14.7332 13.8558C14.7332 12.5883 15.6432 11.5591 16.7807 11.5591C17.929 11.5591 18.839 12.5991 18.8282 13.8558C18.8282 15.1233 17.929 16.1525 16.7807 16.1525Z" fill="#3041D7"/>
</svg>
