<svg width="20" height="4" viewBox="0 0 20 4" fill="none" xmlns="http://www.w3.org/2000/svg">
<path d="M0.65515 2.30533C0.405247 2.30533 0.216132 2.30533 0 2.30533C0 1.55475 0 0.816097 0 0C0.722691 0.0416984 1.45214 0.00595691 2.14106 0.137009C3.13391 0.333587 3.80933 1.32243 3.67424 2.22193C3.54592 3.07377 2.77595 3.88986 1.70204 3.92561C1.14145 3.94348 0.580855 3.92561 0 3.92561C0 3.7469 0 3.56223 0 3.32992C0.472789 3.32992 0.952332 3.32992 1.43187 3.32992C2.06676 3.33587 2.52604 3.08568 2.81647 2.59126C3.29601 1.7692 2.67463 0.750571 1.6345 0.649304C0.648396 0.55995 0.648396 0.55995 0.65515 1.4237C0.65515 1.70963 0.65515 1.99557 0.65515 2.30533Z" fill="black"/>
<path d="M5.84917 3.41292C5.84917 3.6095 5.84917 3.78821 5.84917 3.96096C5.22779 4.02648 4.62667 3.68694 4.29571 3.08529C3.95801 2.47769 4.12011 1.8403 4.72798 1.31013C5.24805 0.857407 6.04504 0.75614 6.7137 1.04803C7.42288 1.36374 7.7741 1.98326 7.65252 2.71596C7.11219 2.71596 6.56511 2.71596 5.991 2.71596C5.991 2.5313 5.991 2.35259 5.991 2.13814C6.29494 2.13814 6.59212 2.13814 6.89606 2.13814C6.8015 1.69137 6.2274 1.45906 5.83566 1.4948C5.28182 1.54245 4.86982 1.89987 4.83605 2.34664C4.79552 2.89467 5.11972 3.24017 5.84917 3.41292Z" fill="black"/>
<path d="M17.0949 2.41824C16.872 2.41824 16.6626 2.41824 16.4533 2.41824C16.3384 1.78681 17.1084 0.94093 18.081 0.887317C19.1211 0.827748 19.9654 1.62002 19.9992 2.40037C20.0329 3.2403 19.1752 4.05639 18.2836 3.99682C18.1215 3.5858 18.1756 3.47262 18.6146 3.32965C19.0536 3.18668 19.3575 2.75183 19.2967 2.3408C19.236 1.90595 18.8442 1.57236 18.3106 1.50684C17.8649 1.45322 17.3786 1.72128 17.1962 2.12635C17.1489 2.20975 17.1287 2.31102 17.0949 2.41824Z" fill="black"/>
<path d="M11.1103 1.80463C11.1103 1.99525 11.1103 2.16204 11.1103 2.37649C10.6037 2.37649 10.1039 2.37649 9.60413 2.37649C8.92196 2.38245 8.97599 2.29309 8.97599 2.93644C8.97599 3.26407 8.97599 3.5917 8.97599 3.9372C8.74635 3.9372 8.54373 3.9372 8.31409 3.9372C8.31409 3.22833 8.31409 2.52541 8.31409 1.80463C9.2259 1.80463 10.1512 1.80463 11.1103 1.80463Z" fill="black"/>
<path d="M11.9546 1.22125C12.1775 1.22125 12.3733 1.22125 12.5895 1.22125C12.5895 2.13862 12.5895 3.03216 12.5895 3.94952C12.3733 3.94952 12.1775 3.94952 11.9546 3.94952C11.9546 3.04407 11.9546 2.15053 11.9546 1.22125Z" fill="black"/>
<path d="M15.8857 3.94952C15.6629 3.94952 15.467 3.94952 15.2509 3.94952C15.2509 3.03216 15.2509 2.13862 15.2509 1.22125C15.467 1.22125 15.6629 1.22125 15.8857 1.22125C15.8857 2.1267 15.8857 3.02024 15.8857 3.94952Z" fill="black"/>
<path d="M8.3009 0.632044C8.3009 0.441423 8.3009 0.262716 8.3009 0.0601807C9.23297 0.0601807 10.1515 0.0601807 11.0971 0.0601807C11.0971 0.250802 11.0971 0.429509 11.0971 0.632044C10.1718 0.632044 9.25999 0.632044 8.3009 0.632044Z" fill="black"/>
<path d="M13.9275 3.34119C14.2382 3.27566 14.2922 3.41267 14.299 3.66286C14.3057 3.91901 14.2044 3.97262 13.9342 3.97858C13.6438 3.98454 13.5492 3.9071 13.556 3.64499C13.5628 3.3948 13.637 3.28758 13.9275 3.34119Z" fill="black"/>
<path d="M11.9481 0.626087C11.9481 0.435466 11.9481 0.262716 11.9481 0.0601807C12.1575 0.0601807 12.3601 0.0601807 12.5898 0.0601807C12.5898 0.244845 12.5898 0.423552 12.5898 0.626087C12.3804 0.626087 12.1845 0.626087 11.9481 0.626087Z" fill="black"/>
<path d="M15.8922 0.0601807C15.8922 0.268672 15.8922 0.441423 15.8922 0.632044C15.6761 0.632044 15.4802 0.632044 15.2573 0.632044C15.2573 0.44738 15.2573 0.268672 15.2573 0.0601807C15.4667 0.0601807 15.6693 0.0601807 15.8922 0.0601807Z" fill="black"/>
</svg>
