<svg width="82" height="18" viewBox="0 0 82 18" fill="none" xmlns="http://www.w3.org/2000/svg">
<path d="M2.68612 10.3735C1.66152 10.3735 0.886144 10.3735 0 10.3735C0 6.99611 0 3.67229 0 0C2.96304 0.187635 5.95378 0.026805 8.77836 0.616515C12.8491 1.50108 15.6183 5.95071 15.0644 9.99827C14.5383 13.8314 11.3814 17.5037 6.97838 17.6645C4.67995 17.7449 2.38151 17.6645 0 17.6645C0 16.8603 0 16.0294 0 14.984C1.93844 14.984 3.90457 14.984 5.8707 14.984C8.47375 15.0108 10.3568 13.885 11.5476 11.6602C13.5137 7.96109 10.966 3.37743 6.70146 2.92175C2.65843 2.51967 2.65843 2.51967 2.68612 6.4064C2.68612 7.69304 2.68612 8.97968 2.68612 10.3735Z" fill="black"/>
<path d="M23.9813 15.3577C23.9813 16.2422 23.9813 17.0464 23.9813 17.8237C21.4337 18.1186 18.9691 16.5907 17.6122 13.8834C16.2276 11.1493 16.8922 8.28116 19.3845 5.89552C21.5168 3.85834 24.7844 3.40265 27.5259 4.7161C30.4336 6.13676 31.8736 8.92448 31.3751 12.2215C29.1598 12.2215 26.9167 12.2215 24.5629 12.2215C24.5629 11.3905 24.5629 10.5864 24.5629 9.62141C25.809 9.62141 27.0275 9.62141 28.2736 9.62141C27.8859 7.61104 25.5321 6.56564 23.926 6.72647C21.6552 6.94091 19.966 8.54921 19.8275 10.5596C19.6614 13.0256 20.9906 14.5803 23.9813 15.3577Z" fill="black"/>
<path d="M70.0886 10.8826C69.1748 10.8826 68.3163 10.8826 67.4579 10.8826C66.9871 8.04127 70.144 4.23497 74.1316 3.99372C78.3962 3.72567 81.8577 7.29073 81.9961 10.8022C82.1346 14.5817 78.6177 18.254 74.9624 17.9859C74.2978 16.1364 74.5193 15.6271 76.3193 14.9838C78.1193 14.3404 79.3654 12.3837 79.1162 10.5341C78.867 8.57737 77.2608 7.07629 75.0732 6.78144C73.2455 6.54019 71.2517 7.74642 70.504 9.56916C70.3101 9.94443 70.2271 10.4001 70.0886 10.8826Z" fill="black"/>
<path d="M45.5529 8.12036C45.5529 8.97812 45.5529 9.72866 45.5529 10.6936C43.476 10.6936 41.4268 10.6936 39.3776 10.6936C36.5807 10.7204 36.8023 10.3184 36.8023 13.2133C36.8023 14.6876 36.8023 16.1619 36.8023 17.7165C35.8607 17.7165 35.03 17.7165 34.0884 17.7165C34.0884 14.5268 34.0884 11.3638 34.0884 8.12036C37.8269 8.12036 41.6207 8.12036 45.5529 8.12036Z" fill="black"/>
<path d="M49.0133 5.49487C49.9271 5.49487 50.7302 5.49487 51.6164 5.49487C51.6164 9.62284 51.6164 13.6436 51.6164 17.7716C50.7302 17.7716 49.9271 17.7716 49.0133 17.7716C49.0133 13.6972 49.0133 9.67645 49.0133 5.49487Z" fill="black"/>
<path d="M65.1303 17.7716C64.2164 17.7716 63.4134 17.7716 62.5272 17.7716C62.5272 13.6436 62.5272 9.62284 62.5272 5.49487C63.4134 5.49487 64.2164 5.49487 65.1303 5.49487C65.1303 9.56923 65.1303 13.59 65.1303 17.7716Z" fill="black"/>
<path d="M34.0337 2.84305C34.0337 1.98529 34.0337 1.18114 34.0337 0.269775C37.8552 0.269775 41.6213 0.269775 45.4982 0.269775C45.4982 1.12753 45.4982 1.93168 45.4982 2.84305C41.7044 2.84305 37.966 2.84305 34.0337 2.84305Z" fill="black"/>
<path d="M57.1019 15.0355C58.3758 14.7406 58.5973 15.3572 58.625 16.483C58.6527 17.6356 58.2373 17.8768 57.1296 17.9036C55.9389 17.9304 55.5512 17.582 55.5789 16.4026C55.6066 15.2767 55.9112 14.7943 57.1019 15.0355Z" fill="black"/>
<path d="M48.9868 2.81625C48.9868 1.95849 48.9868 1.18115 48.9868 0.269775C49.8453 0.269775 50.676 0.269775 51.6176 0.269775C51.6176 1.10073 51.6176 1.90488 51.6176 2.81625C50.7591 2.81625 49.956 2.81625 48.9868 2.81625Z" fill="black"/>
<path d="M65.1586 0.269775C65.1586 1.20795 65.1586 1.98529 65.1586 2.84305C64.2725 2.84305 63.4694 2.84305 62.5555 2.84305C62.5555 2.0121 62.5555 1.20795 62.5555 0.269775C63.414 0.269775 64.2448 0.269775 65.1586 0.269775Z" fill="black"/>
</svg>
