<svg width="20" height="20" viewBox="0 0 20 20" fill="none" xmlns="http://www.w3.org/2000/svg">
<g clip-path="url(#clip0_26_1361)">
<path d="M6.95217 5.42859C8.16458 5.42859 9.32734 5.91022 10.1847 6.76753C11.042 7.62484 11.5236 8.7876 11.5236 10C11.5236 11.2124 11.042 12.3752 10.1847 13.2325C9.32734 14.0898 8.16458 14.5714 6.95217 14.5714C5.73975 14.5714 4.57699 14.0898 3.71968 13.2325C2.86237 12.3752 2.38074 11.2124 2.38074 10C2.38074 8.7876 2.86237 7.62484 3.71968 6.76753C4.57699 5.91022 5.73975 5.42859 6.95217 5.42859ZM13.8093 6.19049C14.9522 6.19049 15.7141 7.8964 15.7141 10C15.7141 12.1036 14.9522 13.8095 13.8093 13.8095C12.6665 13.8095 11.9045 12.1036 11.9045 10C11.9045 7.8964 12.6665 6.19049 13.8093 6.19049ZM16.8569 6.57145C17.1465 6.57145 17.3994 7.20154 17.5274 8.28268L17.5632 8.62021L17.5777 8.79926L17.6005 9.17564L17.6082 9.37297L17.6173 9.78516L17.6188 10L17.6173 10.2149L17.6082 10.6271L17.6005 10.8252L17.5777 11.2008L17.5625 11.3798L17.5282 11.7174C17.3994 12.7993 17.1472 13.4286 16.8569 13.4286C16.5674 13.4286 16.3145 12.7985 16.1865 11.7174L16.1506 11.3798C16.1454 11.3202 16.1406 11.2605 16.1362 11.2008L16.1133 10.8244C16.1104 10.7586 16.1078 10.6929 16.1057 10.6271L16.0965 10.2149V9.78516L16.1057 9.37297L16.1133 9.17487L16.1362 8.79926L16.1514 8.62021L16.1857 8.28268C16.3145 7.20078 16.5666 6.57145 16.8569 6.57145Z" fill="black"/>
</g>
<defs>
<clipPath id="clip0_26_1361">
<rect width="18.2857" height="18.2857" fill="white" transform="translate(0.856934 0.857178)"/>
</clipPath>
</defs>
</svg>
