<svg width="14" height="14" viewBox="0 0 14 14" fill="none" xmlns="http://www.w3.org/2000/svg">
<g clip-path="url(#clip0_26_1398)">
<path fill-rule="evenodd" clip-rule="evenodd" d="M5.06101 7.91472L7.00158 9.24157L8.87221 7.95106L13.0654 12.088C12.955 12.1236 12.837 12.1428 12.7143 12.1428H1.28615C1.1353 12.1428 0.991296 12.1133 0.858953 12.0605L5.06101 7.91472ZM13.8574 4.51494V10.9997C13.8574 11.1691 13.8203 11.3296 13.7545 11.4743L9.64433 7.41894L13.8574 4.51494ZM0.143067 4.55129L4.28615 7.38466L0.215753 11.4016C0.167544 11.2731 0.142921 11.137 0.143067 10.9997V4.55129ZM12.7143 1.85712C13.3451 1.85712 13.8574 2.36866 13.8574 3.0002V3.40203L6.99884 8.13003L0.143067 3.44112V3.0002C0.143067 2.36935 0.65461 1.85712 1.28615 1.85712H12.7143Z" fill="black"/>
</g>
<defs>
<clipPath id="clip0_26_1398">
<rect width="13.7143" height="13.7143" fill="white" transform="translate(0.143066 0.142822)"/>
</clipPath>
</defs>
</svg>
