<svg width="36" height="36" viewBox="0 0 36 36" fill="none" xmlns="http://www.w3.org/2000/svg">
<g clip-path="url(#clip0_9_99)">
<path d="M14.1177 8.19192C13.6685 8.13619 13.6471 8.11762 13.861 8.09904C14.2674 8.04331 15.2086 8.11762 15.8717 8.24765C17.4118 8.56344 18.8022 9.38078 20.2781 10.8111L20.6631 11.2012L21.2193 11.1269C23.5936 10.7925 26.0321 11.0526 28.0642 11.8699C28.6203 12.0929 29.4973 12.5387 29.6043 12.6501C29.6471 12.6873 29.7112 12.9288 29.754 13.1703C29.9038 14.0433 29.8396 14.6935 29.5187 15.195C29.3476 15.4737 29.3476 15.548 29.4546 15.7894C29.5401 15.9752 29.7968 16.1052 30.0321 16.1052C30.5455 16.1052 31.0802 15.3994 31.3369 14.4148L31.4439 14.0247L31.6364 14.2105C32.7273 15.2693 33.5829 16.7368 33.7112 17.7771L33.754 18.0557L33.5615 17.8142C33.2407 17.387 32.9412 17.1083 32.5348 16.8668C31.8075 16.4396 31.0374 16.3096 29.0054 16.2167C27.1658 16.1238 26.1177 15.9938 25.0909 15.6966C23.3369 15.195 22.4385 14.5449 20.3637 12.1486C19.4439 11.0898 18.8663 10.5139 18.2888 10.0309C17.0268 8.97211 15.7647 8.41483 14.1177 8.19192Z" fill="black"/>
<path d="M30.0535 10.5511C30.0963 9.84525 30.2032 9.38085 30.4385 8.95361C30.5241 8.78642 30.6096 8.63782 30.631 8.63782C30.6524 8.63782 30.6096 8.76785 30.5455 8.91646C30.3744 9.32512 30.353 9.90098 30.4599 10.5511C30.6096 11.387 30.6738 11.4985 31.7006 12.4087C32.1711 12.836 32.7273 13.3747 32.9412 13.5976L33.3048 14.0062L32.9412 13.709C32.492 13.3375 31.4653 12.6316 31.23 12.5387C31.0802 12.4644 31.0588 12.4644 30.9519 12.5573C30.8663 12.6316 30.8449 12.7431 30.8449 13.2818C30.8235 14.1177 30.6952 14.6378 30.3744 15.1765C30.2032 15.4552 30.1818 15.3994 30.3316 15.0836C30.4385 14.8422 30.4599 14.7307 30.4599 13.9319C30.4599 12.3158 30.246 11.9257 28.9412 11.2756C28.6203 11.1084 28.0642 10.8669 27.7433 10.7369C27.4011 10.6069 27.1444 10.4954 27.1658 10.4954C27.2086 10.4583 28.4706 10.774 28.9626 10.9598C29.7112 11.2199 29.8396 11.2384 29.9252 11.2199C29.9893 11.1641 30.0321 11.0155 30.0535 10.5511Z" fill="black"/>
<path d="M14.9947 13.3188C14.0963 12.2414 13.5187 10.5696 13.6471 9.32503L13.6899 8.93494L13.9038 8.97209C14.2888 9.02782 14.9519 9.25073 15.2727 9.41791C16.1284 9.86373 16.5134 10.4767 16.877 12C16.984 12.4458 17.1337 12.9659 17.1979 13.1331C17.3048 13.4117 17.7112 14.0619 18.0535 14.4705C18.2888 14.7678 18.1391 14.9164 17.6043 14.8792C16.7915 14.8049 15.7005 14.1548 14.9947 13.3188Z" fill="black"/>
<path d="M28.9626 21.3994C24.7273 19.9133 23.23 18.6315 23.23 16.4582C23.23 16.1424 23.2514 15.8823 23.2514 15.8823C23.2728 15.8823 23.4225 15.9938 23.615 16.1238C24.4706 16.7182 25.4332 16.9783 28.107 17.3127C29.6685 17.517 30.5669 17.6656 31.3797 17.9071C33.9679 18.6501 35.5722 20.1733 35.9573 22.2353C36.0642 22.8297 36 23.9628 35.8289 24.5572C35.6792 25.0216 35.2514 25.8761 35.1444 25.8947C35.123 25.8947 35.0802 25.8018 35.0802 25.6532C35.0375 24.873 34.5883 24.13 33.8396 23.5542C32.9412 22.8854 31.7861 22.3839 28.9626 21.3994Z" fill="black"/>
<path d="M25.9679 22.0124C25.9252 21.7338 25.8182 21.3809 25.754 21.2323L25.6471 20.9536L25.8396 21.1579C26.1177 21.4366 26.3316 21.7709 26.5241 22.2353C26.6738 22.5883 26.6738 22.6997 26.6738 23.2756C26.6738 23.8329 26.6524 23.9629 26.5241 24.2787C26.3102 24.7802 26.0535 25.1332 25.6257 25.5233C24.8556 26.2106 23.8503 26.5821 22.4171 26.7493C22.1605 26.7679 21.4332 26.8236 20.7915 26.8607C19.1872 26.935 18.1177 27.0836 17.1551 27.3809C17.0268 27.418 16.8984 27.4552 16.877 27.4366C16.8342 27.3994 17.4974 27.0651 18.0321 26.8422C18.7808 26.5264 19.5508 26.3592 21.2407 26.0991C22.0749 25.9877 22.9305 25.8391 23.1444 25.7648C25.2621 25.1889 26.3102 23.7586 25.9679 22.0124Z" fill="black"/>
<path d="M27.9144 25.0032C27.3583 23.9443 27.2299 22.9412 27.5294 21.9939C27.5722 21.901 27.615 21.8081 27.6578 21.8081C27.7005 21.8081 27.8289 21.8638 27.9572 21.9381C28.2139 22.0867 28.7487 22.3468 30.1176 22.997C31.8503 23.8143 32.8342 24.4459 33.5187 25.1703C34.1176 25.8019 34.4813 26.5264 34.6524 27.418C34.7594 27.9196 34.6952 29.127 34.5455 29.6285C34.0749 31.2075 33.0053 32.4706 31.4439 33.1951C31.2086 33.3066 31.016 33.3809 30.9947 33.3809C30.9733 33.3809 31.0588 33.1951 31.1872 32.9722C31.7005 32.0248 31.7647 31.1146 31.3797 30.0929C31.1444 29.4614 30.6524 28.6997 29.6684 27.418C28.492 25.9319 28.2139 25.5419 27.9144 25.0032Z" fill="black"/>
<path d="M11.9786 30.6873C13.5615 29.5356 15.508 28.7183 17.3048 28.4582C18.0749 28.3468 19.3583 28.3839 20.0642 28.5511C21.1979 28.8112 22.2246 29.3685 22.7594 30.0558C23.2727 30.7245 23.508 31.3003 23.7433 32.5821C23.8289 33.0836 23.9358 33.6038 23.9572 33.7152C24.1283 34.3839 24.4706 34.9041 24.8984 35.1827C25.5615 35.6099 26.7166 35.6285 27.8503 35.257C28.0428 35.2013 28.2139 35.1455 28.2139 35.1641C28.2567 35.2013 27.6792 35.5356 27.2941 35.7028C26.7594 35.9443 26.3316 36.0186 25.754 36.0186C24.7273 36.0186 23.8503 35.5542 23.1444 34.6254C22.9947 34.4397 22.6952 33.901 22.4385 33.3994C21.6898 31.8948 21.3048 31.449 20.4278 30.9474C19.6578 30.5202 18.6738 30.4273 17.9251 30.7431C16.9412 31.1517 16.6845 32.2477 17.369 32.9164C17.6471 33.1951 18.1604 33.418 18.5882 33.4737C19.3797 33.5666 20.0642 33.0279 20.0642 32.3406C20.0642 31.8948 19.8717 31.6347 19.3583 31.4304C18.6738 31.1703 17.9251 31.4675 17.9465 32.0434C17.9465 32.2849 18.0749 32.4335 18.3529 32.5449C18.5241 32.6192 18.5241 32.6192 18.3957 32.6007C17.7754 32.4892 17.6257 31.8205 18.1177 31.3932C18.7166 30.8731 19.9786 31.096 20.4064 31.8205C20.5775 32.1177 20.5989 32.7121 20.4492 33.0836C20.0856 33.901 19.0588 34.3282 18.0107 34.0867C17.3048 33.9195 17.0054 33.7524 16.1497 32.9907C14.6524 31.6533 14.0749 31.3932 11.9358 31.1146L11.5294 31.0589L11.9786 30.6873Z" fill="black"/>
<path fill-rule="evenodd" clip-rule="evenodd" d="M0.727248 0.798762C5.7112 6.05573 13.3903 14.2291 13.7754 14.6749C14.0962 15.0464 13.9679 15.3994 13.4331 15.6594C13.1337 15.8081 12.5133 15.9567 12.2139 15.9567C11.8716 15.9567 11.4652 15.8081 11.1871 15.5666C10.9946 15.3994 10.1604 14.3406 8.27805 11.7957C6.84489 9.8452 5.62564 8.2291 5.60425 8.21053C5.51869 8.17337 5.51869 8.17338 8.12832 12.2229C9.77538 14.7678 10.3101 15.678 10.3101 15.7895C10.3101 16.031 10.2246 16.161 9.88233 16.4954C9.30479 17.0526 9.0481 17.6842 8.85559 19.0031C8.64169 20.4706 8.06415 21.5108 6.41709 23.2755C5.45452 24.3158 5.30479 24.5015 5.06949 24.9288C4.77003 25.4489 4.68447 25.7461 4.64169 26.4149C4.59891 27.1207 4.68447 27.5666 4.91976 28.2353C5.13366 28.8297 5.36896 29.2198 5.9465 29.9814C6.43848 30.6502 6.73794 31.1517 6.73794 31.3375C6.73794 31.4861 6.78072 31.4861 7.55078 31.3375C9.39035 30.9659 10.9091 30.3344 11.7433 29.5542C12.2567 29.0712 12.385 28.8111 12.385 28.1424C12.385 27.7152 12.3636 27.6223 12.2353 27.3622C12.0214 26.9536 11.6149 26.6192 10.7379 26.0991C9.58286 25.4118 9.09088 24.8545 8.96254 24.1115C8.85559 23.4799 8.98393 23.0526 9.62564 21.8824C10.2887 20.6749 10.4599 20.1734 10.5668 18.9474C10.631 18.1672 10.7379 17.8514 10.9946 17.6099C11.2727 17.3498 11.508 17.257 12.1711 17.1827C13.262 17.0526 13.9679 16.8111 14.524 16.3467C15.016 15.9567 15.2299 15.5666 15.2513 14.9907L15.2727 14.5635L14.9946 14.3034C13.9893 13.3003 0.064146 0 -2.51086e-05 0C-0.0214155 0 0.32083 0.352941 0.727248 0.798762ZM7.29409 27.2136C7.52939 26.8607 7.40104 26.4149 7.01602 26.192C6.65238 25.9876 6.09623 26.0805 6.09623 26.3591C6.09623 26.4334 6.13901 26.5077 6.26735 26.5449C6.45987 26.6378 6.48126 26.7307 6.33153 26.935C6.18179 27.1393 6.18179 27.3251 6.37431 27.4551C6.67377 27.6594 7.08019 27.548 7.29409 27.2136Z" fill="black"/>
<path fill-rule="evenodd" clip-rule="evenodd" d="M15.9572 17.4427C15.4439 17.5728 14.9519 18.0557 14.8022 18.5387C14.7166 18.8359 14.7594 19.3746 14.9091 19.5418C15.1444 19.8019 15.3583 19.8762 15.9572 19.8762C17.1337 19.8762 18.1391 19.4304 18.246 18.8917C18.353 18.4458 17.9038 17.8328 17.2834 17.5542C16.9626 17.4056 16.2995 17.3499 15.9572 17.4427ZM17.3262 18.3715C17.4973 18.1486 17.4332 17.9071 17.1123 17.74C16.5348 17.4242 15.6578 17.6842 15.6578 18.1672C15.6578 18.4087 16.107 18.6688 16.5348 18.6688C16.8128 18.6688 17.1979 18.5201 17.3262 18.3715Z" fill="black"/>
</g>
<defs>
<clipPath id="clip0_9_99">
<rect width="36" height="36" fill="white"/>
</clipPath>
</defs>
</svg>
