<svg width="26" height="22" viewBox="0 0 26 22" fill="none" xmlns="http://www.w3.org/2000/svg">
<path d="M14.7535 0.363525C11.9636 0.363525 9.2879 1.48414 7.31511 3.47884C5.34233 5.47355 4.23403 8.17894 4.23403 10.9999H0.727539L5.27429 15.5972L5.35611 15.7626L10.0782 10.9999H6.57169C6.57169 6.42625 10.2301 2.72716 14.7535 2.72716C19.2769 2.72716 22.9353 6.42625 22.9353 10.9999C22.9353 15.5735 19.2769 19.2726 14.7535 19.2726C12.4977 19.2726 10.4522 18.339 8.97949 16.8381L7.31975 18.5162C8.29387 19.5066 9.45226 20.2922 10.7281 20.8277C12.004 21.3632 13.3721 21.638 14.7535 21.6362C17.5434 21.6362 20.2191 20.5156 22.1919 18.5209C24.1647 16.5262 25.273 13.8208 25.273 10.9999C25.273 8.17894 24.1647 5.47355 22.1919 3.47884C20.2191 1.48414 17.5434 0.363525 14.7535 0.363525ZM13.5847 6.27261V12.1817L18.5522 15.1599L19.4522 13.6472L15.3379 11.1772V6.27261H13.5847Z" fill="#3041D7"/>
</svg>
