<svg width="36" height="36" viewBox="0 0 36 36" fill="none" xmlns="http://www.w3.org/2000/svg">
<path d="M32.6962 9.17281C28.3702 4.87352 19.0612 1.37525 15.0492 0.545632C11.438 -0.202248 7.91361 -0.553711 5.03787 2.02096C0.240851 6.32433 -0.147539 12.9367 0.0342607 16.7783C0.26151 21.5026 1.97208 26.8522 2.9885 29.3247C4.74865 33.6035 7.63678 37.0037 11.5785 35.7287C14.2807 34.8541 15.7103 30.894 16.2516 29.0713C17.2804 25.5567 17.3713 21.7151 16.2805 17.3423C15.7888 15.3806 15.041 13.419 14.4171 11.4246C14.103 10.4315 13.7642 9.44254 13.4791 8.42084C13.3281 7.90438 13.204 7.38058 13.1073 6.85152C13.0571 6.57245 13.0405 6.28849 13.0577 6.00556C13.071 5.69676 13.1839 5.40029 13.38 5.1596C13.4112 5.12884 13.4525 5.11007 13.4965 5.10664C13.5405 5.10321 13.5842 5.11535 13.62 5.14089C13.6557 5.16642 13.6811 5.2037 13.6917 5.24605C13.7022 5.28841 13.6972 5.33309 13.6775 5.37211C13.4585 5.74401 13.5907 6.2385 13.7312 6.7044C13.8954 7.18686 14.0858 7.66025 14.3014 8.12251L15.6194 10.9832C16.4251 12.7855 17.2391 14.5837 17.9126 16.5004C18.8464 16.4432 19.7967 16.3737 20.7305 16.2797C21.8543 16.1734 22.9685 16.0291 24.0731 15.8465C25.1763 15.6667 29.4444 14.8984 29.4733 13.8726C29.4981 13.2351 27.6801 12.0785 27.1926 11.8006C26.2028 11.252 25.1788 10.766 24.1268 10.3457C23.0691 9.93703 21.9948 9.52836 20.9123 9.18507C20.371 9.01342 19.8215 8.86221 19.2595 8.72735C18.7185 8.58287 18.1653 8.48712 17.6068 8.44128C17.5805 8.44128 17.5553 8.43094 17.5367 8.41255C17.5181 8.39415 17.5077 8.36921 17.5077 8.34319C17.5077 8.31718 17.5181 8.29223 17.5367 8.27384C17.5553 8.25545 17.5805 8.24511 17.6068 8.24511C18.751 8.38369 19.8797 8.62722 20.9784 8.97256C22.0816 9.28724 23.1682 9.64687 24.2466 10.031C25.3336 10.4163 26.3996 10.8569 27.4405 11.3511C28.6057 11.9028 30.5187 12.9858 30.4402 14.2118C30.3121 16.104 25.5192 17.1093 24.383 17.375C22.4353 17.8066 20.4618 18.1151 18.4745 18.2986C18.9162 19.918 19.1631 21.5833 19.21 23.2599C19.2441 24.356 19.1554 25.4525 18.9455 26.5293C18.8535 27.002 18.7279 27.4677 18.5695 27.9229C21.2676 27.081 29.8328 25.1071 32.0433 24.2734C34.9356 23.1864 35.4149 21.1797 35.7991 19.0955C36.1451 17.3167 36.043 15.481 35.5018 13.7505C34.9607 12.0199 33.9971 10.4478 32.6962 9.17281V9.17281ZM11.8925 32.116C10.4712 33.8201 8.87632 33.2439 8.36811 32.9333C8.34667 32.9214 8.32797 32.9052 8.31318 32.8858C8.29838 32.8664 8.28782 32.8442 8.28216 32.8205C8.2765 32.7969 8.27586 32.7723 8.28028 32.7484C8.2847 32.7245 8.29409 32.7018 8.30786 32.6816C8.32162 32.6615 8.33946 32.6444 8.36024 32.6314C8.38103 32.6185 8.40431 32.6099 8.42861 32.6063C8.45291 32.6027 8.47771 32.6041 8.50143 32.6104C8.52515 32.6168 8.54729 32.6279 8.56643 32.6431C9.93406 33.4932 11.1819 32.4878 11.6653 31.1188C13.256 26.6233 12.2231 21.5884 7.98798 16.247C7.926 16.1653 7.87642 16.0795 7.93013 15.9936C7.95757 15.9562 7.99774 15.9298 8.04329 15.9192C8.08883 15.9087 8.13668 15.9148 8.17804 15.9364C13.6362 18.3149 15.8219 27.4039 11.8925 32.116Z" fill="black"/>
</svg>
