<svg width="22" height="23" viewBox="0 0 22 23" fill="none" xmlns="http://www.w3.org/2000/svg">
<path d="M2.29775 5.35738C0.737639 7.67035 0.170453 10.5152 0.720971 13.2662C1.27149 16.0171 2.89461 18.4488 5.23328 20.0262L3.27247 22.9332L9.62629 21.7346L9.80921 21.7592L8.50129 15.1812L6.54048 18.0882C2.74877 15.5307 1.72786 10.4292 4.2573 6.67911C6.78674 2.92906 11.8992 1.96458 15.6909 4.52213C19.4826 7.07967 20.5035 12.1812 17.9741 15.9312C16.7126 17.8014 14.7948 18.9751 12.727 19.3567L13.1901 21.6711C14.5559 21.4174 15.855 20.8963 17.0124 20.138C18.1698 19.3797 19.1626 18.3992 19.9336 17.2529C21.4938 14.94 22.0609 12.0951 21.5104 9.34416C20.9599 6.59323 19.3368 4.16156 16.9981 2.58412C14.6595 1.00667 11.7968 0.41265 9.03997 0.932738C6.28311 1.45283 3.85787 3.04442 2.29775 5.35738V5.35738ZM6.54301 9.63071L11.4419 12.935L16.6887 10.4821L15.9379 8.8901L11.5895 10.9198L7.52341 8.1772L6.54301 9.63071Z" fill="#53AE94"/>
</svg>
