<svg width="22" height="26" viewBox="0 0 22 26" fill="none" xmlns="http://www.w3.org/2000/svg">
<path d="M21.9571 13.8208C21.714 11.0415 20.3644 8.47363 18.2054 6.6822C16.0463 4.89077 13.2546 4.02248 10.4444 4.26835L10.1388 0.775195L5.95529 5.70532L5.7976 5.80125L10.9538 10.0903L10.6481 6.59711C15.2044 6.19849 19.2082 9.52062 19.6025 14.0268C19.9967 18.5329 16.6306 22.4999 12.0743 22.8985C7.5181 23.2971 3.51423 19.975 3.11999 15.4688C2.92338 13.2216 3.67519 11.1025 5.04203 9.50457L3.22558 7.99741C2.32387 9.05414 1.64224 10.2766 1.21999 11.5943C0.797732 12.912 0.643218 14.2988 0.765353 15.6748C1.00851 18.4541 2.35806 21.022 4.51712 22.8134C6.67617 24.6048 9.46787 25.4731 12.2781 25.2272C15.0883 24.9814 17.6868 23.6415 19.502 21.5024C21.3171 19.3633 22.2003 16.6001 21.9571 13.8208V13.8208ZM15.9687 13.1714L10.082 13.6864L7.54815 18.8946L9.13356 19.6593L11.2356 15.3454L16.1215 14.918L15.9687 13.1714Z" fill="#53AE94"/>
</svg>
