<svg width="23" height="23" viewBox="0 0 23 23" fill="none" xmlns="http://www.w3.org/2000/svg">
<path d="M4.65144 19.6577C6.77717 21.4646 9.54161 22.3438 12.3366 22.1016C15.1316 21.8595 17.7283 20.516 19.5553 18.3667L22.227 20.6377L21.7402 14.1902L21.785 14.0111L15.1025 14.5816L17.7742 16.8527C14.812 20.3374 9.62876 20.7864 6.18228 17.8568C2.7358 14.9272 2.34411 9.73929 5.30629 6.25452C8.26846 2.76974 13.4517 2.32075 16.8982 5.25038C18.617 6.71141 19.5708 8.74754 19.7208 10.8449L22.0723 10.6413C21.9715 9.25576 21.5977 7.90694 20.9724 6.67261C20.3471 5.43827 19.4827 4.34283 18.429 3.44946C16.3033 1.64252 13.5388 0.76341 10.7438 1.00552C7.94881 1.24764 5.35218 2.59115 3.52516 4.7405C1.69814 6.88984 0.790392 9.66896 1.00161 12.4665C1.21283 15.264 2.52571 17.8508 4.65144 19.6577ZM9.36911 15.9124L13.1962 11.4101L11.3402 5.92369L9.6747 6.49338L11.2098 11.04L8.03326 14.7769L9.36911 15.9124Z" fill="#3041D7"/>
</svg>
