<svg width="14" height="12" viewBox="0 0 14 12" fill="none" xmlns="http://www.w3.org/2000/svg">
<path d="M11.4525 1.34595C12.8981 3.78672 13.612 6.53986 13.3451 9.70934C13.344 9.72275 13.3379 9.73506 13.3283 9.74315C12.2336 10.6662 11.173 11.2265 10.1272 11.598C10.1191 11.6008 10.1103 11.6007 10.1023 11.5975C10.0942 11.5944 10.0872 11.5885 10.0822 11.5805C9.84064 11.1945 9.62111 10.7875 9.4288 10.3601C9.41776 10.335 9.42784 10.3047 9.45056 10.2947C9.7992 10.1439 10.1307 9.96308 10.4496 9.74903C10.4747 9.73212 10.4763 9.69078 10.4531 9.67094C10.3854 9.61324 10.3184 9.55261 10.2542 9.49198C10.2422 9.48077 10.2261 9.47856 10.2125 9.4861C8.14224 10.5839 5.8744 10.5839 3.77969 9.4861C3.76609 9.47911 3.74993 9.4815 3.73825 9.49253C3.67425 9.55316 3.60705 9.61324 3.54001 9.67094C3.51681 9.69078 3.51873 9.73212 3.54401 9.74903C3.86289 9.95904 4.19441 10.1439 4.54256 10.2955C4.56512 10.3054 4.57584 10.335 4.56464 10.3601C4.37649 10.7881 4.15697 11.195 3.91089 11.5811C3.90017 11.5967 3.88257 11.6039 3.86593 11.598C2.82513 11.2265 1.76449 10.6662 0.669772 9.74315C0.660652 9.73506 0.654092 9.7222 0.653132 9.70879C0.430092 6.96723 0.884652 4.19132 2.54401 1.3454C2.54801 1.33786 2.55409 1.33198 2.56113 1.32849C3.37761 0.898178 4.25233 0.581597 5.16656 0.400799C5.1832 0.397859 5.19984 0.406679 5.20848 0.423582C5.32144 0.653255 5.45056 0.947787 5.53792 1.18848C6.5016 1.01945 7.48032 1.01945 8.46416 1.18848C8.55152 0.952932 8.67616 0.653255 8.78864 0.423582C8.79264 0.415197 8.79885 0.408478 8.80638 0.404387C8.81391 0.400295 8.82237 0.399039 8.83056 0.400799C9.74528 0.582148 10.62 0.898729 11.4358 1.32849C11.443 1.33198 11.449 1.33786 11.4525 1.34595ZM6.02784 6.5586C6.03792 5.74813 5.52336 5.07748 4.87744 5.07748C4.23681 5.07748 3.72721 5.74225 3.72721 6.5586C3.72721 7.37476 4.24689 8.03953 4.87744 8.03953C5.51824 8.03953 6.02784 7.37476 6.02784 6.5586ZM10.281 6.5586C10.291 5.74813 9.77647 5.07748 9.13072 5.07748C8.48992 5.07748 7.98032 5.74225 7.98032 6.5586C7.98032 7.37476 8.5 8.03953 9.13072 8.03953C9.77647 8.03953 10.281 7.37476 10.281 6.5586Z" fill="#2E2E2E"/>
</svg>
