<svg width="48" height="48" viewBox="0 0 48 48" fill="none" xmlns="http://www.w3.org/2000/svg">
<g clip-path="url(#clip0_122_612)">
<path d="M11.4227 26.4461L12.6927 16.3078L1.67741 8.18275L11.7419 11.8051L14.1188 7.9302L22.798 2.20801L41.9287 13.407L42.9202 30.4942L34.3973 43.0787L27.6604 44.1755L31.1443 37.3998V30.8767L28.6112 25.7823L26.0373 23.9711L22.0781 28.3078V32.8971L18.9881 35.9711L15.0628 36.4762L13.3243 37.5225L10.472 36.5556L9.28353 32.0096L11.4227 28.8129V26.4461Z" fill="white"/>
<path d="M29.0119 8.09622C26.9134 7.6344 24.618 7.75707 24.618 7.75707C24.618 7.75707 23.8642 11.4588 19.1918 12.433C19.2258 12.433 25.365 14.6627 29.0119 8.09622Z" fill="black"/>
<path d="M30.9134 41.6861C33.4465 39.579 35.348 36.6783 36.2241 33.395C36.2649 33.2724 36.618 33.0559 36.8557 32.8899C37.2496 32.6374 37.6503 32.4281 37.725 32.089C37.8812 31.122 37.9626 30.1118 37.9626 29.1016C37.9626 28.7264 37.6027 28.3439 37.2496 27.9687C36.9711 27.7161 36.6927 27.4203 36.6927 27.211C36.2988 23.3794 34.635 19.8003 31.9796 17.1954L31.7012 17.4912C34.275 20.0601 35.9389 23.5526 36.2988 27.2543C36.3396 27.5935 36.652 27.9254 36.9711 28.2646C37.2496 28.5171 37.5688 28.8995 37.5688 29.0655C37.5688 30.0324 37.4873 30.9994 37.3311 31.9663C37.2903 32.1323 36.9372 32.3054 36.6587 32.4714C36.2649 32.6807 35.9049 32.8899 35.8302 33.2291C34.8795 36.8081 32.6995 39.9254 29.8064 41.9458C30.3226 40.7697 31.9457 36.938 32.8149 34.997L32.6587 28.7697L27.6265 23.5959L24.7742 24.0144L21.6435 29.4047C21.6435 29.4047 23.1104 31.3818 21.0458 33.6981C19.0289 35.9711 17.4397 36.4762 17.4397 36.4762L15.9728 35.632C16.4075 35.0403 17.2835 34.1599 17.9559 33.5682C19.1036 32.558 20.2513 32.4714 20.2513 31.3818C20.2988 29.1016 17.9966 29.7294 17.9966 29.7294L17.1613 30.5736L16.8081 33.6909L15.0696 36.0072L14.8727 35.9639L12.0204 35.2928C12.0204 35.2928 13.7657 34.3259 14.0441 33.2291C14.3226 32.1756 13.4873 28.6831 13.4465 28.4738C13.4873 28.5171 14.2818 29.2315 14.635 30.4077C15.2666 28.5532 16.1019 26.7853 16.3396 26.6193C16.5772 26.4534 19.7827 24.6422 19.7827 24.6422L18.7165 27.6296L19.511 27.1677L21.4126 22.2032C21.4126 22.2032 23.2733 21.2363 24.6587 21.2363C27.1511 21.193 30.8387 17.9531 29.1749 12.1443C29.6503 12.3535 37.8879 16.7336 39.3141 25.3205C40.3803 31.923 36.8557 38.107 30.9134 41.6861Z" fill="black"/>
<path d="M21.4873 9.01989C22.3973 7.87978 22.0441 6.19849 22.0441 6.19849L19.3888 10.3693C19.348 10.3693 20.3328 10.4126 21.4873 9.01989Z" fill="black"/>
<path d="M12.5705 31.7931L12.8896 30.1118C12.8896 30.1118 11.579 32.5508 11.4635 32.8899C11.3413 33.2724 11.545 33.9434 12.0543 33.9002C12.5705 33.8569 13.202 33.0559 13.202 32.4714C13.202 31.7137 12.5705 31.7931 12.5705 31.7931Z" fill="black"/>
<path d="M36.1019 5.02225C36.1019 5.02225 38.0849 5.10884 40.1426 5.36139C35.5042 1.48647 31.1104 0.353575 27.545 0.353575C22.635 0.353575 19.3073 2.50391 19.1036 2.62658L20.6519 0.0144294C20.6519 0.0144294 14.472 -0.620568 12.292 6.32832C11.7351 4.85628 11.2258 2.70595 11.2258 2.70595C11.2258 2.70595 8.01358 5.70054 9.52122 10.6651C5.83361 9.23632 0.570453 7.25195 0.366718 7.21587C0.0882803 7.17258 0.00678619 7.30246 0.00678619 7.30246C0.00678619 7.30246 -0.0747079 7.42513 0.162983 7.64161C0.604409 8.00962 8.92359 14.54 10.7504 15.8028C10.3565 17.3181 10.3565 18.0325 10.7504 18.7468C11.3073 19.7138 11.3413 20.2189 11.2665 20.9333C11.1851 21.6476 10.472 27.8388 10.3158 28.5965C10.1596 29.3542 8.49575 32.0457 8.57045 32.8467C8.65195 33.6476 9.67741 37.0535 10.5942 37.436C11.2665 37.6885 12.9304 38.2369 14.0373 38.2369C14.4312 38.2369 14.7912 38.1503 14.9474 37.9844C15.6197 37.3566 15.8166 37.2267 16.292 37.2267C16.3328 37.2267 16.3735 37.2267 16.4075 37.2267C16.6044 37.2267 16.8421 37.27 17.1205 37.27C17.7521 37.27 18.5874 37.1401 19.1783 36.5556C20.0475 35.632 21.5552 34.3692 22.0306 33.7775C22.6282 32.9765 22.9406 31.8869 22.7844 30.7901C22.6621 29.7799 23.1783 28.8924 23.7759 28.012C24.5297 26.9585 25.9151 25.0679 25.9151 25.0679C28.6519 27.2471 30.3565 30.5737 30.3565 34.2754C30.3565 40.8419 24.9711 46.1455 18.3158 46.1455C17.2835 46.1455 16.2988 46.0228 15.3073 45.7703C18.3565 46.9032 20.9304 47.2856 23.0357 47.2856C27.511 47.2856 29.8879 45.561 29.8879 45.561C29.8879 45.561 29.0594 46.7011 27.708 48C27.7487 48 27.7487 48 27.7487 48C35.1579 46.9032 38.764 40.4233 38.764 40.4233C38.764 40.4233 38.4856 42.5304 38.1324 43.9591C47.9864 36.0866 46.3226 26.2369 46.2818 25.905C46.3633 26.0277 47.3548 27.2904 47.8642 27.9687C49.4533 10.6218 36.1019 5.02225 36.1019 5.02225ZM20.9304 32.724C20.7742 32.9333 20.1019 33.5682 19.6265 34.0301C19.1511 34.4919 18.635 34.9537 18.2411 35.3794C18.0849 35.5454 17.7657 35.632 17.2903 35.632C17.1341 35.632 16.9711 35.632 16.8557 35.632C16.7742 35.632 16.6995 35.632 16.618 35.632C16.5365 35.632 16.4958 35.632 16.4618 35.632C16.3396 35.632 16.2241 35.632 16.1019 35.632C16.6995 34.7877 18.438 32.8539 19.0356 32.4354C19.7487 31.9302 20.1087 31.4251 19.6672 30.5448C19.2326 29.6572 18.0849 29.8737 18.0849 29.8737C18.0849 29.8737 18.7572 29.5779 19.3548 29.5779C18.601 29.3686 17.6502 29.5779 17.2156 30.0397C16.7402 30.5015 16.8217 32.1467 16.6248 33.193C16.4278 34.2898 15.7555 34.8382 14.7233 35.8485C14.1664 36.3969 13.7725 36.5628 13.4533 36.5628C12.781 36.4402 11.9864 36.2237 11.4295 36.0144C11.0356 35.466 10.438 33.6548 10.2818 32.8972C10.3973 32.4786 10.8727 31.5911 11.1104 31.086C11.5857 30.1191 11.8642 29.5707 11.9457 29.0655C12.1019 28.3512 12.618 23.9278 12.8149 22.0806C13.3311 22.7949 14.0441 23.9783 13.8811 24.736C15.0289 23.0114 14.2003 21.3229 13.7997 20.6518C13.4465 19.9808 12.9711 18.6314 13.365 17.2026C13.7589 15.7739 15.1851 11.8124 15.1851 11.8124C15.1851 11.8124 15.6604 12.6999 16.3328 12.5268C17.0051 12.3608 22.4312 3.68731 22.4312 3.68731C22.4312 3.68731 23.8981 7.0932 22.3497 9.58268C20.7674 12.0649 19.219 12.5268 19.219 12.5268C19.219 12.5268 21.399 12.9453 23.416 11.3866C24.2445 13.4504 25.039 15.5935 25.0798 15.8894C24.9576 16.1852 23.3752 20.2261 23.219 20.4786C23.1375 20.5652 22.5874 20.7312 22.1868 20.8178C21.5144 21.0271 21.1205 21.1569 20.9576 21.2796C20.6791 21.5322 19.4092 25.2339 18.8183 27.0451C18.1053 27.2544 17.3922 27.6801 16.8761 28.5171C17.1545 28.3079 18.0238 28.178 18.6621 28.0986C19.219 28.0553 20.9168 29.0222 21.3582 30.8334C21.3582 30.8767 21.3582 30.8767 21.3582 30.92C21.4465 31.5839 21.2496 32.2189 20.9304 32.724ZM17.2088 33.2291C17.5688 32.6807 17.528 31.7571 17.5688 31.4612C17.6095 31.1654 17.6842 30.617 18.0034 30.5376C18.3226 30.451 19.0764 30.5809 19.0764 31.1654C19.0764 31.7138 18.5195 31.8364 18.1256 32.2189C17.8404 32.5075 17.2835 33.1425 17.2088 33.2291ZM33.0119 25.1834C33.4058 23.0403 33.4465 21.1858 33.3311 19.6705C34.8727 21.8569 35.8234 24.5123 36.1019 27.2471C36.1426 27.5863 36.455 27.9182 36.7742 28.2574C37.0526 28.5099 37.3718 28.8491 37.3718 29.0583C37.3718 30.0253 37.2903 30.9922 37.1341 31.9663C37.0934 32.089 36.7402 32.3055 36.4618 32.4714C36.0679 32.6807 35.708 32.89 35.6333 33.2291C34.764 36.469 32.8964 39.3337 30.4041 41.3542C34.0849 37.27 35.8642 30.5304 33.0119 25.1834ZM30.5195 41.7294C33.0934 39.6224 35.0764 36.6783 35.9457 33.3518C35.9864 33.2291 36.3396 33.0126 36.5772 32.8467C36.9711 32.6374 37.3718 32.3848 37.4465 32.0457C37.6027 31.0788 37.6842 30.0686 37.6842 29.0583C37.6842 28.6831 37.3243 28.3007 36.9711 27.9254C36.7742 27.6729 36.455 27.377 36.455 27.1678C36.1358 24.0938 34.9881 21.193 33.2088 18.7901C32.4143 13.739 29.2496 12.1804 29.1681 12.1371C29.2496 12.267 31.3073 15.4203 29.8811 19.1221C28.4143 22.8671 24.6519 22.2826 24.3328 22.3187C24.0136 22.3187 22.7912 24 21.2428 27.1173C21.0458 27.0307 20.2105 26.8214 19.2598 26.9946C19.9728 24.8876 21.0458 21.9002 21.2428 21.6476C21.3243 21.561 21.9151 21.3951 22.3158 21.2724C23.0696 21.0631 23.4227 20.9333 23.545 20.7673C23.6265 20.6374 24.0204 19.6705 24.4143 18.6603C24.7742 18.6603 25.6842 18.5737 25.7589 18.5304C25.8404 18.4438 26.5942 16.3872 26.5942 16.1347C26.5942 15.9254 25.0458 11.8412 24.455 10.2826C24.7334 9.94347 25.0119 9.52495 25.2835 9.06314C33.4058 9.99398 39.7487 17.3181 39.7487 26.1936C39.7487 33.0126 35.9864 38.9513 30.5195 41.7294Z" fill="black"/>
<path d="M19.9796 18.9994C20.7334 18.0758 20.3396 16.3512 18.9474 16.0553C19.3073 15.175 19.8166 13.4071 19.8166 13.4071C19.8166 13.4071 15.7759 20.1395 15.4227 20.2694C15.0628 20.3993 14.7097 18.92 14.7097 18.92C13.9559 21.994 15.9796 22.4125 16.2173 21.4456C17.3243 21.1425 19.2258 19.8797 19.9796 18.9994Z" fill="black"/>
<path d="M16.5297 20.6374L18.5874 16.8923C18.5874 16.8923 19.7759 17.5273 19.1783 18.5376C18.4312 19.7137 16.5297 20.6374 16.5297 20.6374Z" fill="white"/>
<path d="M42.0034 37.9844C41.4058 38.8287 40.7335 39.709 39.9457 40.5533C45.0526 30.1119 40.1834 20.5581 39.9864 20.1829C40.3464 20.5653 40.6995 20.9838 41.0187 21.359C44.9372 25.9844 45.4126 32.9333 42.0034 37.9844Z" fill="black"/>
<path d="M46.7572 24.5556C44.9711 19.4612 42.438 15.1245 36.8557 11.2135C31.4703 7.42512 25.6842 7.72097 25.365 7.76427C25.3243 7.76427 25.2835 7.76427 25.2835 7.76427C25.4805 7.67768 25.6774 7.63438 25.8744 7.59831C27.1036 7.17978 28.6859 6.84064 30.2751 6.63138C34.4788 5.98916 38.7165 7.5045 41.6095 10.7516C41.6503 10.7949 41.6503 10.7949 41.691 10.8382C44.9779 14.54 46.6825 19.1654 46.7572 24.5556Z" fill="black"/>
<path d="M35.5857 3.71623C29.6842 2.54005 25.8812 3.12453 23.1443 4.22135C23.0628 3.8822 22.7844 3.21112 22.5467 2.66272C21.725 3.71624 20.8489 4.97901 20.2988 5.77997C18.7912 6.87679 18.1596 7.93031 18.1596 7.93031C19.0289 4.76975 21.5688 2.41738 24.6587 1.82568C25.528 1.65971 26.4788 1.57312 27.511 1.57312C30.2411 1.61642 32.9711 2.33079 35.5857 3.71623Z" fill="black"/>
<path d="M13.7589 11.798C9.12733 11.632 10.6689 5.90261 10.7504 5.57068C10.7504 5.61397 11.0628 10.0734 13.7589 11.798Z" fill="black"/>
<path d="M18.3158 1.48645C14.7504 3.75945 15.4635 9.18579 15.4635 9.18579C12.0543 3.68008 18.0374 1.61634 18.3158 1.48645Z" fill="black"/>
<path d="M12.455 13.3133C12.6927 13.5226 12.9304 13.905 12.652 14.4534C12.4958 14.7493 12.2581 14.706 11.8981 14.54C11.4228 14.2874 8.57047 12.5196 5.99661 10.7084C8.9304 11.8052 11.8981 12.9814 12.3735 13.2339C12.3735 13.2339 12.4143 13.2772 12.455 13.3133Z" fill="white"/>
</g>
<defs>
<clipPath id="clip0_122_612">
<rect width="48" height="48" fill="white"/>
</clipPath>
</defs>
</svg>
