<svg width="44" height="16" viewBox="0 0 44 16" fill="none" xmlns="http://www.w3.org/2000/svg">
<path d="M42.5042 9.16565C43.0565 9.16565 43.5042 8.71793 43.5042 8.16565C43.5042 7.61336 43.0565 7.16565 42.5042 7.16565V9.16565ZM0.52769 7.45854C0.137168 7.84907 0.137168 8.48223 0.52769 8.87276L6.89165 15.2367C7.28218 15.6272 7.91534 15.6272 8.30587 15.2367C8.69639 14.8462 8.69639 14.213 8.30587 13.8225L2.64901 8.16565L8.30587 2.50879C8.69639 2.11827 8.69639 1.48511 8.30587 1.09458C7.91534 0.704056 7.28218 0.704056 6.89165 1.09458L0.52769 7.45854ZM42.5042 7.16565L1.2348 7.16565V9.16565L42.5042 9.16565V7.16565Z" fill="#706EFF"/>
</svg>
