<svg width="50" height="13" viewBox="0 0 50 13" fill="none" xmlns="http://www.w3.org/2000/svg">
<g clip-path="url(#clip0_36_1068)">
<path d="M43.9613 6.52631C42.9455 4.31578 41.9861 2.31578 40.9139 0.0526264C42.6633 -0.1579 43.5662 0.631574 44.1306 1.47368C46.0493 4.21052 47.968 6.99999 49.4917 9.94736C50.6768 12.2105 49.3789 13.421 46.6136 12.9474C44.2999 12.5263 41.9861 12.1053 39.6723 11.7895C38.5437 11.6316 37.3586 11.8947 36.2299 11.8421C35.722 11.8421 35.1577 11.5789 34.6498 11.421C34.9319 10.8421 35.0448 9.99999 35.5527 9.8421C36.3992 9.47368 37.4714 9.47368 38.4308 9.31578C38.9387 9.26315 39.4466 9.26315 40.6881 9.21052C39.6159 8.57894 39.0516 8.15789 38.4872 7.99999C34.8191 7.15789 31.1509 6.05263 27.4263 5.63157C18.9613 4.63157 10.6091 4.57894 2.42628 7.31578C2.03125 7.47368 1.52335 7.63157 1.12832 7.57894C0.733283 7.52631 0.168948 7.31578 0.0560816 6.99999C-0.113219 6.73684 0.0560816 6.10526 0.281815 5.89473C1.01545 5.31578 1.86195 4.68421 2.76489 4.42105C5.36082 3.73684 7.95676 2.99999 10.6656 2.63157C19.4692 1.47368 28.1599 1.78947 36.7378 3.94736C39.108 4.57894 41.3089 5.57894 43.9613 6.52631Z" fill="#E4E6F9"/>
</g>
<defs>
<clipPath id="clip0_36_1068">
<rect width="50" height="13" fill="white"/>
</clipPath>
</defs>
</svg>
