<svg width="41" height="43" viewBox="0 0 41 43" fill="none" xmlns="http://www.w3.org/2000/svg">
<g clip-path="url(#clip0_36_772)">
<path d="M15.2326 38.1211C18.0189 38.3262 20.8444 37.202 23.5337 37.3897C23.5822 37.3984 23.6194 37.5508 23.6994 37.7837C23.1919 37.9847 22.7272 38.2663 22.2254 38.3956C19.9756 38.8692 17.7059 39.3879 15.4674 39.7178C13.3459 40.0199 12.7609 39.3326 13.35 37.4698C13.8937 35.769 14.52 34.0586 15.1122 32.3664C15.1919 32.1863 15.3543 31.9966 15.6507 31.5635C16.4846 33.4612 15.2053 35.3468 15.158 37.4033C16.7999 36.1168 18.2936 35.0469 19.6817 33.8609C24.3077 29.8509 27.8754 25.3364 29.4549 20.0546C31.5153 13.0366 28.7141 7.19277 22.0592 4.50063C22.0107 4.49199 21.9479 4.45651 21.8995 4.44787C21.4601 4.19953 20.4449 4.18866 21.0661 3.3762C21.6132 2.67201 22.2438 3.19737 22.7515 3.40932C30.7357 6.70276 33.4865 14.0195 29.847 22.3595C27.5431 27.6823 23.4763 32.0835 18.3568 35.9084C17.362 36.6786 16.2902 37.3865 15.2326 38.1211Z" fill="#706EFF" fill-opacity="0.2"/>
</g>
<defs>
<clipPath id="clip0_36_772">
<rect width="31.7052" height="28.6743" fill="white" transform="translate(15.0099 42.4058) rotate(-118.009)"/>
</clipPath>
</defs>
</svg>
