<svg width="40" height="50" viewBox="0 0 40 50" fill="none" xmlns="http://www.w3.org/2000/svg">
<g clip-path="url(#clip0_211_72)">
<path d="M3.47018 38.4426C5.47479 41.001 8.53278 42.197 10.4754 44.6558C10.5064 44.7056 10.418 44.8968 10.3008 45.2086C9.75217 44.9929 9.17482 44.8977 8.6859 44.6114C6.57536 43.2166 4.41468 41.8523 2.42355 40.3162C0.54451 38.8492 0.619467 37.6357 2.51044 36.1756C4.24143 34.8473 6.04396 33.5785 7.80593 32.3C8.00646 32.178 8.27852 32.1154 8.84181 31.91C8.02834 34.6035 5.58426 35.5071 3.96477 37.6263C6.22913 37.6565 8.21186 37.7894 10.2019 37.7118C16.8784 37.3924 23.1219 35.6535 28.4129 31.4371C35.4134 25.8023 37.7372 17.3119 34.6446 8.88915C34.6136 8.8393 34.5922 8.74928 34.5612 8.69943C34.4114 8.06926 33.6319 7.20406 34.7393 6.87355C35.7059 6.59441 35.7909 7.67622 36.0218 8.32573C39.6833 18.4976 36.1867 28.4919 26.9432 34.1865C21.0585 37.8368 14.5149 39.037 7.59786 38.7471C6.23304 38.719 4.8564 38.5607 3.47018 38.4426Z" fill="#706EFF" fill-opacity="0.2"/>
</g>
<defs>
<clipPath id="clip0_211_72">
<rect width="43.0807" height="30.8519" fill="white" transform="translate(0 42.7532) rotate(-76.5931)"/>
</clipPath>
</defs>
</svg>
