<svg width="53" height="33" viewBox="0 0 53 33" fill="none" xmlns="http://www.w3.org/2000/svg">
<g clip-path="url(#clip0_211_70)">
<path d="M6.67091 6.18125C4.51471 8.70281 4.21725 11.7415 2.15048 14.179C2.10576 14.221 1.86478 14.2005 1.48095 14.1908C1.53556 13.6453 1.44732 13.1106 1.60007 12.5964C2.43462 10.3292 3.21866 8.02722 4.24948 5.8226C5.24139 3.73692 6.60775 3.44047 8.85493 4.663C10.9029 5.78456 12.9091 6.98661 14.9124 8.15021C15.1145 8.28964 15.2748 8.50956 15.6905 8.94223C12.441 9.03276 10.6236 7.15908 7.73878 6.37136C8.46395 8.36613 8.98125 10.1446 9.73373 11.8666C12.3233 17.6263 16.3367 22.5825 22.7694 25.9641C31.3423 30.4216 41.5049 29.9254 49.7782 24.6994C49.8229 24.6573 49.9152 24.6117 49.9599 24.5697C50.6062 24.2502 51.3014 23.3083 52.0376 24.1809C52.6699 24.9452 51.5028 25.3426 50.8622 25.739C40.8463 31.9859 28.6287 31.9024 19.2383 25.4958C13.2325 21.4247 9.71378 16.0444 7.71712 9.89193C7.29095 8.68666 7.00474 7.43216 6.67091 6.18125Z" fill="#706EFF" fill-opacity="0.2"/>
</g>
<defs>
<clipPath id="clip0_211_70">
<rect width="49.8049" height="28.5344" fill="white" transform="translate(0.743652 4.42432) rotate(-4.3154)"/>
</clipPath>
</defs>
</svg>
