<svg width="41" height="43" viewBox="0 0 41 43" fill="none" xmlns="http://www.w3.org/2000/svg">
<g clip-path="url(#clip0_211_74)">
<path d="M15.2326 38.1212C18.0189 38.3262 20.8444 37.2021 23.5337 37.3898C23.5822 37.3984 23.6194 37.5508 23.6994 37.7837C23.1919 37.9848 22.7272 38.2664 22.2254 38.3956C19.9756 38.8693 17.7059 39.3879 15.4674 39.7178C13.3459 40.02 12.7608 39.3327 13.35 37.4699C13.8937 35.7691 14.52 34.0587 15.1122 32.3664C15.1919 32.1863 15.3543 31.9966 15.6507 31.5635C16.4845 33.4613 15.2052 35.3469 15.158 37.4034C16.7999 36.1169 18.2935 35.0469 19.6816 33.861C24.3077 29.8509 27.8753 25.3365 29.4548 20.0547C31.5153 13.0366 28.7141 7.19283 22.0592 4.50069C22.0107 4.49205 21.9479 4.45657 21.8994 4.44793C21.4601 4.19959 20.4449 4.18872 21.0661 3.37626C21.6132 2.67207 22.2437 3.19743 22.7515 3.40938C30.7357 6.70282 33.4864 14.0195 29.847 22.3596C27.5431 27.6823 23.4763 32.0836 18.3568 35.9085C17.362 36.6787 16.2902 37.3865 15.2326 38.1212Z" fill="#706EFF" fill-opacity="0.2"/>
</g>
<defs>
<clipPath id="clip0_211_74">
<rect width="31.7052" height="28.6743" fill="white" transform="translate(15.0099 42.4058) rotate(-118.009)"/>
</clipPath>
</defs>
</svg>
