<svg width="50" height="50" viewBox="0 0 50 50" fill="none" xmlns="http://www.w3.org/2000/svg">
<g clip-path="url(#clip0_211_80)">
<path d="M25.1065 4.96597C21.9472 5.31261 19.1476 7.19356 16.1014 7.53979C16.0449 7.53999 15.9573 7.37279 15.7978 7.12209C16.3009 6.7852 16.732 6.36481 17.2506 6.11162C19.6076 5.09783 21.9731 4.02817 24.3611 3.18179C26.6276 2.3917 27.4864 3.05864 27.3966 5.32054C27.3082 7.38698 27.1309 9.48167 26.986 11.5483C26.952 11.7718 26.829 12.0235 26.631 12.5827C25.1285 10.5779 25.9785 8.14571 25.4071 5.77457C23.9724 7.59467 22.6367 9.1352 21.4535 10.7868C17.528 16.3574 14.9319 22.2861 14.7784 28.6805C14.6171 37.1689 19.5034 43.2935 27.7171 44.9944C27.7737 44.9942 27.8542 45.0219 27.9107 45.0217C28.4744 45.215 29.6061 45.0154 29.1621 46.078C28.7676 47.0009 27.9073 46.5294 27.2787 46.3921C17.405 44.2784 12.1279 36.4521 13.6434 26.116C14.5896 19.5232 17.7749 13.6203 22.305 8.15919C23.1772 7.06709 24.1538 6.03045 25.1065 4.96597Z" fill="#706EFF" fill-opacity="0.2"/>
</g>
<defs>
<clipPath id="clip0_211_80">
<rect width="38.3372" height="31.7671" fill="white" transform="translate(24.0543) rotate(49.2186)"/>
</clipPath>
</defs>
</svg>
