<svg width="42" height="42" viewBox="0 0 42 42" fill="none" xmlns="http://www.w3.org/2000/svg">
<path d="M33.7222 9.32758C31.3947 8.24258 28.8747 7.45508 26.2497 7.00008C26.2267 6.99934 26.2038 7.00366 26.1826 7.01273C26.1615 7.02181 26.1426 7.03541 26.1272 7.05258C25.8122 7.63008 25.4447 8.38258 25.1997 8.96008C22.4155 8.54008 19.584 8.54008 16.7997 8.96008C16.5547 8.36508 16.1872 7.63008 15.8547 7.05258C15.8372 7.01758 15.7847 7.00008 15.7322 7.00008C13.1072 7.45508 10.6047 8.24258 8.25972 9.32758C8.24222 9.32758 8.22472 9.34508 8.20722 9.36258C3.44722 16.4851 2.13472 23.4151 2.78222 30.2751C2.78222 30.3101 2.79972 30.3451 2.83472 30.3626C5.98472 32.6726 9.01222 34.0726 12.0047 35.0001C12.0572 35.0176 12.1097 35.0001 12.1272 34.9651C12.8272 34.0026 13.4572 32.9876 13.9997 31.9201C14.0347 31.8501 13.9997 31.7801 13.9297 31.7626C12.9322 31.3776 11.9872 30.9226 11.0597 30.3976C10.9897 30.3626 10.9897 30.2576 11.0422 30.2051C11.2347 30.0651 11.4272 29.9076 11.6197 29.7676C11.6547 29.7326 11.7072 29.7326 11.7422 29.7501C17.7622 32.4976 24.2547 32.4976 30.2047 29.7501C30.2397 29.7326 30.2922 29.7326 30.3272 29.7676C30.5197 29.9251 30.7122 30.0651 30.9047 30.2226C30.9747 30.2751 30.9747 30.3801 30.8872 30.4151C29.9772 30.9576 29.0147 31.3951 28.0172 31.7801C27.9472 31.7976 27.9297 31.8851 27.9472 31.9376C28.5072 33.0051 29.1372 34.0201 29.8197 34.9826C29.8722 35.0001 29.9247 35.0176 29.9772 35.0001C32.9872 34.0726 36.0147 32.6726 39.1647 30.3626C39.1997 30.3451 39.2172 30.3101 39.2172 30.2751C39.9872 22.3476 37.9397 15.4701 33.7922 9.36258C33.7747 9.34508 33.7572 9.32758 33.7222 9.32758ZM14.9097 26.0926C13.1072 26.0926 11.6022 24.4301 11.6022 22.3826C11.6022 20.3351 13.0722 18.6726 14.9097 18.6726C16.7647 18.6726 18.2347 20.3526 18.2172 22.3826C18.2172 24.4301 16.7472 26.0926 14.9097 26.0926ZM27.1072 26.0926C25.3047 26.0926 23.7997 24.4301 23.7997 22.3826C23.7997 20.3351 25.2697 18.6726 27.1072 18.6726C28.9622 18.6726 30.4322 20.3526 30.4147 22.3826C30.4147 24.4301 28.9622 26.0926 27.1072 26.0926Z" fill="#3041D7"/>
</svg>
