<svg width="16" height="14" viewBox="0 0 16 14" fill="none" xmlns="http://www.w3.org/2000/svg">
<path d="M13.5653 1.1824C15.3723 4.23337 16.2647 7.67479 15.9311 11.6366C15.9297 11.6534 15.9221 11.6688 15.9101 11.6789C14.5417 12.8328 13.2159 13.533 11.9087 13.9974C11.8985 14.001 11.8876 14.0008 11.8776 13.9969C11.8675 13.993 11.8587 13.9855 11.8525 13.9756C11.5505 13.4931 11.2761 12.9844 11.0357 12.4501C11.0219 12.4187 11.0345 12.3808 11.0629 12.3684C11.4987 12.1798 11.9131 11.9538 12.3117 11.6862C12.3431 11.6651 12.3451 11.6134 12.3161 11.5886C12.2315 11.5165 12.1477 11.4407 12.0675 11.3649C12.0525 11.3509 12.0323 11.3482 12.0153 11.3576C9.42752 12.7299 6.59273 12.7299 3.97433 11.3576C3.95733 11.3489 3.93713 11.3518 3.92253 11.3656C3.84253 11.4414 3.75853 11.5165 3.67473 11.5886C3.64573 11.6134 3.64813 11.6651 3.67973 11.6862C4.07833 11.9488 4.49273 12.1798 4.92793 12.3693C4.95613 12.3817 4.96953 12.4187 4.95553 12.4501C4.72033 12.985 4.44593 13.4938 4.13833 13.9763C4.12493 13.9958 4.10293 14.0048 4.08213 13.9974C2.78114 13.533 1.45534 12.8328 0.0869404 11.6789C0.0755404 11.6688 0.0673404 11.6527 0.0661405 11.636C-0.212659 8.20901 0.35554 4.73911 2.42974 1.18172C2.43474 1.1723 2.44234 1.16495 2.45114 1.16059C3.47173 0.622692 4.56513 0.226966 5.70793 0.000968189C5.72873 -0.00270657 5.74953 0.00831771 5.76033 0.0294476C5.90153 0.316538 6.06293 0.684703 6.17213 0.985575C7.37673 0.774276 8.60013 0.774276 9.82992 0.985575C9.93912 0.691134 10.0949 0.316538 10.2355 0.0294476C10.2405 0.0189653 10.2483 0.0105674 10.2577 0.00545295C10.2671 0.000338472 10.2777 -0.00123114 10.2879 0.000968189C11.4313 0.227655 12.5247 0.623381 13.5445 1.16059C13.5535 1.16495 13.5609 1.1723 13.5653 1.1824ZM6.78453 7.69822C6.79713 6.68513 6.15393 5.84682 5.34653 5.84682C4.54573 5.84682 3.90873 6.67778 3.90873 7.69822C3.90873 8.71842 4.55833 9.54938 5.34653 9.54938C6.14753 9.54938 6.78453 8.71842 6.78453 7.69822ZM12.1009 7.69822C12.1135 6.68513 11.4703 5.84682 10.6631 5.84682C9.86212 5.84682 9.22513 6.67778 9.22513 7.69822C9.22513 8.71842 9.87472 9.54938 10.6631 9.54938C11.4703 9.54938 12.1009 8.71842 12.1009 7.69822Z" fill="currentColor"/>
</svg>
