<svg width="37" height="36" viewBox="0 0 37 36" fill="none" xmlns="http://www.w3.org/2000/svg">
<path d="M6.6107 31.8179C10.1614 34.8361 14.795 36.2858 19.4921 35.8481C24.1891 35.4103 28.5649 33.1209 31.6568 29.4836L36.1195 33.277L35.3717 22.4304L35.4489 22.1285L24.2189 23.1611L28.6816 26.9546C23.6687 32.8519 14.9582 33.6637 9.20135 28.7702C3.44445 23.8766 2.84273 15.1491 7.85565 9.25179C12.8686 3.35448 21.579 2.54267 27.3359 7.43623C30.2069 9.87669 31.7869 13.2934 32.0162 16.8219L35.9679 16.4536C35.8136 14.1228 35.2004 11.8566 34.1635 9.78589C33.1266 7.71514 31.6866 5.88075 29.9266 4.38853C26.3758 1.37027 21.7423 -0.0794432 17.0452 0.358319C12.3482 0.796083 7.97239 3.08546 4.88051 6.72281C1.78863 10.3602 0.233918 15.0476 0.558389 19.7538C0.882864 24.46 3.05994 28.7996 6.6107 31.8179ZM14.5749 25.4631L21.0515 17.8438L17.9936 8.62965L15.1901 9.60653L17.7192 17.2424L12.3435 23.5664L14.5749 25.4631Z" fill="#3041D7"/>
</svg>
