<svg width="41" height="36" viewBox="0 0 41 36" fill="none" xmlns="http://www.w3.org/2000/svg">
<path d="M23.4286 0C18.7683 0 14.299 1.89642 11.0037 5.27208C7.70841 8.64773 5.85714 13.2261 5.85714 18H0L7.59476 25.78L7.73143 26.06L15.619 18H9.7619C9.7619 10.26 15.8729 4 23.4286 4C30.9843 4 37.0952 10.26 37.0952 18C37.0952 25.74 30.9843 32 23.4286 32C19.6605 32 16.2438 30.42 13.7838 27.88L11.0114 30.72C12.6386 32.396 14.5735 33.7255 16.7047 34.6317C18.8359 35.5379 21.1211 36.0029 23.4286 36C28.0888 36 32.5582 34.1036 35.8534 30.7279C39.1487 27.3523 41 22.7739 41 18C41 13.2261 39.1487 8.64773 35.8534 5.27208C32.5582 1.89642 28.0888 7.11366e-08 23.4286 0ZM21.4762 10V20L29.7738 25.04L31.2771 22.48L24.4048 18.3V10H21.4762Z" fill="#3041D7"/>
</svg>
