<svg width="37" height="42" viewBox="0 0 37 42" fill="none" xmlns="http://www.w3.org/2000/svg">
<path d="M36.6778 22.4642C36.3012 17.8193 34.0498 13.5178 30.4189 10.5061C26.7879 7.49437 22.0749 6.01916 17.3167 6.40496L16.8433 0.566975L9.70253 8.76564L9.43449 8.92448L18.1056 16.1349L17.6322 10.2969C25.3469 9.67144 32.0803 15.2565 32.6909 22.7875C33.3015 30.3185 27.5558 36.9154 19.8412 37.5409C12.1265 38.1664 5.3931 32.5813 4.78249 25.0503C4.47797 21.2946 5.77668 17.7614 8.10956 15.1042L5.05481 12.5704C3.51576 14.3276 2.34703 16.3637 1.61601 18.5611C0.88499 20.7586 0.606153 23.0739 0.795571 25.3736C1.17219 30.0186 3.4236 34.3201 7.05452 37.3318C10.6854 40.3435 15.3984 41.8187 20.1567 41.4329C24.915 41.0471 29.3288 38.8318 32.4271 35.2745C35.5254 31.7172 37.0544 27.1092 36.6778 22.4642ZM26.5527 21.3264L16.5854 22.1345L12.2325 30.8123L14.9056 32.1039L18.5166 24.9162L26.7894 24.2454L26.5527 21.3264Z" fill="#53AE94"/>
</svg>
