<svg width="37" height="38" viewBox="0 0 37 38" fill="none" xmlns="http://www.w3.org/2000/svg">
<path d="M3.22268 8.49851C0.614327 12.3604 -0.315649 17.1256 0.637342 21.7457C1.59033 26.3659 4.34823 30.4625 8.30431 33.1345L5.02604 37.9883L15.7241 36.049L16.0326 36.0925L13.7681 25.0449L10.4898 29.8986C4.07576 25.5665 2.30848 16.9987 6.53745 10.7373C10.7664 4.47597 19.3744 2.91562 25.7884 7.24774C32.2025 11.5799 33.9698 20.1477 29.7408 26.4091C27.6318 29.5317 24.4101 31.4787 20.9284 32.0956L21.7301 35.9826C24.0298 35.5723 26.2145 34.7129 28.1583 33.4541C30.1021 32.1952 31.7665 30.5617 33.0556 28.6479C35.6639 24.786 36.5939 20.0208 35.6409 15.4007C34.6879 10.7805 31.93 6.68387 27.9739 4.01189C24.0179 1.33992 19.1876 0.311519 14.5459 1.15292C9.90411 1.99433 5.83104 4.63661 3.22268 8.49851ZM10.4168 15.7135L18.7038 21.3105L27.5246 17.2553L26.2446 14.5766L18.9341 17.9321L12.056 13.2866L10.4168 15.7135Z" fill="#53AE94"/>
</svg>
