<svg width="23" height="30" viewBox="0 0 23 30" fill="none" xmlns="http://www.w3.org/2000/svg">
<path d="M3.24008 29.6083C2.49061 29.6083 1.84925 29.3399 1.31599 28.803C0.781823 28.2652 0.51474 27.619 0.51474 26.8644V13.1451C0.51474 12.3905 0.781823 11.7443 1.31599 11.2065C1.84925 10.6696 2.49061 10.4012 3.24008 10.4012H4.60275V7.6573C4.60275 5.75945 5.26727 4.14148 6.59633 2.80338C7.92448 1.4662 9.53106 0.797607 11.4161 0.797607C13.3011 0.797607 14.9082 1.4662 16.2372 2.80338C17.5654 4.14148 18.2294 5.75945 18.2294 7.6573V10.4012H19.5921C20.3416 10.4012 20.9834 10.6696 21.5175 11.2065C22.0508 11.7443 22.3174 12.3905 22.3174 13.1451V26.8644C22.3174 27.619 22.0508 28.2652 21.5175 28.803C20.9834 29.3399 20.3416 29.6083 19.5921 29.6083H3.24008ZM11.4161 22.7486C12.1656 22.7486 12.8074 22.4802 13.3415 21.9433C13.8748 21.4055 14.1414 20.7593 14.1414 20.0047C14.1414 19.2502 13.8748 18.604 13.3415 18.0662C12.8074 17.5293 12.1656 17.2609 11.4161 17.2609C10.6666 17.2609 10.0253 17.5293 9.492 18.0662C8.95783 18.604 8.69075 19.2502 8.69075 20.0047C8.69075 20.7593 8.95783 21.4055 9.492 21.9433C10.0253 22.4802 10.6666 22.7486 11.4161 22.7486ZM7.32808 10.4012H15.5041V7.6573C15.5041 6.51402 15.1066 5.54223 14.3118 4.74193C13.5169 3.94163 12.5516 3.54148 11.4161 3.54148C10.2805 3.54148 9.31531 3.94163 8.52042 4.74193C7.72553 5.54223 7.32808 6.51402 7.32808 7.6573V10.4012Z" fill="#DC6BE5"/>
</svg>
