<svg width="22" height="29" viewBox="0 0 22 29" fill="none" xmlns="http://www.w3.org/2000/svg">
<path d="M2.99891 28.6028C2.27621 28.6028 1.65776 28.3417 1.14354 27.8193C0.628455 27.296 0.370911 26.6673 0.370911 25.9331V12.5845C0.370911 11.8504 0.628455 11.2216 1.14354 10.6984C1.65776 10.176 2.27621 9.91481 2.99891 9.91481H4.31292V7.2451C4.31292 5.39854 4.95371 3.8243 6.2353 2.52236C7.51601 1.22132 9.06522 0.570801 10.8829 0.570801C12.7006 0.570801 14.2503 1.22132 15.5319 2.52236C16.8126 3.8243 17.4529 5.39854 17.4529 7.2451V9.91481H18.7669C19.4896 9.91481 20.1085 10.176 20.6236 10.6984C21.1378 11.2216 21.3949 11.8504 21.3949 12.5845V25.9331C21.3949 26.6673 21.1378 27.296 20.6236 27.8193C20.1085 28.3417 19.4896 28.6028 18.7669 28.6028H2.99891ZM10.8829 21.9285C11.6056 21.9285 12.2245 21.6674 12.7396 21.145C13.2538 20.6217 13.5109 19.993 13.5109 19.2588C13.5109 18.5247 13.2538 17.8959 12.7396 17.3727C12.2245 16.8503 11.6056 16.5891 10.8829 16.5891C10.1602 16.5891 9.54177 16.8503 9.02755 17.3727C8.51247 17.8959 8.25492 18.5247 8.25492 19.2588C8.25492 19.993 8.51247 20.6217 9.02755 21.145C9.54177 21.6674 10.1602 21.9285 10.8829 21.9285ZM6.94092 9.91481H14.8249V7.2451C14.8249 6.13271 14.4417 5.18719 13.6752 4.40852C12.9087 3.62985 11.9779 3.24052 10.8829 3.24052C9.78792 3.24052 8.85717 3.62985 8.09067 4.40852C7.32417 5.18719 6.94092 6.13271 6.94092 7.2451V9.91481Z" fill="#706EFF"/>
</svg>
