<svg width="80" height="42" viewBox="0 0 80 42" fill="none" xmlns="http://www.w3.org/2000/svg">
<path d="M75.34 30.9898C75.9731 28.7328 76.6824 26.4919 77.3475 24.0824C79.0704 24.6033 79.79 26.1086 79.53 27.7269C78.9458 31.2687 78.422 34.9028 77.1512 38.3005C75.74 41.9873 73.4435 42.3018 70.4867 39.6897C67.8634 37.3865 65.3484 34.9467 62.8334 32.5069C62.0299 31.7806 60.9975 31.0063 61.9443 29.5322C64.2691 29.4625 65.535 31.4011 67.206 32.5485C68.9373 33.7882 70.484 35.1484 72.6693 36.8817C72.3953 35.1513 72.3143 34.0191 72.0487 33.0074C69.5735 23.1675 64.8507 14.927 56.5756 8.80867C52.7796 6.02032 48.6387 4.11554 43.8884 3.59638C36.8613 2.91795 32.2814 5.38202 29.3621 11.6997C28.1591 14.3947 27.5505 17.294 26.6207 20.2056C28.1749 20.7709 29.2111 21.1477 30.2312 21.6008C35.2274 23.6055 37.5143 27.5109 37.8627 32.6824C37.9964 34.7019 37.7166 36.794 35.5811 37.8594C33.538 38.8644 31.6182 38.1428 29.9632 36.9191C27.3964 35.1057 25.9694 32.4164 24.972 29.5782C24.3324 27.6914 23.9538 25.7001 23.4226 23.6767C21.4266 22.9391 19.5841 23.7472 17.6973 24.3868C12.9883 25.9475 9.59336 29.2179 6.71271 33.0743C4.73073 35.6853 2.79301 38.465 0.762987 41.305C-0.0856586 38.8964 0.10653 37.9808 5.18205 31.6377C7.36467 28.8298 9.94481 26.0256 12.9592 24.1888C16.0056 22.1995 19.7753 21.3179 23.9502 19.6451C24.2705 18.1191 24.5984 15.7981 25.2315 13.5412C28.2932 3.50927 35.8912 -1.18906 46.1954 0.575546C52.9738 1.67973 58.6292 5.09736 63.4463 9.85256C68.4603 14.8084 71.8446 20.6968 73.7679 27.4734C74.0778 28.6537 74.3877 29.8339 74.7739 31.0303C74.9425 30.986 75.0951 31.018 75.34 30.9898ZM27.2573 24.0037C27.5181 30.3516 30.3674 34.6141 34.3265 34.7282C35.5117 29.0821 32.6784 24.7433 27.2573 24.0037Z" fill="#CDD2FF"/>
</svg>
